<svg width="32" height="32" viewBox="0 0 32 32" fill="none" xmlns="http://www.w3.org/2000/svg">
<g clip-path="url(#clip0_614_4734)">
<path d="M14 28C12.2166 26.4093 10.9535 24.3186 10.375 22" stroke="#7BC043" stroke-width="1.5" stroke-linecap="round" stroke-linejoin="round"/>
<path d="M5.49124 13.1962L24.1 20.64" stroke="#7BC043" stroke-width="1.5" stroke-linecap="round" stroke-linejoin="round"/>
<path d="M24 19C24 22.9588 25.6638 26.375 29 28H7.62501C5.29657 25.5828 3.99701 22.3563 4.00001 19C4.00001 15.4738 5.40376 12.6388 7.68376 10.295C7.82204 10.1548 7.99866 10.0585 8.19146 10.0182C8.38426 9.97797 8.58466 9.99555 8.76751 10.0688L11.94 11.3538C12.1847 11.4514 12.4463 11.4998 12.7097 11.4961C12.9731 11.4924 13.2332 11.4366 13.475 11.3321C13.7169 11.2276 13.9357 11.0763 14.1189 10.8869C14.302 10.6976 14.446 10.4739 14.5425 10.2288L17.1675 3.59C17.6863 2.34 19.1013 1.675 20.3713 2.14875C20.6863 2.26583 20.9744 2.44521 21.2185 2.67618C21.4626 2.90714 21.6576 3.18495 21.7919 3.49299C21.9262 3.80104 21.9971 4.133 22.0002 4.46903C22.0033 4.80507 21.9386 5.13828 21.81 5.44875L19.1413 12.0863C18.9458 12.5785 18.9536 13.1281 19.1629 13.6145C19.3721 14.101 19.7658 14.4846 20.2575 14.6813L23.375 15.9113C23.5599 15.9861 23.7183 16.1145 23.8296 16.28C23.941 16.4455 24.0003 16.6405 24 16.84V19Z" stroke="#4F5168" stroke-width="1.5" stroke-linecap="round" stroke-linejoin="round"/>
</g>
<defs>
<clipPath id="clip0_614_4734">
<rect width="32" height="32" fill="white"/>
</clipPath>
</defs>
</svg>
