<svg width="354" height="223" viewBox="0 0 354 223" fill="none" xmlns="http://www.w3.org/2000/svg">
<g opacity="0.3">
<path d="M160.619 20.399C162.523 24.6632 163.504 29.2819 163.498 33.952V132.677H97.0433V33.952C97.0433 29.5884 97.9028 25.2676 99.5728 21.2362C101.243 17.2049 103.691 13.542 106.776 10.4567C109.862 7.37145 113.525 4.92422 117.557 3.25481C121.588 1.58539 125.909 0.726473 130.273 0.727113C136.215 0.725432 142.048 2.3173 147.165 5.33683C152.282 8.35637 156.496 12.693 159.367 17.8949" stroke="#4F5168" stroke-linecap="round" stroke-linejoin="round"/>
<path d="M120.257 11.323C123.426 9.985 126.833 9.29748 130.273 9.30122C137.095 9.30122 143.638 12.0113 148.462 16.8352C153.285 21.6591 155.995 28.2017 155.995 35.0237V132.311" stroke="#4F5168" stroke-linecap="round" stroke-linejoin="round"/>
<path d="M104.546 132.311V35.0237C104.545 30.2535 105.871 25.5771 108.375 21.5172C110.88 17.4573 114.464 14.174 118.727 12.0342" stroke="#4F5168" stroke-linecap="round" stroke-linejoin="round"/>
<path d="M130.273 40.5677V132.491" stroke="#4F5168" stroke-linecap="round" stroke-linejoin="round"/>
<path d="M130.273 0.727112V37.6837" stroke="#4F5168" stroke-linecap="round" stroke-linejoin="round"/>
<path d="M97.4038 30.113H163.055" stroke="#4F5168" stroke-linecap="round" stroke-linejoin="round"/>
<path d="M107.673 50.7592H163.055" stroke="#4F5168" stroke-linecap="round" stroke-linejoin="round"/>
<path d="M97.4038 50.7592H105.51" stroke="#4F5168" stroke-linecap="round" stroke-linejoin="round"/>
<path d="M97.4038 71.4833H163.055" stroke="#4F5168" stroke-linecap="round" stroke-linejoin="round"/>
<path d="M152.907 92.2075H163.055" stroke="#4F5168" stroke-linecap="round" stroke-linejoin="round"/>
<path d="M97.4038 92.2075H149.847" stroke="#4F5168" stroke-linecap="round" stroke-linejoin="round"/>
<path d="M120.647 112.927H163.055" stroke="#4F5168" stroke-linecap="round" stroke-linejoin="round"/>
<path d="M97.4038 112.927H117.943" stroke="#4F5168" stroke-linecap="round" stroke-linejoin="round"/>
<path d="M106.183 11.094L112.136 16.5162" stroke="#4F5168" stroke-linecap="round" stroke-linejoin="round"/>
<path d="M154.115 11.094L148.162 16.5162" stroke="#4F5168" stroke-linecap="round" stroke-linejoin="round"/>
</g>
<g opacity="0.3">
<path d="M245.332 20.3989C247.238 24.6628 248.221 29.2815 248.216 33.9519V132.676H181.752V33.9519C181.752 29.5884 182.612 25.2675 184.282 21.2362C185.952 17.2049 188.399 13.542 191.485 10.4567C194.571 7.37141 198.234 4.92418 202.266 3.25476C206.297 1.58535 210.618 0.726432 214.982 0.727072C220.929 0.720318 226.769 2.30973 231.892 5.32947C237.016 8.34921 241.235 12.6886 244.11 17.8949" stroke="#4F5168" stroke-linecap="round" stroke-linejoin="round"/>
<path d="M204.975 11.323C208.143 9.9845 211.548 9.29694 214.987 9.30123C221.807 9.3051 228.346 12.0167 233.167 16.84C237.989 21.6634 240.698 28.2038 240.699 35.0237V132.311" stroke="#4F5168" stroke-linecap="round" stroke-linejoin="round"/>
<path d="M189.264 132.311V35.0237C189.262 30.2539 190.587 25.5776 193.091 21.5177C195.594 17.4578 199.178 14.1742 203.441 12.0342" stroke="#4F5168" stroke-linecap="round" stroke-linejoin="round"/>
<path d="M214.987 40.5677V132.491" stroke="#4F5168" stroke-linecap="round" stroke-linejoin="round"/>
<path d="M214.987 0.727051V37.6836" stroke="#4F5168" stroke-linecap="round" stroke-linejoin="round"/>
<path d="M182.117 30.113H247.768" stroke="#4F5168" stroke-linecap="round" stroke-linejoin="round"/>
<path d="M192.387 50.7592H247.768" stroke="#4F5168" stroke-linecap="round" stroke-linejoin="round"/>
<path d="M182.117 50.7592H190.224" stroke="#4F5168" stroke-linecap="round" stroke-linejoin="round"/>
<path d="M182.117 71.4833H247.768" stroke="#4F5168" stroke-linecap="round" stroke-linejoin="round"/>
<path d="M237.625 92.2075H247.768" stroke="#4F5168" stroke-linecap="round" stroke-linejoin="round"/>
<path d="M182.117 92.2075H234.561" stroke="#4F5168" stroke-linecap="round" stroke-linejoin="round"/>
<path d="M205.365 112.927H247.768" stroke="#4F5168" stroke-linecap="round" stroke-linejoin="round"/>
<path d="M182.117 112.927H202.661" stroke="#4F5168" stroke-linecap="round" stroke-linejoin="round"/>
<path d="M190.896 11.094L196.849 16.5162" stroke="#4F5168" stroke-linecap="round" stroke-linejoin="round"/>
<path d="M238.829 11.094L232.875 16.5162" stroke="#4F5168" stroke-linecap="round" stroke-linejoin="round"/>
</g>
<path d="M4.00395 178.056H352.996" stroke="#4F5168" stroke-linecap="round" stroke-linejoin="round"/>
<path d="M21.5712 118.174C21.5756 118.167 21.578 118.159 21.578 118.152C21.578 118.144 21.5756 118.136 21.5712 118.13C21.5648 118.125 21.5571 118.123 21.5493 118.123C21.5415 118.123 21.5338 118.125 21.5274 118.13C20.6079 120.337 19.8794 122.619 19.3497 124.95C18.8163 127.283 18.4162 129.645 18.1513 132.024L17.9808 133.816C17.9516 134.114 17.9223 134.411 17.898 134.708L17.8493 135.604C17.8249 136.204 17.7859 136.803 17.7713 137.402V139.2V140.096C17.7713 140.398 17.8054 140.695 17.8298 140.992C17.8736 141.592 17.9077 142.191 17.9662 142.785C18.0782 143.979 18.2585 145.163 18.4534 146.342C18.4534 146.349 18.4564 146.357 18.4619 146.362C18.4674 146.368 18.4748 146.371 18.4826 146.371C18.4869 146.371 18.4911 146.37 18.495 146.368C18.4989 146.366 18.5024 146.364 18.5052 146.361C18.508 146.357 18.51 146.354 18.5112 146.349C18.5123 146.345 18.5125 146.341 18.5118 146.337C18.5118 145.737 18.5118 145.143 18.4728 144.544C18.4339 143.945 18.4046 143.355 18.4095 142.761C18.4144 142.167 18.4095 141.572 18.4095 140.978V140.086V139.195V137.412L18.4582 135.634V134.742C18.4582 134.445 18.4923 134.148 18.5069 133.855L18.6141 132.072C18.8184 129.704 19.155 127.349 19.6226 125.018C20.0724 122.684 20.7244 120.394 21.5712 118.174Z" fill="#4F5168"/>
<path d="M21.8245 127.488C21.8285 127.482 21.8307 127.476 21.8307 127.469C21.8307 127.462 21.8285 127.455 21.8245 127.449C21.8192 127.444 21.8123 127.442 21.8051 127.442C21.7979 127.442 21.7909 127.444 21.7856 127.449C21.2799 128.932 20.8571 130.441 20.5189 131.97C20.1837 133.504 19.9332 135.056 19.7687 136.618C19.6128 138.177 19.4374 139.74 19.4131 141.304C19.3773 142.873 19.4343 144.443 19.5836 146.005C19.5835 146.012 19.5859 146.019 19.5903 146.025C19.5948 146.03 19.6011 146.034 19.6079 146.035C19.6168 146.035 19.6255 146.032 19.6326 146.027C19.6396 146.022 19.6447 146.014 19.6469 146.005C19.8272 144.446 19.9343 142.888 20.0464 141.333C20.1584 139.779 20.1682 138.216 20.2705 136.662C20.3681 135.11 20.5536 133.564 20.8259 132.033C21.0768 130.502 21.4101 128.984 21.8245 127.488Z" fill="#4F5168"/>
<path d="M26.9885 130.762C26.9824 130.757 26.9746 130.754 26.9666 130.754C26.9586 130.754 26.9508 130.757 26.9447 130.762C25.6539 131.593 24.4905 132.607 23.4907 133.773C22.991 134.36 22.5397 134.988 22.1412 135.648L21.8635 136.174L21.6492 136.72C21.5764 136.9 21.513 137.084 21.4592 137.271C21.4056 137.456 21.3423 137.641 21.2887 137.826C20.8947 139.316 20.6563 140.842 20.5774 142.381C20.5002 143.911 20.5572 145.445 20.7479 146.965C20.7479 146.973 20.751 146.98 20.7565 146.986C20.7619 146.991 20.7694 146.994 20.7771 146.994C20.7771 146.994 20.8112 146.994 20.8112 146.965L21.2058 142.425C21.3137 140.923 21.5056 139.428 21.7807 137.948C21.8197 137.763 21.8733 137.587 21.9171 137.407C21.9604 137.225 22.0141 137.046 22.0779 136.871L22.263 136.345L22.5017 135.858C22.8592 135.198 23.2733 134.57 23.7391 133.982C24.6607 132.779 25.752 131.715 26.9788 130.825C26.9856 130.824 26.9919 130.82 26.9968 130.815C27.0016 130.81 27.0047 130.804 27.0058 130.797C27.0069 130.79 27.0058 130.783 27.0027 130.777C26.9996 130.77 26.9947 130.765 26.9885 130.762Z" fill="#4F5168"/>
<path d="M24.4894 136.598C23.8245 137.09 23.2907 137.737 22.9353 138.484C22.5552 139.219 22.2594 139.996 22.0535 140.798C21.9951 140.992 21.9463 141.192 21.9025 141.397L21.7612 142.001C21.685 142.405 21.633 142.813 21.6053 143.224C21.6053 143.638 21.6053 144.047 21.6053 144.461C21.6362 144.872 21.6916 145.28 21.771 145.684C21.7684 145.688 21.767 145.693 21.767 145.699C21.767 145.704 21.7684 145.709 21.771 145.713C21.7798 145.713 21.7885 145.711 21.7956 145.705C21.8027 145.7 21.8077 145.692 21.8099 145.684C21.9022 145.287 21.9737 144.885 22.0243 144.481C22.0876 144.081 22.151 143.682 22.1997 143.287C22.2484 142.892 22.3117 142.493 22.3409 142.093C22.3702 141.694 22.4238 141.299 22.5115 140.91C22.6496 140.124 22.8751 139.356 23.1837 138.62C23.4638 137.875 23.9162 137.207 24.504 136.671C24.5088 136.666 24.5114 136.659 24.5114 136.652C24.5114 136.645 24.5088 136.638 24.504 136.632C24.5051 136.626 24.5043 136.619 24.5017 136.613C24.4991 136.607 24.4948 136.602 24.4894 136.598Z" fill="#4F5168"/>
<path d="M17.25 141.144C17.0795 139.132 16.7629 137.134 16.4316 135.142C16.1003 133.149 15.7691 131.157 15.4037 129.169C15.0383 127.181 14.634 125.208 14.2052 123.235C14.2022 123.228 14.1967 123.221 14.1897 123.217C14.1827 123.212 14.1745 123.21 14.1663 123.211C14.1623 123.217 14.1602 123.223 14.1602 123.23C14.1602 123.237 14.1623 123.244 14.1663 123.25C14.5122 125.237 14.8239 127.23 15.1406 129.223C15.4573 131.215 15.7252 133.212 15.9785 135.21C16.2319 137.207 16.417 139.214 16.6654 141.212L17.4059 147.214C17.4071 147.22 17.4107 147.227 17.416 147.231C17.4214 147.236 17.4282 147.238 17.4352 147.238C17.4352 147.238 17.4644 147.238 17.4693 147.209C17.4693 146.722 17.4693 146.2 17.5034 145.694C17.5375 145.187 17.5034 144.68 17.4741 144.174C17.4108 143.16 17.3231 142.152 17.25 141.144Z" fill="#4F5168"/>
<path d="M16.0419 141.114C15.9347 140.315 15.7837 139.526 15.6326 138.732L15.3501 137.548C15.2575 137.154 15.1698 136.759 15.0529 136.374C14.6529 134.81 14.1384 133.278 13.5135 131.79L13.2748 131.234L13.0019 130.728C12.8314 130.362 12.6268 130.012 12.432 129.661C12.0345 128.949 11.5429 128.293 10.9705 127.712C10.9646 127.706 10.9568 127.703 10.9485 127.703C10.9403 127.703 10.9324 127.706 10.9266 127.712C10.9208 127.718 10.9175 127.726 10.9175 127.734C10.9175 127.742 10.9208 127.75 10.9266 127.756C11.4612 128.358 11.9118 129.03 12.2663 129.754C12.4417 130.109 12.6268 130.465 12.7535 130.835L12.9873 131.381L13.1968 131.941C13.7561 133.434 14.2055 134.966 14.5414 136.525C14.7265 137.305 14.8483 138.094 14.9993 138.873L15.1845 140.057C15.2527 140.447 15.3403 140.841 15.3939 141.236C15.5206 142.02 15.6619 142.81 15.8032 143.599C15.9444 144.388 16.0662 145.177 16.2367 145.966C16.2367 145.97 16.2375 145.974 16.239 145.978C16.2404 145.981 16.2426 145.984 16.2453 145.987C16.248 145.99 16.2512 145.992 16.2548 145.993C16.2583 145.995 16.2621 145.996 16.266 145.996C16.266 145.996 16.2952 145.996 16.3001 145.962C16.3001 145.158 16.3001 144.349 16.2416 143.526C16.1831 142.702 16.1149 141.933 16.0419 141.114Z" fill="#4F5168"/>
<path d="M14.3709 141.221C13.998 140.165 13.572 139.127 13.0945 138.113C12.6201 137.099 12.0849 136.115 11.4917 135.166C11.4849 135.163 11.4774 135.161 11.4698 135.161C11.4622 135.161 11.4547 135.163 11.4479 135.166C11.4427 135.172 11.4399 135.18 11.4399 135.188C11.4399 135.196 11.4427 135.204 11.4479 135.21C11.9625 136.194 12.4195 137.208 12.8168 138.245C13.226 139.278 13.5963 140.325 13.9032 141.387C14.2101 142.449 14.444 143.531 14.7265 144.598C15.0091 145.664 15.2624 146.736 15.5937 147.818C15.5948 147.825 15.5984 147.831 15.6038 147.835C15.6091 147.84 15.6159 147.842 15.6229 147.842C15.6295 147.84 15.6353 147.836 15.6396 147.831C15.6439 147.825 15.6464 147.819 15.647 147.812C15.6475 147.805 15.6459 147.798 15.6425 147.792C15.6391 147.787 15.634 147.782 15.6278 147.779C15.6436 146.654 15.5391 145.53 15.316 144.427C15.0867 143.335 14.7706 142.263 14.3709 141.221Z" fill="#4F5168"/>
<path d="M14.3027 144.744C14.096 144.092 13.7975 143.474 13.416 142.907C13.0591 142.316 12.625 141.775 12.125 141.299C11.869 141.07 11.5935 140.863 11.3017 140.681C11.0154 140.493 10.7014 140.352 10.3712 140.262C10.3655 140.258 10.3587 140.256 10.3517 140.256C10.3448 140.256 10.338 140.258 10.3323 140.262C10.3271 140.268 10.3243 140.276 10.3243 140.284C10.3243 140.292 10.3271 140.299 10.3323 140.306C10.928 140.593 11.456 141.003 11.8815 141.509C12.3092 142.002 12.6711 142.549 12.9581 143.136C13.265 143.716 13.4209 144.354 13.6888 144.953C13.8058 145.26 13.9227 145.567 14.0542 145.874C14.171 146.192 14.3076 146.503 14.4634 146.804C14.4714 146.806 14.4798 146.806 14.4878 146.804C14.4968 146.804 14.5055 146.801 14.5119 146.794C14.5183 146.788 14.5219 146.779 14.5219 146.77C14.5334 146.427 14.5203 146.084 14.4829 145.742C14.4398 145.407 14.3797 145.073 14.3027 144.744Z" fill="#4F5168"/>
<path d="M14.4293 126.124C13.4224 125.842 12.5115 125.29 11.7947 124.529C11.0779 123.768 10.5824 122.825 10.3615 121.803C9.60151 118.247 12.0568 119.771 9.87432 114.179C7.69181 108.586 8.1595 107.344 8.92435 105.712C9.6892 104.08 10.1082 104.611 10.7853 106.73C11.4625 108.849 13.9178 112.147 14.8532 118.329C15.7885 124.512 14.4293 126.124 14.4293 126.124Z" fill="#7BC043"/>
<path d="M20.9476 120.108C20.9476 120.108 18.7456 119.348 18.6628 115.197C18.58 111.046 20.2705 111.894 20.5238 106.73C20.7771 101.566 21.1182 97.922 22.0486 97.8343C22.9791 97.7466 25.4588 100.377 26.2821 106.116C27.1054 111.855 25.1811 115.684 23.4907 117.379C21.8002 119.075 20.9476 120.108 20.9476 120.108Z" fill="#7BC043"/>
<path d="M13.2407 131.118C13.2407 131.118 12.7535 128.068 11.7158 126.631C10.6782 125.194 8.50051 123.922 7.05849 121.126C5.61648 118.329 4.00882 116.975 4.09651 120.955C4.1842 124.935 5.95749 126.967 8.15949 128.326C10.3615 129.685 13.2407 131.118 13.2407 131.118Z" fill="#7BC043"/>
<path d="M12.3102 136.369C10.9665 133.889 9.28423 131.609 7.31182 129.593C4.34984 126.714 1.97733 125.276 2.825 126.714C3.67268 128.151 4.68599 128.068 6.128 130.611C7.57002 133.154 7.14618 134.995 9.17767 136.457C11.2092 137.918 12.3102 136.369 12.3102 136.369Z" fill="#7BC043"/>
<path d="M12.0568 141.368C11.9691 141.114 11.8863 139.248 9.00716 137.724C6.128 136.199 3.41935 136.793 3.75549 137.558C4.09164 138.323 5.87467 139.589 7.65284 140.349C9.0718 140.874 10.5516 141.216 12.0568 141.368Z" fill="#7BC043"/>
<path d="M20.7771 131.288C20.7771 131.288 19.5105 129.68 20.1877 126.29C20.8648 122.899 22.3897 123.752 24.085 121.973C25.7804 120.195 25.4442 119.942 27.1347 118.076C28.8252 116.21 30.3549 115.197 31.032 115.957C31.7092 116.717 30.691 119.094 29.6777 120.449C28.6644 121.803 27.0519 122.48 26.2675 124.175C25.4832 125.871 25.8486 128.56 23.8999 129.851C21.9512 131.142 20.7771 131.288 20.7771 131.288Z" fill="#7BC043"/>
<path d="M25.0155 132.219C25.0155 132.219 28.0652 128.75 30.2672 126.207C32.4692 123.664 33.312 121.72 33.3997 123.411C33.4874 125.101 34.1596 126.46 32.3815 128.662C30.6033 130.864 25.0155 132.219 25.0155 132.219Z" fill="#7BC043"/>
<path d="M23.4225 137.811C23.4225 137.811 23.3396 136.457 28.1675 133.32C32.9953 130.182 35.0268 129.593 34.5007 130.884C33.9745 132.175 31.8748 133.427 29.5851 135.712C27.2954 137.996 23.4225 137.811 23.4225 137.811Z" fill="#7BC043"/>
<path d="M14.6534 125.764C14.6534 125.764 13.5183 119.684 12.3345 115.367C11.1507 111.051 10.3858 108.42 10.3858 108.42" stroke="#4F5168" stroke-linecap="round" stroke-linejoin="round"/>
<path d="M20.7528 120.171C20.7528 120.171 22.8135 113.589 23.4907 109.609C24.1678 105.629 23.403 102.662 23.0668 100.884" stroke="#4F5168" stroke-linecap="round" stroke-linejoin="round"/>
<path d="M12.9727 130.991C12.0608 129.425 11.0178 127.938 9.85483 126.548C7.98898 124.346 6.55183 123.138 5.70416 121.043" stroke="#4F5168" stroke-linecap="round" stroke-linejoin="round"/>
<path d="M20.7771 131.288C20.7771 131.288 21.4592 127.225 23.0668 125.106C24.6745 122.987 27.8947 119.684 29.1662 117.574" stroke="#4F5168" stroke-linecap="round" stroke-linejoin="round"/>
<path d="M11.8571 141.275C11.8571 141.275 9.00717 139.419 6.98542 138.401" stroke="#4F5168" stroke-linecap="round" stroke-linejoin="round"/>
<path d="M28.1772 158.345C27.9824 153.206 22.2727 149.781 22.2727 149.781H13.5037C13.5037 149.781 7.79411 153.191 7.60412 158.345C7.41412 163.5 14.0737 182.329 14.0737 182.329H21.7028C21.7028 182.329 28.3672 163.485 28.1772 158.345Z" fill="#4F5168" stroke="#4F5168" stroke-linecap="round" stroke-linejoin="round"/>
<path d="M23.403 144.729H12.2322L13.5232 149.781H22.112L23.403 144.729Z" fill="#4F5168" stroke="#4F5168" stroke-linecap="round" stroke-linejoin="round"/>
<g opacity="0.3">
<path d="M309.297 17.4613H267.557V71.1277H309.297V17.4613Z" stroke="#4F5168" stroke-linecap="round" stroke-linejoin="round"/>
<path d="M307.008 20.3989H269.847V68.1804H307.008V20.3989Z" stroke="#4F5168" stroke-linecap="round" stroke-linejoin="round"/>
<path d="M297.693 32.3735H279.156V56.2058H297.693V32.3735Z" stroke="#4F5168" stroke-linecap="round" stroke-linejoin="round"/>
</g>
<g opacity="0.3">
<path d="M75.5592 17.4613H33.8186V71.1277H75.5592V17.4613Z" stroke="#4F5168" stroke-linecap="round" stroke-linejoin="round"/>
<path d="M73.2695 20.3989H36.1083V68.1804H73.2695V20.3989Z" stroke="#4F5168" stroke-linecap="round" stroke-linejoin="round"/>
<path d="M63.9548 32.3735H45.4181V56.2058H63.9548V32.3735Z" stroke="#4F5168" stroke-linecap="round" stroke-linejoin="round"/>
</g>
<path d="M318.178 182.845H348.3V77.7143H318.178V182.845Z" fill="white" stroke="#4F5168" stroke-linecap="round" stroke-linejoin="round"/>
<path d="M320.225 106.496H346.546V81.1731H320.225V106.496Z" fill="white" stroke="#4F5168" stroke-linecap="round" stroke-linejoin="round"/>
<path d="M328.122 96.1389H338.649V91.5352H328.122V96.1389Z" fill="#4F5168"/>
<path d="M320.225 136.038H346.546V110.715H320.225V136.038Z" fill="white" stroke="#4F5168" stroke-linecap="round" stroke-linejoin="round"/>
<path d="M328.122 125.676H338.649V121.072H328.122V125.676Z" fill="#4F5168"/>
<path d="M320.225 165.585H346.546V140.262H320.225V165.585Z" fill="white" stroke="#4F5168" stroke-linecap="round" stroke-linejoin="round"/>
<path d="M328.122 155.223H338.649V150.619H328.122V155.223Z" fill="#4F5168"/>
<path d="M337.149 66.8455L338.776 62.3977L337.909 63.372V61.852L336.062 64.6728L337.69 54.5835L335.522 60.1177L335.307 55.2363L334.981 56.8635L334.547 51.3292L333.787 59.7913L332.701 56.8635L332.92 60.6585L329.987 51.982L331.4 62.8313L329.34 61.3113L330.533 63.2648L329.013 62.1784L330.747 67.167L337.042 67.2791" fill="#7BC043"/>
<path d="M330.187 77.7971H336.973L338.8 66.0466H328.36L330.187 77.7971Z" fill="#4F5168" stroke="#4F5168" stroke-linecap="round" stroke-linejoin="round"/>
<path d="M250.545 182.295L252.586 138.786" stroke="#4F5168" stroke-width="4" stroke-miterlimit="10" stroke-linecap="round"/>
<path d="M253.78 182.28L256.498 125.004" stroke="#4F5168" stroke-width="4" stroke-miterlimit="10" stroke-linecap="round"/>
<path d="M291.55 182.28L288.656 125.681" stroke="#4F5168" stroke-width="4" stroke-miterlimit="10" stroke-linecap="round"/>
<path d="M294.444 182.295L292.398 138.786" stroke="#4F5168" stroke-width="4" stroke-miterlimit="10" stroke-linecap="round"/>
<path d="M288.359 94.0099H256.289C255.078 94.0099 254.096 94.9915 254.096 96.2022V124.945C254.096 126.156 255.078 127.137 256.289 127.137H288.359C289.57 127.137 290.551 126.156 290.551 124.945V96.2022C290.551 94.9915 289.57 94.0099 288.359 94.0099Z" fill="#C4C4C4" stroke="#4F5168" stroke-linecap="round" stroke-linejoin="round"/>
<path d="M294.624 141.353H251.753C251.204 141.352 250.677 141.132 250.289 140.743C249.901 140.354 249.683 139.827 249.683 139.278C249.684 138.729 249.903 138.203 250.291 137.815C250.679 137.427 251.204 137.208 251.753 137.207H294.624C295.174 137.207 295.701 137.425 296.09 137.813C296.479 138.201 296.698 138.728 296.699 139.278C296.699 139.828 296.481 140.356 296.091 140.745C295.702 141.134 295.174 141.353 294.624 141.353Z" fill="#C4C4C4" stroke="#4F5168" stroke-linecap="round" stroke-linejoin="round"/>
<path d="M285.67 113.813H256.099V115.124H285.67V113.813Z" fill="white" stroke="#4F5168" stroke-linecap="round" stroke-linejoin="round"/>
<path d="M261.623 83.9451H229.597V108.581H261.623V83.9451Z" fill="white" stroke="#4F5168" stroke-linecap="round" stroke-linejoin="round"/>
<path d="M260.814 83.9451H228.788V108.581H260.814V83.9451Z" fill="white" stroke="#4F5168" stroke-linecap="round" stroke-linejoin="round"/>
<path d="M251.851 113.677H243.905L241.679 114.939H251.851V113.677Z" fill="#C7C7C7" stroke="#4F5168" stroke-linecap="round" stroke-linejoin="round"/>
<path d="M247.261 114.939H239.511L241.737 92.7385H249.483L247.261 114.939Z" fill="#C7C7C7" stroke="#4F5168" stroke-linecap="round" stroke-linejoin="round"/>
<path d="M306.014 120.19L311.217 182.061C311.229 182.153 311.261 182.242 311.31 182.321C311.358 182.4 311.423 182.469 311.499 182.522C311.576 182.575 311.663 182.612 311.754 182.63C311.845 182.648 311.94 182.646 312.03 182.626C312.184 182.585 312.318 182.49 312.407 182.358C312.497 182.227 312.536 182.068 312.518 181.91L308.976 120.19H306.014Z" fill="#4F5168" stroke="#4F5168" stroke-linecap="round" stroke-linejoin="round"/>
<path d="M302.623 120.19L307.841 182.265C307.854 182.357 307.886 182.446 307.935 182.525C307.984 182.604 308.048 182.672 308.125 182.725C308.201 182.778 308.287 182.815 308.379 182.833C308.47 182.851 308.564 182.85 308.654 182.83C308.808 182.789 308.942 182.694 309.031 182.563C309.121 182.431 309.16 182.272 309.142 182.114L305.59 120.19H302.623Z" fill="#4F5168" stroke="#4F5168" stroke-linecap="round" stroke-linejoin="round"/>
<path d="M214.392 120.19L211.664 181.515C211.647 181.673 211.686 181.833 211.775 181.965C211.865 182.097 211.998 182.193 212.151 182.236C212.241 182.259 212.334 182.262 212.425 182.246C212.517 182.23 212.603 182.195 212.68 182.143C212.756 182.091 212.821 182.023 212.869 181.944C212.917 181.866 212.948 181.777 212.96 181.686L217.344 120.19H214.392Z" fill="#4F5168" stroke="#4F5168" stroke-linecap="round" stroke-linejoin="round"/>
<path d="M210.271 120.19L207.538 181.31C207.52 181.469 207.56 181.628 207.649 181.76C207.738 181.892 207.871 181.989 208.025 182.031C208.115 182.054 208.209 182.058 208.3 182.041C208.392 182.025 208.478 181.989 208.555 181.937C208.632 181.884 208.696 181.816 208.744 181.737C208.792 181.657 208.823 181.568 208.834 181.476L213.218 120.19H210.271Z" fill="#4F5168" stroke="#4F5168" stroke-linecap="round" stroke-linejoin="round"/>
<path d="M313.395 116.761H208.327V122.071H313.395V116.761Z" fill="white" stroke="#4F5168" stroke-linecap="round" stroke-linejoin="round"/>
<path d="M313.395 116.761H208.327V118.583H313.395V116.761Z" fill="#4F5168" stroke="#4F5168" stroke-linecap="round" stroke-linejoin="round"/>
<path d="M315.046 114.992H206.68V117.019H315.046V114.992Z" fill="#7BC043" stroke="#4F5168" stroke-linecap="round" stroke-linejoin="round"/>
<path d="M75.9294 182.295L77.9706 138.786" stroke="#4F5168" stroke-width="4" stroke-miterlimit="10" stroke-linecap="round"/>
<path d="M79.1642 182.28L81.8875 125.004" stroke="#4F5168" stroke-width="4" stroke-miterlimit="10" stroke-linecap="round"/>
<path d="M116.934 182.28L114.041 125.681" stroke="#4F5168" stroke-width="4" stroke-miterlimit="10" stroke-linecap="round"/>
<path d="M119.828 182.295L117.787 138.786" stroke="#4F5168" stroke-width="4" stroke-miterlimit="10" stroke-linecap="round"/>
<path d="M113.748 94.0099H81.678C80.4672 94.0099 79.4857 94.9915 79.4857 96.2022V124.945C79.4857 126.156 80.4672 127.137 81.678 127.137H113.748C114.959 127.137 115.941 126.156 115.941 124.945V96.2022C115.941 94.9915 114.959 94.0099 113.748 94.0099Z" fill="#C4C4C4" stroke="#4F5168" stroke-linecap="round" stroke-linejoin="round"/>
<path d="M120.013 141.353H77.1425C76.5921 141.353 76.0642 141.134 75.675 140.745C75.2858 140.356 75.0671 139.828 75.0671 139.278C75.0684 138.728 75.2876 138.201 75.6767 137.813C76.0658 137.425 76.5929 137.207 77.1425 137.207H120.013C120.562 137.208 121.088 137.427 121.476 137.815C121.864 138.203 122.082 138.729 122.084 139.278C122.084 139.827 121.866 140.354 121.478 140.743C121.089 141.132 120.563 141.352 120.013 141.353Z" fill="#C4C4C4" stroke="#4F5168" stroke-linecap="round" stroke-linejoin="round"/>
<path d="M111.054 113.813H81.4831V115.124H111.054V113.813Z" fill="white" stroke="#4F5168" stroke-linecap="round" stroke-linejoin="round"/>
<path d="M87.0125 83.9451H54.9861V108.581H87.0125V83.9451Z" fill="white" stroke="#4F5168" stroke-linecap="round" stroke-linejoin="round"/>
<path d="M86.2038 83.9451H54.1774V108.581H86.2038V83.9451Z" fill="white" stroke="#4F5168" stroke-linecap="round" stroke-linejoin="round"/>
<path d="M77.235 113.677H69.2893L67.063 114.939H77.235V113.677Z" fill="#C7C7C7" stroke="#4F5168" stroke-linecap="round" stroke-linejoin="round"/>
<path d="M72.6459 114.939H64.8999L67.1214 92.7385H74.8723L72.6459 114.939Z" fill="#C7C7C7" stroke="#4F5168" stroke-linecap="round" stroke-linejoin="round"/>
<path d="M131.403 120.19L136.601 182.061C136.615 182.153 136.647 182.241 136.695 182.32C136.744 182.399 136.809 182.467 136.885 182.52C136.962 182.573 137.048 182.61 137.139 182.628C137.23 182.646 137.324 182.645 137.415 182.626C137.568 182.585 137.702 182.49 137.792 182.358C137.881 182.227 137.92 182.068 137.902 181.91L134.36 120.19H131.403Z" fill="#4F5168" stroke="#4F5168" stroke-linecap="round" stroke-linejoin="round"/>
<path d="M128.008 120.19L133.225 182.265C133.239 182.357 133.271 182.446 133.319 182.525C133.368 182.604 133.433 182.672 133.509 182.725C133.585 182.778 133.672 182.815 133.763 182.833C133.854 182.851 133.948 182.85 134.039 182.83C134.192 182.789 134.326 182.694 134.416 182.563C134.505 182.431 134.544 182.272 134.526 182.114L130.989 120.19H128.008Z" fill="#4F5168" stroke="#4F5168" stroke-linecap="round" stroke-linejoin="round"/>
<path d="M39.7913 120.19L37.0632 181.515C37.0467 181.673 37.0865 181.832 37.1756 181.964C37.2647 182.096 37.3974 182.192 37.5503 182.236C37.6397 182.259 37.7329 182.262 37.8237 182.246C37.9145 182.23 38.0009 182.195 38.077 182.143C38.153 182.091 38.2171 182.023 38.2649 181.944C38.3127 181.865 38.3432 181.777 38.3542 181.686L42.7387 120.19H39.7913Z" fill="#4F5168" stroke="#4F5168" stroke-linecap="round" stroke-linejoin="round"/>
<path d="M35.6553 120.19L32.9222 181.31C32.9058 181.469 32.9456 181.628 33.0347 181.76C33.1238 181.891 33.2564 181.988 33.4094 182.031C33.4991 182.053 33.5924 182.056 33.6832 182.04C33.774 182.023 33.8603 181.987 33.9363 181.935C34.0122 181.882 34.0762 181.814 34.1239 181.735C34.1717 181.656 34.2021 181.568 34.2132 181.476L38.5977 120.19H35.6553Z" fill="#4F5168" stroke="#4F5168" stroke-linecap="round" stroke-linejoin="round"/>
<path d="M138.784 116.761H33.7163V122.071H138.784V116.761Z" fill="white" stroke="#4F5168" stroke-linecap="round" stroke-linejoin="round"/>
<path d="M138.784 116.761H33.7163V118.583H138.784V116.761Z" fill="#4F5168" stroke="#4F5168" stroke-linecap="round" stroke-linejoin="round"/>
<path d="M140.43 114.992H32.0648V117.019H140.43V114.992Z" fill="#7BC043" stroke="#4F5168" stroke-linecap="round" stroke-linejoin="round"/>
<path d="M228.257 89.6547L230.498 79.8821L231.794 85.3287L228.257 89.6547Z" fill="#4F5168" stroke="#4F5168" stroke-linecap="round" stroke-linejoin="round"/>
<path d="M231.794 85.3287L228.257 89.6547L235.599 95.6859L231.794 85.3287Z" fill="#7BC043" stroke="#4F5168" stroke-linecap="round" stroke-linejoin="round"/>
<path d="M215.367 54.9586C215.367 54.9586 208.234 55.2461 205.57 58.7634C202.905 62.2808 202.817 64.473 203.187 67.6104C203.558 70.7478 205.282 71.6052 205.282 71.6052C205.282 71.6052 206.373 75.4246 207.718 76.662C209.063 77.8994 211.265 78.2648 211.645 79.3122C211.913 80.0429 212.132 81.6165 212.653 82.2352C213.174 82.8539 214.602 82.9318 215.089 82.2352C215.089 82.2352 219.746 84.2618 221.266 83.1218C222.786 81.9818 223.834 78.7373 223.834 78.7373C225.03 78.9385 226.237 79.0655 227.448 79.1173C228.499 79.1955 229.529 79.4525 230.493 79.8773C230.493 79.8773 229.163 74.3625 228.593 71.5077C228.023 68.6529 226.308 62.5633 224.501 59.1385C222.694 55.7137 218.324 54.3887 215.367 54.9586Z" fill="white" stroke="#4F5168" stroke-linecap="round" stroke-linejoin="round"/>
<path d="M207.192 72.6526C207.952 72.0826 208.332 70.1777 209.477 70.0852C210.622 69.9926 212.522 71.8926 216.229 71.7951C219.936 71.6977 220.701 70.2752 220.701 70.2752C220.701 70.2752 221.271 70.7623 221.841 69.6078C222.411 68.4532 221.938 66.8504 223.458 66.563C224.978 66.2755 226.123 69.7052 226.123 70.5577C226.123 71.2008 227.453 71.4152 228.525 71.1618C227.892 68.1901 226.245 62.4415 224.506 59.1434C222.698 55.7332 218.324 54.3886 215.371 54.9586C215.371 54.9586 208.239 55.2461 205.575 58.7634C202.91 62.2808 202.817 64.473 203.187 67.6104C203.558 70.7477 205.282 71.6051 205.282 71.6051C205.282 71.6051 206.432 73.242 207.192 72.6526Z" fill="#4F5168" stroke="#4F5168" stroke-linecap="round" stroke-linejoin="round"/>
<path d="M212.044 77.3148C212.044 77.3148 213.852 75.2199 215.756 75.1274" stroke="#4F5168" stroke-linecap="round" stroke-linejoin="round"/>
<path d="M213.944 77.7873C213.944 77.7873 215.561 78.2745 216.419 75.7899" stroke="#4F5168" stroke-linecap="round" stroke-linejoin="round"/>
<path d="M216.516 81.6895C216.516 81.6895 217.559 81.787 218.416 80.3596" stroke="#4F5168" stroke-linecap="round" stroke-linejoin="round"/>
<path d="M226.123 70.5577C226.123 70.5577 226.216 72.4626 225.173 72.8426Z" fill="white"/>
<path d="M226.123 70.5577C226.123 70.5577 226.216 72.4626 225.173 72.8426" stroke="#4F5168" stroke-linecap="round" stroke-linejoin="round"/>
<path d="M204.883 220.06L164.151 208.977L178.327 204.568L219.064 215.651L204.883 220.06Z" fill="white" stroke="#4F5168" stroke-linecap="round" stroke-linejoin="round"/>
<path d="M201.589 218.14L170.961 209.805L181.62 206.487L212.254 214.823L201.589 218.14Z" fill="#7BC043" stroke="#4F5168" stroke-linecap="round" stroke-linejoin="round"/>
<path d="M189.858 211.953C189.567 211.954 189.282 211.875 189.032 211.725C188.783 211.575 188.579 211.36 188.444 211.102C188.308 210.845 188.246 210.555 188.263 210.264C188.281 209.974 188.378 209.694 188.543 209.454L257.409 108.956C257.527 108.782 257.679 108.633 257.855 108.517C258.031 108.401 258.228 108.322 258.435 108.282C258.642 108.243 258.854 108.245 259.061 108.289C259.267 108.332 259.462 108.416 259.636 108.535C259.81 108.654 259.958 108.806 260.073 108.983C260.187 109.159 260.266 109.357 260.304 109.564C260.342 109.771 260.338 109.984 260.294 110.19C260.25 110.396 260.165 110.591 260.045 110.764L191.179 211.262C191.032 211.476 190.835 211.652 190.605 211.773C190.375 211.893 190.118 211.955 189.858 211.953Z" fill="white" stroke="#4F5168" stroke-linecap="round" stroke-linejoin="round"/>
<path d="M188.543 209.454C188.378 209.694 188.281 209.974 188.263 210.264C188.246 210.555 188.308 210.845 188.444 211.102C188.579 211.36 188.783 211.575 189.032 211.725C189.282 211.875 189.567 211.954 189.858 211.953C190.118 211.955 190.375 211.893 190.605 211.773C190.835 211.652 191.032 211.476 191.179 211.262L203.134 193.816L199.884 192.905L188.543 209.454Z" fill="#4F5168" stroke="#4F5168" stroke-linecap="round" stroke-linejoin="round"/>
<path d="M253.916 122.154C253.916 122.154 254.998 121.267 255.076 120.585C255.154 119.903 254.715 118.378 254.374 118.427C254.033 118.476 253.97 119.572 253.97 119.572C254.134 119.982 254.217 120.421 254.213 120.863" fill="#7BC043"/>
<path d="M253.916 122.154C253.916 122.154 254.998 121.267 255.076 120.585C255.154 119.903 254.715 118.378 254.374 118.427C254.033 118.476 253.97 119.572 253.97 119.572C254.134 119.982 254.217 120.421 254.213 120.863" stroke="#4F5168" stroke-linecap="round" stroke-linejoin="round"/>
<path d="M249.766 125.525C249.766 125.525 250.769 125.315 251.227 125.233C251.685 125.15 252.961 123.596 252.971 122.699C252.981 121.803 252.406 121.691 251.997 122.246C251.588 122.802 249.766 125.525 249.766 125.525Z" fill="#7BC043" stroke="#4F5168" stroke-linecap="round" stroke-linejoin="round"/>
<path d="M252.591 123.771C252.591 123.771 253.712 122.797 253.916 122.154C254.121 121.511 254.511 119.577 253.97 119.572C253.429 119.567 253.171 119.119 252.995 119.942C252.82 120.765 252.693 121.764 252.693 121.764C252.586 122.427 252.551 123.1 252.591 123.771Z" fill="#7BC043" stroke="#4F5168" stroke-linecap="round" stroke-linejoin="round"/>
<path d="M235.993 104.026L234.254 117.954C234.254 117.954 233.051 122.909 232.379 125.583C231.706 128.258 229.456 136.301 229.456 136.301L236.549 136.705L243.111 118.091L244.718 104.167L235.993 104.026Z" fill="white" stroke="#4F5168" stroke-linecap="round" stroke-linejoin="round"/>
<path d="M229.563 131.956L239.623 136.574L233.343 146.317C233.343 146.317 234.488 150.595 234.488 151.189C234.495 151.42 234.439 151.649 234.326 151.851C234.212 152.052 234.046 152.219 233.845 152.334C233.489 152.543 233.129 152.758 233.129 152.972C233.129 153.186 233.343 154.331 232.914 154.828C232.486 155.325 231.204 155.398 231.204 155.398C231.204 155.398 232.276 156.967 230.917 157.834C229.558 158.701 228.481 156.265 227.994 156.694C227.507 157.123 227.707 161.902 227.137 162.54C226.567 163.178 225.641 162.472 225.568 161.902C225.495 161.332 224.925 156.543 224.925 155.266C224.925 153.99 225.641 146.205 226.284 144.14C226.927 142.074 229.563 131.956 229.563 131.956Z" fill="#7BC043" stroke="#4F5168" stroke-linecap="round" stroke-linejoin="round"/>
<path d="M255.923 165.054L258.676 203.082C258.676 203.082 253.171 206.492 251.071 207.671C248.971 208.85 245.303 209.902 244.908 210.818C244.514 211.734 244.796 213.956 248.46 214.55C252.123 215.144 258.418 214.228 258.418 214.228C258.418 214.228 265.628 216.177 267.07 215.802C268.512 215.427 268.775 212.918 268.906 211.344C269.038 209.771 267.201 200.461 267.201 200.461C267.201 200.461 269.433 173.974 268.775 169.511C268.117 165.049 267.464 155.744 267.464 155.744L268.38 149.844L254.613 149.187L255.923 165.054Z" fill="#4F5168" stroke="#4F5168" stroke-linecap="round" stroke-linejoin="round"/>
<path d="M267.201 200.461L267.255 199.833C264.01 201.109 260.342 200.632 258.486 200.242L258.69 203.082C258.69 203.082 253.185 206.492 251.086 207.671C248.986 208.85 245.318 209.902 244.923 210.818C244.528 211.734 244.811 213.956 248.475 214.55C252.138 215.144 258.432 214.228 258.432 214.228C258.432 214.228 265.642 216.177 267.084 215.802C268.526 215.427 268.789 212.918 268.921 211.344C269.053 209.771 267.201 200.461 267.201 200.461Z" fill="white" stroke="#4F5168" stroke-linecap="round" stroke-linejoin="round"/>
<path d="M267.201 200.461L267.255 199.833C264.01 201.109 260.342 200.632 258.486 200.242L258.69 203.082C258.69 203.082 253.185 206.492 251.086 207.671C248.986 208.85 245.318 209.902 244.923 210.818C244.528 211.734 244.811 213.956 248.475 214.55C252.138 215.144 258.432 214.228 258.432 214.228C258.432 214.228 265.642 216.177 267.084 215.802C268.526 215.427 268.789 212.918 268.921 211.344C269.053 209.771 267.201 200.461 267.201 200.461Z" fill="white" stroke="#4F5168" stroke-linecap="round" stroke-linejoin="round"/>
<path d="M267.201 200.461L267.255 199.833C264.01 201.109 260.342 200.632 258.486 200.242L258.69 203.082C258.69 203.082 253.185 206.492 251.086 207.671C248.986 208.85 245.318 209.902 244.923 210.818C244.528 211.734 244.811 213.956 248.475 214.55C252.138 215.144 258.432 214.228 258.432 214.228C258.432 214.228 265.642 216.177 267.084 215.802C268.526 215.427 268.789 212.918 268.921 211.344C269.053 209.771 267.201 200.461 267.201 200.461Z" fill="white" stroke="#4F5168" stroke-linecap="round" stroke-linejoin="round"/>
<path d="M255.928 204.777C254.233 205.815 252.177 207.057 251.057 207.676C248.962 208.86 245.288 209.907 244.894 210.823C244.499 211.739 244.782 213.96 248.445 214.555C252.109 215.149 258.403 214.233 258.403 214.233C258.403 214.233 265.613 216.182 267.055 215.807C268.497 215.432 268.76 212.923 268.892 211.349C268.945 210.682 268.648 208.631 268.288 206.478C266.516 207.094 264.702 207.582 262.861 207.939C259.358 208.616 256.937 206.102 255.928 204.777Z" fill="white" stroke="#4F5168" stroke-linecap="round" stroke-linejoin="round"/>
<path d="M267.07 215.802C267.927 215.568 268.366 214.594 268.609 213.512C266.729 214.311 263.207 213.561 261.17 213.049C259.134 212.538 257.365 213.313 250.808 213.576C247.885 213.693 246.107 213.181 245.035 212.577C245.454 213.405 246.443 214.224 248.445 214.55C252.109 215.149 258.403 214.228 258.403 214.228C258.403 214.228 265.628 216.197 267.07 215.802Z" fill="#7BC043" stroke="#4F5168" stroke-linecap="round" stroke-linejoin="round"/>
<path d="M283.2 108.143C283.2 108.143 285.563 115.747 284.661 120.21C283.76 124.672 259.616 159.286 259.616 159.286C259.616 159.286 257.385 175.153 255.027 184.199C252.669 193.246 248.601 201.903 248.338 204.392C248.075 206.882 248.601 214.755 248.47 216.197C248.338 217.639 238.108 219.344 234.045 220.26C229.982 221.175 221.062 219.081 221.062 217.375C221.062 215.67 229.597 213.025 232.076 211.213C235.594 208.645 241.143 201.026 240.997 199.672C240.826 198.147 245.323 170.169 245.323 166.364C245.323 162.559 245.717 157.186 246.37 155.481C247.023 153.776 249.649 146.566 249.649 146.566C249.649 146.566 264.751 118.631 264.994 111.29C265.238 103.948 267.221 104.469 269.189 103.948C271.157 103.427 280.842 104.864 283.2 108.143Z" fill="#4F5168" stroke="#4F5168" stroke-linecap="round" stroke-linejoin="round"/>
<path d="M278.085 95.5543C278.085 95.5543 283.726 107.095 283.726 109.195C283.726 111.295 279.527 113.131 279.527 113.131L273.759 96.0805L278.085 95.5543Z" fill="white" stroke="#4F5168" stroke-linecap="round" stroke-linejoin="round"/>
<path d="M249.283 201.06C246.438 201.148 243.606 200.635 240.972 199.555C240.969 199.594 240.969 199.633 240.972 199.672C241.118 201.026 235.569 208.645 232.052 211.213C229.572 213.025 221.037 215.67 221.037 217.376C221.037 219.081 229.957 221.18 234.02 220.26C238.083 219.339 248.314 217.639 248.445 216.197C248.577 214.755 248.051 206.887 248.314 204.393C248.529 203.253 248.854 202.137 249.283 201.06Z" fill="white" stroke="#4F5168" stroke-linecap="round" stroke-linejoin="round"/>
<path d="M248.45 216.197C248.528 215.363 248.382 212.372 248.299 209.522C246.804 210.463 245.016 211.247 243.466 210.95C240.056 210.297 240.582 208.855 239.662 207.671C239.033 206.862 237.596 206.546 236.763 206.429C235.384 208.2 233.805 209.805 232.057 211.213C229.577 213.025 221.042 215.67 221.042 217.375C221.042 219.081 229.962 221.18 234.025 220.26C238.088 219.339 248.319 217.639 248.45 216.197Z" fill="white" stroke="#4F5168" stroke-linecap="round" stroke-linejoin="round"/>
<path d="M248.45 216.197C248.479 215.895 248.475 215.31 248.45 214.55C245.113 215.924 238.449 218.282 231.526 218.554C224.472 218.837 222.206 217.434 221.49 216.606C221.244 216.787 221.079 217.059 221.032 217.361C221.032 219.066 229.952 221.166 234.015 220.245C238.078 219.324 248.319 217.639 248.45 216.197Z" fill="#7BC043" stroke="#4F5168" stroke-linecap="round" stroke-linejoin="round"/>
<path d="M250.155 103.817L247.271 117.457C247.271 117.457 244.908 121.788 245.435 122.329C246.184 122.91 246.982 123.423 247.822 123.864L251.89 118.748L256.055 109.492L250.155 103.817Z" fill="#7BC043" stroke="#4F5168" stroke-linecap="round" stroke-linejoin="round"/>
<path d="M248.45 117.453C248.45 117.453 247.792 120.863 246.989 122.042C246.185 123.221 244.757 124.404 246.068 124.799C247.378 125.194 250.136 121.389 250.789 120.337C251.441 119.284 251.709 116.274 251.709 116.274" fill="#7BC043"/>
<path d="M248.45 117.453C248.45 117.453 247.792 120.863 246.989 122.042C246.185 123.221 244.757 124.404 246.068 124.799C247.378 125.194 250.136 121.389 250.789 120.337C251.441 119.284 251.709 116.274 251.709 116.274" stroke="#4F5168" stroke-linecap="round" stroke-linejoin="round"/>
<path d="M247.661 100.933C247.661 100.933 252.255 106.701 253.829 109.322C255.402 111.943 256.318 118.091 255.777 122.568C255.236 127.045 248.699 148.665 248.699 148.665C248.699 148.665 253.814 151.155 262.203 151.812C270.592 152.47 278.07 152.728 278.07 152.728C278.07 152.728 282.528 122.436 281.743 114.437C280.959 106.438 277.023 96.8648 277.023 96.8648L278.07 95.5543L277.237 94.6774L250.443 96.1048L247.661 100.933Z" fill="#7BC043" stroke="#4F5168" stroke-linecap="round" stroke-linejoin="round"/>
<path d="M273.885 107.509C274.665 107.3 275.464 107.076 276.267 106.823" stroke="#4F5168" stroke-linecap="round" stroke-linejoin="round"/>
<path d="M259.28 109.599C263.441 109.528 267.583 109.014 271.634 108.065" stroke="#4F5168" stroke-linecap="round" stroke-linejoin="round"/>
<path d="M256.055 109.453C256.055 109.453 257.969 111.665 265.866 113.068" stroke="#4F5168" stroke-linecap="round" stroke-linejoin="round"/>
<path d="M275.922 96.9427L271.937 99.8901" stroke="#4F5168" stroke-linecap="round" stroke-linejoin="round"/>
<path d="M275.4 98.8476L272.107 102.838" stroke="#4F5168" stroke-linecap="round" stroke-linejoin="round"/>
<path d="M257.546 114.797C257.546 114.797 261.009 120.346 264.478 122.256" stroke="#4F5168" stroke-linecap="round" stroke-linejoin="round"/>
<path d="M277.237 94.6774C277.237 94.6774 277.69 89.8057 278.742 89.8057C279.795 89.8057 282.284 92.5582 281.626 92.8213C280.969 93.0844 278.348 94.6579 278.348 94.6579L285.563 103.934L283.2 106.16L277.237 94.6774Z" fill="#7BC043" stroke="#4F5168" stroke-linecap="round" stroke-linejoin="round"/>
<path d="M230.498 79.8821C230.498 79.8821 231.765 86.8535 233.221 90.9165C234.678 94.9795 234.853 105.639 234.853 105.639L248.007 106.175L250.579 96.9184L277.237 94.6774C277.237 94.6774 264.785 79.9503 257.015 73.3882C249.244 66.826 232.379 65.6227 230.503 65.8907C229.267 66.1048 228.085 66.56 227.025 67.2304L230.498 79.8821Z" fill="white" stroke="#4F5168" stroke-linecap="round" stroke-linejoin="round"/>
<path d="M250.589 96.933L253.38 89.4842L251.821 106.131L249.049 102.837L250.589 96.933Z" fill="#4F5168" stroke="#4F5168" stroke-linecap="round" stroke-linejoin="round"/>
<path d="M217.276 54.6761C217.95 52.8192 219.265 51.2642 220.984 50.2915C223.746 48.8641 228.291 50.009 229.831 51.9089C231.37 53.8089 232.213 56.2935 233.543 57.2386C234.873 58.1837 237.538 55.6212 239.915 56.8586C242.292 58.096 243.247 60.8533 243.437 62.1833C243.627 63.5133 246.672 59.9959 250.569 61.8033C254.467 63.6107 255.134 69.2229 254.282 70.9377C253.429 72.6526 249.41 75.4051 244.767 72.0777C240.124 68.7503 237.158 66.0855 236.398 66.9381C235.638 67.7906 235.638 72.1703 232.403 69.8903C229.168 67.6104 226.123 59.6159 224.028 57.2239C222.728 55.7964 220.915 54.9416 218.986 54.8466L217.276 54.6761Z" fill="#4F5168" stroke="#4F5168" stroke-linecap="round" stroke-linejoin="round"/>
<path d="M228.389 66.4217C228.389 66.4217 232.189 74.0313 232.715 76.9153C233.241 79.7993 231.794 85.3092 231.794 85.3092L227.025 67.1865L228.389 66.4217Z" fill="#7BC043" stroke="#4F5168" stroke-linecap="round" stroke-linejoin="round"/>
<path d="M157.808 48.8836C157.808 48.8836 156.702 51.5874 156.95 52.5715C157.084 53.0016 157.12 53.456 157.056 53.9018C156.992 54.3476 156.829 54.7735 156.58 55.1486C156.093 55.7624 155.606 56.3763 156.093 56.8683L156.58 57.3555C156.58 57.3555 157.067 61.4087 157.686 62.0225C158.305 62.6364 159.898 62.6364 159.898 62.6364L160.019 65.7104C161.567 65.5114 163.131 65.469 164.687 65.5837C165.991 65.7446 167.304 65.8275 168.618 65.8322C168.618 65.8322 167.882 63.0066 168.131 60.9167C168.379 58.8267 169.358 55.0219 168.501 52.8102C167.644 50.5984 162.972 48.1431 161.379 48.3867C159.786 48.6303 157.808 48.8836 157.808 48.8836Z" fill="white" stroke="#4F5168" stroke-linecap="round" stroke-linejoin="round"/>
<path d="M162.353 45.4296C161.585 45.3567 160.837 45.1489 160.141 44.8158C159.284 44.3286 157.564 44.202 158.056 45.186C158.396 45.9011 158.683 46.6404 158.914 47.3978C158.914 47.3978 155.844 45.9363 156.478 47.0275C156.849 47.6953 157.302 48.314 157.827 48.869C157.827 48.869 157.954 52.0648 158.689 52.4351C159.425 52.8053 159.055 53.8966 158.933 54.8709C158.811 55.8453 158.933 56.7124 159.42 56.7124H159.907C159.907 56.7124 160.643 55.7381 161.257 57.0827C161.73 58.1302 162.021 59.2504 162.119 60.3954C162.241 61.3697 164.204 62.2418 165.437 62.3441C166.669 62.4464 168.136 62.0956 168.384 61.7302C168.633 61.3649 170.82 58.4126 171.575 55.5871C172.33 52.7615 171.575 49.2003 170.114 47.7242C168.652 46.2481 165.934 45.2883 165.934 45.2883C165.934 45.2883 163.6 42.3653 163.113 43.1984C162.758 43.9034 162.502 44.6543 162.353 45.4296Z" fill="#4F5168" stroke="#4F5168" stroke-linecap="round" stroke-linejoin="round"/>
<path d="M122.406 58.4951L121.829 58.691L125.419 69.2539L125.995 69.0579L122.406 58.4951Z" fill="white" stroke="#4F5168" stroke-linecap="round" stroke-linejoin="round"/>
<path d="M125.026 59.0654L120.091 60.7413C119.48 60.9488 118.811 60.9053 118.232 60.6203C117.653 60.3354 117.211 59.8322 117.003 59.2213L111.921 40.3533C111.768 39.8939 111.802 39.3925 112.016 38.9582C112.231 38.5239 112.608 38.1919 113.066 38.0344L116.764 36.7775C117.223 36.6224 117.724 36.6553 118.159 36.8689C118.593 37.0825 118.925 37.4595 119.083 37.9175L126.551 55.9768C126.758 56.5886 126.714 57.2577 126.428 57.8369C126.142 58.4161 125.638 58.858 125.026 59.0654Z" fill="#7BC043" stroke="#4F5168" stroke-linecap="round" stroke-linejoin="round"/>
<path d="M127.618 75.4343L129.304 75.3173L128.081 73.1641C127.653 73.8384 127.488 74.6464 127.618 75.4343Z" fill="white" stroke="#4F5168" stroke-linecap="round" stroke-linejoin="round"/>
<path d="M142.209 71.3518L136.314 72.5795L127.345 68.2778L125.728 70.3677C125.728 70.3677 130.521 77.9822 131.871 78.7178C133.22 79.4534 144.893 78.8444 144.893 78.8444L142.209 71.3518Z" fill="white" stroke="#4F5168" stroke-linecap="round" stroke-linejoin="round"/>
<path d="M124.651 65.082C124.651 65.082 122.269 63.8007 121.977 63.8592C121.886 63.8659 121.798 63.8915 121.719 63.9344C121.639 63.9774 121.569 64.0367 121.514 64.1084C121.459 64.1801 121.42 64.2627 121.399 64.3507C121.377 64.4387 121.375 64.5302 121.392 64.6192C121.509 65.082 121.684 65.6617 121.684 65.6617C121.684 65.6617 120.754 68.4532 120.988 69.1547C121.36 70.0207 121.989 70.7518 122.79 71.2495C123.247 71.4157 123.714 71.5507 124.188 71.6539L127.598 75.4343C127.598 75.4343 128.295 73.2225 129.109 72.2921C129.815 71.5424 130.573 70.8439 131.379 70.2021C131.379 70.2021 128.704 67.8734 128.529 67.7663C128.167 67.2347 127.855 66.6704 127.598 66.0807C127.365 65.5935 126.726 65.384 125.971 64.9163C125.216 64.4487 125.041 64.2197 124.748 64.3951C124.456 64.5704 124.651 65.082 124.651 65.082Z" fill="#7BC043" stroke="#4F5168" stroke-linecap="round" stroke-linejoin="round"/>
<path d="M172.442 176.853C172.442 176.853 172.34 181.125 172.652 181.647C172.964 182.168 174.946 182.48 176.403 182.168C177.86 181.856 178.59 181.544 178.59 180.814C178.59 180.083 177.967 174.144 177.967 174.144L172.238 174.563L172.442 176.853Z" fill="white" stroke="#4F5168" stroke-linecap="round" stroke-linejoin="round"/>
<path d="M176.393 182.168C177.855 181.856 178.581 181.544 178.581 180.814C178.581 180.721 178.581 180.541 178.551 180.302C176.62 181.104 174.468 181.203 172.471 180.58C172.47 180.942 172.528 181.302 172.642 181.647C172.983 182.168 174.932 182.48 176.393 182.168Z" fill="#7BC043" stroke="#4F5168" stroke-linecap="round" stroke-linejoin="round"/>
<path d="M149 176.853C149 176.853 146.603 178.003 145.146 178.626C143.69 179.25 139.412 180.292 139.1 180.814C138.789 181.335 138.891 182.689 139.31 183.108C139.729 183.527 154.315 184.355 156.083 184.146C157.852 183.936 158.689 183.625 158.689 182.684V179.25L149 176.853Z" fill="white" stroke="#4F5168" stroke-linecap="round" stroke-linejoin="round"/>
<path d="M158.689 182.689V181.954C157.866 182.434 156.992 182.822 156.083 183.108L138.93 181.88C138.923 182.318 139.056 182.747 139.31 183.103C139.729 183.517 154.315 184.35 156.083 184.141C157.852 183.931 158.689 183.624 158.689 182.689Z" fill="#7BC043" stroke="#4F5168" stroke-linecap="round" stroke-linejoin="round"/>
<path d="M182.307 79.8334L185.226 101.113L183.282 113.151L179.998 113.389L179.511 99.1691L176.715 83.9694L182.307 79.8334Z" fill="white" stroke="#4F5168" stroke-linecap="round" stroke-linejoin="round"/>
<path d="M178.542 110.959L184.5 111.811L183.038 120.931C183.038 120.931 183.647 124.341 183.282 125.315C182.668 126.543 181.746 127.59 180.607 128.355C179.633 128.964 178.659 129.817 178.054 128.599C177.45 127.381 176.349 122.154 176.593 121.428C176.836 120.702 178.054 117.657 178.054 117.657L178.542 110.959Z" fill="#7BC043" stroke="#4F5168" stroke-linecap="round" stroke-linejoin="round"/>
<path d="M180.242 119.957C180.242 119.957 179.876 122.753 180.242 123.367C180.607 123.981 181.216 124.828 181.216 124.828L179.633 127.264" stroke="#4F5168" stroke-linecap="round" stroke-linejoin="round"/>
<path d="M151.708 114.963L152.853 151.325L151.499 174.666L149.209 175.606L149 176.853C149 176.853 153.584 179.25 154.938 179.562C156.293 179.873 158.378 180.19 158.378 180.19C158.378 180.19 160.565 166.851 160.775 165.706C160.984 164.562 162.441 147.886 162.441 147.886L164.735 130.801L166.504 130.489L170.255 152.991L172.442 176.863C172.442 176.863 172.754 177.491 174.737 177.803C175.855 178.004 177.007 177.896 178.069 177.491L178.176 168.839L178.8 145.294L177.134 114.033L151.708 114.963Z" fill="#4F5168" stroke="#4F5168" stroke-linecap="round" stroke-linejoin="round"/>
<path d="M174.216 102.472L177.139 114.037C177.139 114.037 172.754 115.397 163.698 116.02C154.641 116.644 151.713 114.978 151.713 114.978L153.496 99.6465C153.496 99.6465 161.832 102.253 167.351 101.936C172.871 101.62 173.685 101.624 173.685 101.624L174.216 102.472Z" fill="white" stroke="#4F5168" stroke-linecap="round" stroke-linejoin="round"/>
<path d="M150.929 96.6553C150.929 96.6553 149.419 116.839 149.419 120.38C149.419 123.922 149.73 133.612 149.73 133.612L152.23 134.966C152.23 134.966 152.751 117.672 153.374 112.985C153.998 108.299 155.567 101.624 155.567 101.624C155.567 101.624 166.09 102.774 167.234 102.774C168.379 102.774 173.382 102.355 173.382 102.355L174.216 102.457L174.147 99.2324C174.147 99.2324 166.192 99.6465 160.565 98.5017C157.094 97.7795 153.708 96.697 150.461 95.2717L150.929 96.6553Z" fill="#7BC043" stroke="#4F5168" stroke-linecap="round" stroke-linejoin="round"/>
<path d="M166.09 102.355C166.09 102.355 161.919 100.48 161.608 101.001C161.296 101.522 160.565 103.924 161.086 104.128C161.608 104.333 165.257 103.607 165.257 103.607C164.995 105.924 164.925 108.259 165.047 110.588C165.257 114.339 165.671 119.757 165.671 119.757L167.858 119.236C167.858 119.236 167.132 110.169 166.923 109.127C166.713 108.084 167.132 104.255 167.132 104.255C167.132 104.255 168.067 107.695 168.379 108.425C168.691 109.156 169.212 117.072 169.212 117.072L171.4 116.761C171.4 116.761 170.883 110.301 170.153 108.63C169.422 106.959 168.277 104.567 168.277 104.567C168.277 104.567 169.422 105.19 169.738 105.298C170.266 105.666 170.755 106.085 171.2 106.55C171.2 106.55 171.721 104.255 171.512 103.422C171.302 102.589 171.093 102.691 169.846 102.482C168.598 102.348 167.343 102.306 166.09 102.355Z" fill="#7BC043" stroke="#4F5168" stroke-linecap="round" stroke-linejoin="round"/>
<path d="M160.019 65.7006L148.595 67.5421L142.209 71.3518L145.278 79.9503L149.701 79.3316C149.701 79.3316 149.95 95.4081 150.929 96.6553C151.908 97.9024 157.194 99.8462 160.882 100.216C164.57 100.587 171.2 101.074 172.306 100.952C173.412 100.83 173.767 100.095 174.147 99.2324C174.527 98.3701 176.851 89.036 176.851 89.036L178.571 84.0035L184.344 81.4215C184.344 81.4215 181.392 73.6853 180.291 72.5795C179.19 71.4736 170.586 66.8065 170.216 66.4217C169.846 66.0368 168.618 65.8078 168.618 65.8078C168.618 65.8078 162.353 64.5948 160.019 65.7006Z" fill="white" stroke="#4F5168" stroke-linecap="round" stroke-linejoin="round"/>
<path d="M158.3 70.6113C158.3 70.6113 159.761 74.0507 161.617 77.9822" stroke="#4F5168" stroke-linecap="round" stroke-linejoin="round"/>
<path d="M161.004 74.0507C161.004 74.0507 163.829 79.4583 165.057 80.8077" stroke="#4F5168" stroke-linecap="round" stroke-linejoin="round"/>
<path d="M178.571 84.0036L179.798 78.596" stroke="#4F5168" stroke-linecap="round" stroke-linejoin="round"/>
<path d="M149.701 79.3316L148.966 75.0348" stroke="#4F5168" stroke-linecap="round" stroke-linejoin="round"/>
<path d="M296.465 194.371C295.618 193.309 295.004 193.202 295.004 193.202L291.852 186.947L291.511 186.27L288.773 180.838C288.773 180.838 289.056 180.268 288.71 178.953C288.364 177.637 286.897 176.643 286.897 176.643L283.263 178.081L279.946 180.146C279.946 180.146 279.872 181.919 280.725 182.981C281.578 184.044 282.187 184.151 282.187 184.151L284.924 189.583L285.265 190.26L288.442 196.496C288.442 196.496 288.159 197.066 288.505 198.381C288.525 198.462 288.549 198.541 288.578 198.62C289.66 201.504 294.049 200.49 296.071 198.318C297.074 197.241 297.493 195.882 296.641 194.561C296.568 194.508 296.519 194.44 296.465 194.371Z" fill="#4F5168" stroke="#4F5168" stroke-linecap="round" stroke-linejoin="round"/>
<path d="M286.086 175.356L279.326 178.764L279.999 180.099L286.759 176.692L286.086 175.356Z" fill="white" stroke="#4F5168" stroke-linecap="round" stroke-linejoin="round"/>
<path d="M310.813 173.683L299.348 181.795L305.822 190.946L317.288 182.834L310.813 173.683Z" fill="#7BC043" stroke="#4F5168" stroke-linecap="round" stroke-linejoin="round"/>
<path d="M309.755 173.53L310.817 173.706L317.287 182.855L316.225 182.679L309.755 173.53Z" fill="#7BC043" stroke="#4F5168" stroke-linecap="round" stroke-linejoin="round"/>
<path d="M309.75 173.501L298.284 181.613L304.758 190.764L316.224 182.652L309.75 173.501Z" fill="white" stroke="#4F5168" stroke-linecap="round" stroke-linejoin="round"/>
<path d="M301.371 171.397C301.371 171.397 302.833 171.533 303.032 171.708C303.232 171.884 303.729 172.853 304.143 173.301C304.557 173.75 305.22 173.993 305.22 173.857C305.22 173.72 304.075 171.811 303.729 170.934C303.383 170.057 302.998 169.862 302.828 169.862C302.657 169.862 301.371 171.397 301.371 171.397Z" fill="white" stroke="#4F5168" stroke-linecap="round" stroke-linejoin="round"/>
<path d="M304.474 168.108C304.474 168.108 299.364 168.313 299.116 168.376C298.867 168.439 296.68 169.726 296.68 169.726L297.216 171.742H298.361L298.253 172.088H301.513L303.067 169.994L304.616 169.857L304.474 168.108Z" fill="white" stroke="#4F5168" stroke-linecap="round" stroke-linejoin="round"/>
<path d="M306.121 167.928H304.387V170.11H306.121V167.928Z" fill="#4F5168" stroke="#4F5168" stroke-linecap="round" stroke-linejoin="round"/>
<path d="M301.508 172.088H298.248V174.617H301.508V172.088Z" fill="white" stroke="#4F5168" stroke-linecap="round" stroke-linejoin="round"/>
<path d="M302.604 179.888L302.506 176.112L301.469 174.622L299.91 174.656L298.351 174.622L297.313 176.112L297.221 179.888L295.613 187.342H299.91H304.207L302.604 179.888Z" fill="#4F5168" stroke="#4F5168" stroke-linecap="round" stroke-linejoin="round"/>
<path d="M302.599 179.839L302.506 176.112L301.469 174.622L299.91 174.656L298.351 174.622L297.313 176.112L297.221 179.839H302.599Z" fill="white" stroke="#4F5168" stroke-linecap="round" stroke-linejoin="round"/>
<path d="M294.989 169.701H296.641C296.915 169.701 297.177 169.81 297.371 170.004C297.565 170.197 297.674 170.46 297.674 170.734V172.278H293.957V170.734C293.957 170.46 294.065 170.197 294.259 170.004C294.453 169.81 294.715 169.701 294.989 169.701Z" fill="#4F5168" stroke="#4F5168" stroke-linecap="round" stroke-linejoin="round"/>
<path d="M300.036 174.641C299.72 173.448 297.493 172.288 297.493 172.288H293.723C293.723 172.288 291.496 173.448 291.185 174.641C290.873 175.835 291.185 177.93 291.185 177.93H300.036C300.036 177.93 300.348 175.84 300.036 174.641Z" fill="white" stroke="#4F5168" stroke-linecap="round" stroke-linejoin="round"/>
<path d="M291.852 181.145H299.354C299.584 181.145 299.805 181.236 299.968 181.399C300.13 181.561 300.221 181.782 300.221 182.012V189.963H290.995V182.007C290.996 181.78 291.086 181.562 291.247 181.401C291.407 181.239 291.625 181.147 291.852 181.145Z" fill="white" stroke="#4F5168" stroke-linecap="round" stroke-linejoin="round"/>
<path d="M299.988 177.93H291.185C291.601 178.335 291.911 178.837 292.086 179.391C292.3 180.214 291.316 181.262 291.316 181.262H299.851C299.851 181.262 298.877 180.214 299.086 179.391C299.261 178.837 299.571 178.335 299.988 177.93Z" fill="white" stroke="#4F5168" stroke-linecap="round" stroke-linejoin="round"/>
<path d="M313.58 192.199H316.6C316.6 192.199 317.774 200.101 318.062 203.516C318.349 206.931 315.723 211.417 313.385 212.085L311.042 212.772" stroke="#4F5168" stroke-linecap="round" stroke-linejoin="round"/>
<path d="M314.992 190.761L312.95 190.569L312.621 194.066L314.663 194.258L314.992 190.761Z" fill="#7BC043" stroke="#4F5168" stroke-linecap="round" stroke-linejoin="round"/>
<path d="M308.148 221.828H287.755C287.42 221.829 287.097 221.709 286.844 221.489C286.592 221.27 286.427 220.966 286.381 220.635L281.66 186.601H314.262L309.541 220.635C309.495 220.969 309.327 221.276 309.071 221.496C308.814 221.715 308.486 221.834 308.148 221.828Z" fill="#7BC043" stroke="#4F5168" stroke-linecap="round" stroke-linejoin="round"/>
<path d="M315.772 186.601H280.131V188.145H315.772V186.601Z" fill="#7BC043" stroke="#4F5168" stroke-linecap="round" stroke-linejoin="round"/>
<path d="M302.726 191.916H307.368" stroke="#4F5168" stroke-linecap="round" stroke-linejoin="round"/>
<path d="M283.361 191.916H300.908" stroke="#4F5168" stroke-linecap="round" stroke-linejoin="round"/>
<path d="M91.2557 165.731C91.1901 165.023 90.8624 164.366 90.337 163.887C89.8116 163.408 89.1263 163.143 88.4155 163.144H87.5679V156.402C87.5679 156.161 87.5204 155.923 87.4283 155.701C87.3362 155.479 87.2012 155.278 87.0311 155.108C86.8609 154.938 86.6589 154.804 86.4367 154.712C86.2145 154.621 85.9764 154.574 85.7361 154.575H64.101C63.6165 154.575 63.1518 154.767 62.8092 155.11C62.4666 155.452 62.2741 155.917 62.2741 156.402V163.144H61.4216C60.7114 163.143 60.0266 163.409 59.502 163.887C58.9773 164.366 58.6507 165.024 58.5862 165.731L53.9922 219.475L62.9805 219.66L63.1413 218.17C63.2178 217.446 63.5581 216.776 64.0973 216.287C64.6364 215.798 65.3366 215.525 66.0643 215.519H83.7338C84.4612 215.526 85.1608 215.8 85.6997 216.288C86.2386 216.777 86.5792 217.446 86.6569 218.17L86.8176 219.66L95.801 219.475L91.2557 165.731ZM81.3954 162.394H68.4514V158.389H81.3954V162.394Z" fill="white" stroke="#4F5168" stroke-linecap="round" stroke-linejoin="round"/>
<path d="M87.0612 197.114H63.8136C63.4013 197.114 62.9965 197.005 62.6401 196.797C62.2837 196.59 61.9884 196.293 61.7841 195.934C61.5799 195.576 61.4739 195.171 61.477 194.758C61.48 194.346 61.592 193.942 61.8015 193.587L73.4254 173.935C73.6323 173.585 73.9266 173.296 74.2794 173.095C74.6322 172.894 75.0313 172.788 75.4374 172.788C75.8434 172.788 76.2425 172.894 76.5953 173.095C76.9481 173.296 77.2424 173.585 77.4494 173.935L89.0732 193.572C89.2828 193.927 89.3947 194.332 89.3978 194.744C89.4009 195.156 89.2949 195.562 89.0906 195.92C88.8864 196.278 88.5911 196.576 88.2347 196.783C87.8783 196.99 87.4734 197.099 87.0612 197.1V197.114ZM75.1012 174.929L63.4774 194.581C63.4417 194.64 63.4228 194.707 63.4228 194.776C63.4228 194.845 63.4417 194.912 63.4774 194.971C63.5094 195.031 63.558 195.082 63.6174 195.116C63.6769 195.151 63.7449 195.168 63.8136 195.166H87.0612C87.1296 195.166 87.1969 195.149 87.2561 195.114C87.3152 195.08 87.364 195.03 87.3974 194.971C87.4341 194.912 87.4537 194.845 87.4537 194.776C87.4537 194.707 87.4341 194.639 87.3974 194.581L75.7735 174.929C75.7408 174.87 75.6926 174.821 75.6343 174.788C75.5759 174.754 75.5095 174.737 75.4422 174.739C75.3744 174.737 75.3074 174.754 75.2482 174.788C75.1891 174.821 75.14 174.87 75.1061 174.929H75.1012Z" fill="#4F5168"/>
<path d="M76.4653 187.975C76.8404 188.043 77.1668 188.111 77.4981 188.16C77.6252 188.17 77.746 188.22 77.8425 188.303C77.939 188.386 78.0061 188.498 78.034 188.623C78.2435 189.471 78.4481 190.323 78.6332 191.176C78.6607 191.346 78.6213 191.521 78.5233 191.663C78.4254 191.806 78.2763 191.905 78.1071 191.94C77.934 191.982 77.7516 191.954 77.5987 191.863C77.4458 191.772 77.3345 191.625 77.2886 191.453C77.1425 190.864 77.0012 190.274 76.8745 189.68C76.8709 189.6 76.8372 189.525 76.7803 189.469C76.7234 189.413 76.6474 189.38 76.5676 189.378C76.0561 189.305 75.5446 189.203 75.0379 189.11C74.8273 189.075 74.6319 188.978 74.4766 188.831C74.3214 188.684 74.2132 188.495 74.1659 188.287C73.9807 187.658 73.8054 187.03 73.6251 186.406C73.6251 186.333 73.5813 186.265 73.5472 186.163C73.4936 186.231 73.4497 186.275 73.4156 186.323C73.2256 186.606 73.0308 186.889 72.8456 187.176C72.8015 187.265 72.7311 187.338 72.644 187.386C72.557 187.434 72.4573 187.454 72.3585 187.444C71.7934 187.444 71.2282 187.444 70.6631 187.444C70.5376 187.447 70.4124 187.456 70.288 187.473C70.2126 187.483 70.1359 187.477 70.0633 187.454C69.9908 187.431 69.9242 187.392 69.8683 187.34C69.8125 187.289 69.7687 187.225 69.7402 187.155C69.7117 187.084 69.6991 187.008 69.7034 186.932C69.704 186.875 69.7162 186.818 69.7393 186.766C69.7624 186.713 69.7959 186.666 69.8378 186.627C69.8797 186.588 69.9291 186.558 69.9831 186.538C70.037 186.519 70.0943 186.51 70.1516 186.513C70.7313 186.513 71.3111 186.513 71.8859 186.513C71.9653 186.524 72.046 186.509 72.1167 186.472C72.1875 186.434 72.2447 186.376 72.2805 186.304C72.6508 185.69 73.0324 185.081 73.4254 184.477C73.5264 184.313 73.6589 184.171 73.8151 184.058C74.9258 183.254 76.0463 182.465 77.1668 181.671L77.2984 181.588C77.4144 181.519 77.5528 181.499 77.6839 181.53C77.815 181.562 77.9284 181.644 77.9999 181.759C78.0359 181.813 78.0607 181.874 78.0728 181.937C78.0849 182.001 78.0842 182.067 78.0706 182.131C78.0569 182.194 78.0307 182.254 77.9935 182.308C77.9563 182.361 77.9087 182.406 77.8537 182.441C77.2691 182.86 76.6813 183.275 76.0902 183.688C75.9099 183.819 75.7248 183.941 75.5494 184.078C75.523 184.099 75.5014 184.125 75.4863 184.156C75.4712 184.186 75.4628 184.219 75.4617 184.253C75.6663 185.023 75.8758 185.797 76.095 186.601L76.3045 186.455C76.7673 186.119 77.2302 185.783 77.6881 185.442C77.7938 185.349 77.9221 185.287 78.0599 185.26C78.1977 185.234 78.34 185.244 78.4724 185.291L81.1421 186.129C81.23 186.148 81.313 186.186 81.3858 186.239C81.4586 186.292 81.5198 186.359 81.5654 186.437C81.6111 186.515 81.6403 186.601 81.6513 186.69C81.6623 186.78 81.6548 186.87 81.6293 186.957C81.6016 187.044 81.5571 187.124 81.4983 187.194C81.4394 187.263 81.3674 187.32 81.2864 187.362C81.2053 187.404 81.1169 187.429 81.0261 187.436C80.9353 187.444 80.8439 187.433 80.7572 187.405C80.0119 187.176 79.2665 186.947 78.5309 186.708C78.4574 186.679 78.3772 186.67 78.299 186.683C78.2209 186.696 78.1477 186.73 78.0876 186.781C77.6248 187.137 77.1522 187.468 76.6894 187.814C76.6114 187.853 76.5579 187.902 76.4653 187.975Z" fill="#4F5168"/>
<path d="M82.1116 192.423V193.636H69.2162V192.423H82.1116Z" fill="#4F5168"/>
<path d="M72.6264 184.423C72.4817 184.425 72.3381 184.397 72.204 184.343C72.0698 184.288 71.9479 184.208 71.845 184.106C71.7422 184.004 71.6606 183.883 71.6049 183.749C71.5492 183.615 71.5205 183.472 71.5205 183.327C71.5186 183.108 71.5818 182.893 71.7022 182.71C71.8225 182.527 71.9945 182.384 72.1964 182.299C72.3983 182.214 72.621 182.19 72.8361 182.232C73.0513 182.273 73.2492 182.378 73.4049 182.532C73.5605 182.686 73.6668 182.883 73.7103 183.098C73.7537 183.313 73.7324 183.536 73.649 183.739C73.5656 183.941 73.4239 184.114 73.2418 184.236C73.0597 184.358 72.8456 184.423 72.6264 184.423Z" fill="#4F5168"/>
<path d="M66.1422 171.109C65.8456 171.123 65.5509 171.055 65.2897 170.914C65.0855 170.786 64.9309 170.592 64.8512 170.364C64.7593 170.096 64.7148 169.814 64.7197 169.531V167.821C64.7136 167.534 64.7581 167.249 64.8512 166.978C64.9298 166.751 65.0847 166.558 65.2897 166.432C65.55 166.289 65.8454 166.221 66.1422 166.238C66.4273 166.223 66.7112 166.283 66.9655 166.413C67.1576 166.52 67.3046 166.693 67.3796 166.9C67.4672 167.127 67.5102 167.368 67.5063 167.611V168.021H66.4832V167.533C66.4884 167.444 66.4884 167.355 66.4832 167.265C66.4773 167.187 66.4467 167.111 66.3955 167.051C66.3651 167.019 66.3278 166.995 66.2864 166.979C66.245 166.964 66.2007 166.959 66.1568 166.963C66.1123 166.96 66.0676 166.966 66.0257 166.981C65.9837 166.996 65.9454 167.02 65.9132 167.051C65.8598 167.113 65.8259 167.189 65.8158 167.27C65.8082 167.363 65.8082 167.456 65.8158 167.548V169.779C65.8136 169.876 65.8218 169.972 65.8402 170.067C65.8546 170.145 65.8919 170.218 65.9473 170.276C65.9779 170.304 66.0141 170.326 66.0535 170.339C66.093 170.353 66.1348 170.358 66.1763 170.354C66.219 170.359 66.2622 170.354 66.3026 170.339C66.3431 170.325 66.3798 170.302 66.4102 170.271C66.4605 170.209 66.4911 170.132 66.4978 170.052C66.5029 169.961 66.5029 169.87 66.4978 169.779V169.292H67.5209V169.701C67.523 169.947 67.4818 170.191 67.3991 170.422C67.3198 170.627 67.1739 170.798 66.985 170.909C66.7282 171.053 66.4363 171.122 66.1422 171.109Z" fill="#4F5168"/>
<path d="M67.8473 171.036L68.7291 166.291H69.9226L70.8044 171.026H69.8301L69.6742 170.028H68.9775L68.8119 171.026L67.8473 171.036ZM69.0945 169.414H69.5816L69.3332 167.567L69.0945 169.414Z" fill="#4F5168"/>
<path d="M72.6264 171.109C72.3315 171.123 72.0379 171.061 71.7739 170.929C71.5734 170.812 71.4214 170.627 71.3452 170.408C71.256 170.138 71.2147 169.854 71.2234 169.57V166.291H72.2562V169.701C72.2569 169.799 72.2651 169.897 72.2805 169.994C72.2924 170.081 72.3278 170.163 72.3828 170.232C72.4137 170.265 72.4517 170.291 72.4939 170.307C72.5361 170.323 72.5815 170.329 72.6264 170.325C72.6714 170.33 72.717 170.324 72.7593 170.308C72.8016 170.292 72.8396 170.266 72.87 170.232C72.9233 170.163 72.957 170.08 72.9674 169.994C72.9748 169.896 72.9748 169.799 72.9674 169.701V166.291H74.01V169.56C74.017 169.845 73.9742 170.128 73.8833 170.398C73.8071 170.617 73.655 170.802 73.4546 170.919C73.1989 171.051 72.914 171.116 72.6264 171.109Z" fill="#4F5168"/>
<path d="M75.1158 171.036V167.08H74.4046V166.291H76.8745V167.071H76.1681V171.026L75.1158 171.036Z" fill="#4F5168"/>
<path d="M77.2984 171.036V166.291H78.3409V171.026L77.2984 171.036Z" fill="#4F5168"/>
<path d="M80.4211 171.109C80.1281 171.124 79.8367 171.058 79.5783 170.919C79.3728 170.798 79.216 170.608 79.135 170.383C79.0396 170.114 78.9934 169.831 78.9986 169.545V167.787C78.9929 167.503 79.0391 167.221 79.135 166.954C79.2163 166.73 79.3731 166.542 79.5783 166.423C79.838 166.288 80.1288 166.224 80.4211 166.238C80.7166 166.224 81.0106 166.287 81.2737 166.423C81.4789 166.542 81.6357 166.73 81.717 166.954C81.8152 167.22 81.8615 167.503 81.8534 167.787V169.545C81.861 169.831 81.8147 170.115 81.717 170.383C81.636 170.608 81.4792 170.798 81.2737 170.919C81.0119 171.059 80.7173 171.124 80.4211 171.109ZM80.4211 170.364C80.4641 170.368 80.5076 170.363 80.5487 170.35C80.5898 170.337 80.6276 170.315 80.6598 170.286C80.7128 170.225 80.7482 170.151 80.7621 170.072C80.7697 169.984 80.7697 169.896 80.7621 169.808V167.529C80.7697 167.441 80.7697 167.353 80.7621 167.265C80.7483 167.187 80.7128 167.115 80.6598 167.056C80.6278 167.027 80.5902 167.004 80.5491 166.99C80.508 166.975 80.4645 166.97 80.4211 166.973C80.3793 166.971 80.3374 166.977 80.2981 166.991C80.2587 167.005 80.2226 167.027 80.1921 167.056C80.1407 167.115 80.1069 167.188 80.0947 167.265C80.0789 167.352 80.0708 167.44 80.0703 167.529V169.808C80.0627 169.896 80.0627 169.984 80.0703 170.072C80.0808 170.15 80.1128 170.224 80.1629 170.286C80.1974 170.317 80.2385 170.341 80.2831 170.354C80.3278 170.368 80.375 170.371 80.4211 170.364Z" fill="#4F5168"/>
<path d="M82.477 171.036V166.291H83.2126L84.1869 168.571V166.291H85.0541V171.026H84.3477L83.3733 168.591V171.026L82.477 171.036Z" fill="#4F5168"/>
<path d="M60.3888 205.562L59.7165 199.979H60.759L61.0903 203.233L61.5141 199.989H62.3326L62.7759 203.214L63.112 199.979H64.1448L63.4774 205.562H62.3959L61.9087 202.191L61.4605 205.562H60.3888Z" fill="#4F5168"/>
<path d="M64.7148 205.562V199.979H67.2237V200.822H65.9522V202.205H66.9266V203.063H65.9522V204.729H67.2383V205.562H64.7148Z" fill="#4F5168"/>
<path d="M68.3004 205.562V200.88H67.4576V199.959H70.3806V200.88H69.5475V205.542L68.3004 205.562Z" fill="#4F5168"/>
<path d="M72.6264 205.562V199.979H75.0623V200.817H73.8882V202.22H74.9112V203.082H73.8882V205.562H72.6264Z" fill="#4F5168"/>
<path d="M75.5835 205.562V199.979H76.8161V204.729H78.0973V205.562H75.5835Z" fill="#4F5168"/>
<path d="M80.1483 205.644C79.81 205.657 79.4742 205.582 79.174 205.425C78.9322 205.279 78.7468 205.056 78.6478 204.792C78.5393 204.479 78.4865 204.149 78.4919 203.818V201.742C78.4854 201.411 78.5382 201.081 78.6478 200.768C78.7467 200.505 78.9323 200.283 79.174 200.139C79.4751 199.986 79.8105 199.912 80.1483 199.925C80.4941 199.909 80.8382 199.983 81.147 200.139C81.3913 200.281 81.5789 200.503 81.678 200.768C81.7876 201.081 81.8404 201.411 81.8339 201.742V203.803C81.8393 204.134 81.7865 204.464 81.678 204.777C81.5788 205.043 81.3913 205.267 81.147 205.411C80.8409 205.576 80.4961 205.657 80.1483 205.644ZM80.1483 204.772C80.1995 204.776 80.251 204.769 80.2996 204.753C80.3481 204.736 80.3928 204.71 80.4309 204.675C80.4928 204.605 80.5334 204.519 80.5478 204.427C80.5633 204.323 80.5715 204.219 80.5721 204.115V201.426C80.5717 201.321 80.5635 201.217 80.5478 201.114C80.5325 201.023 80.492 200.939 80.4309 200.87C80.3928 200.836 80.3481 200.809 80.2996 200.793C80.251 200.776 80.1995 200.769 80.1483 200.773C80.0986 200.77 80.0487 200.777 80.0018 200.793C79.9549 200.81 79.9119 200.836 79.8755 200.87C79.8143 200.939 79.7738 201.023 79.7586 201.114C79.7509 201.218 79.7509 201.322 79.7586 201.426V204.115C79.7487 204.218 79.7487 204.323 79.7586 204.427C79.7678 204.518 79.8053 204.605 79.8657 204.675C79.9029 204.711 79.9473 204.739 79.996 204.757C80.0447 204.774 80.0966 204.781 80.1483 204.777V204.772Z" fill="#4F5168"/>
<path d="M84.182 205.645C83.8436 205.659 83.5075 205.583 83.2077 205.425C82.9659 205.28 82.7805 205.056 82.6816 204.792C82.5731 204.479 82.5203 204.149 82.5257 203.818V201.742C82.5192 201.411 82.572 201.081 82.6816 200.768C82.7805 200.505 82.966 200.283 83.2077 200.14C83.5084 199.985 83.8442 199.911 84.182 199.925C84.5295 199.908 84.8753 199.982 85.1856 200.14C85.4297 200.28 85.616 200.503 85.7118 200.768C85.8255 201.08 85.88 201.41 85.8725 201.742V203.803C85.8788 204.135 85.8243 204.465 85.7118 204.777C85.6163 205.044 85.43 205.268 85.1856 205.411C84.8781 205.577 84.5315 205.658 84.182 205.645ZM84.182 204.772C84.2334 204.777 84.285 204.771 84.3337 204.754C84.3824 204.737 84.427 204.71 84.4646 204.675C84.5284 204.606 84.5707 204.519 84.5864 204.427C84.5938 204.323 84.5938 204.219 84.5864 204.115V201.426C84.594 201.322 84.594 201.218 84.5864 201.114C84.5698 201.023 84.5275 200.938 84.4646 200.87C84.427 200.835 84.3824 200.808 84.3337 200.791C84.285 200.775 84.2334 200.768 84.182 200.773C84.1331 200.77 84.0841 200.777 84.038 200.794C83.992 200.811 83.9498 200.837 83.9141 200.87C83.8529 200.939 83.8124 201.023 83.7972 201.114C83.779 201.217 83.7709 201.321 83.7728 201.426V204.115C83.7711 204.219 83.7792 204.324 83.7972 204.427C83.8065 204.518 83.8439 204.605 83.9044 204.675C83.9408 204.711 83.9844 204.738 84.0322 204.756C84.0801 204.774 84.1312 204.781 84.182 204.777V204.772Z" fill="#4F5168"/>
<path d="M86.6228 205.562V199.979H88.1622C88.4914 199.974 88.8195 200.017 89.1365 200.105C89.3944 200.177 89.6208 200.333 89.7796 200.549C89.9471 200.82 90.027 201.136 90.0086 201.455C90.0098 201.661 89.9919 201.866 89.955 202.069C89.922 202.236 89.8521 202.394 89.7504 202.532C89.6387 202.675 89.493 202.789 89.3265 202.863L90.0914 205.562H88.815L88.2158 203.063H87.8602V205.562H86.6228ZM87.8553 202.351H88.2158C88.3582 202.36 88.5002 202.328 88.625 202.259C88.7211 202.196 88.7919 202.101 88.8248 201.991C88.8667 201.853 88.8864 201.71 88.8832 201.567C88.8939 201.371 88.8482 201.177 88.7517 201.007C88.6952 200.934 88.6204 200.877 88.5349 200.841C88.4494 200.806 88.3561 200.794 88.2645 200.807H87.865L87.8553 202.351Z" fill="#4F5168"/>
</svg>
