<svg width="17" height="18" viewBox="0 0 17 18" fill="none" xmlns="http://www.w3.org/2000/svg">
<path d="M15.4001 4.18369C12.7361 3.91969 10.056 3.78369 7.38403 3.78369C5.80003 3.78369 4.21602 3.86369 2.63201 4.02369L1 4.18369" stroke="#F20505" stroke-width="1.5" stroke-linecap="round" stroke-linejoin="round"/>
<path d="M5.40039 3.37601L5.57639 2.32801C5.70439 1.568 5.80039 1 7.1524 1H9.24841C10.6004 1 10.7044 1.6 10.8244 2.33601L11.0004 3.37601" stroke="#F20505" stroke-width="1.5" stroke-linecap="round" stroke-linejoin="round"/>
<path d="M13.6803 6.71216L13.1603 14.7682C13.0723 16.0242 13.0003 17.0002 10.7683 17.0002H5.63223C3.40022 17.0002 3.32822 16.0242 3.24022 14.7682L2.72021 6.71216" stroke="#F20505" stroke-width="1.5" stroke-linecap="round" stroke-linejoin="round"/>
<path d="M6.86426 12.5999H9.52827" stroke="#F20505" stroke-width="1.5" stroke-linecap="round" stroke-linejoin="round"/>
<path d="M6.2002 9.40039H10.2002" stroke="#F20505" stroke-width="1.5" stroke-linecap="round" stroke-linejoin="round"/>
</svg>
