<svg width="476" height="305" viewBox="0 0 476 305" fill="none" xmlns="http://www.w3.org/2000/svg">
<path d="M200.503 47.517H155.01V133.285H200.503V47.517Z" fill="#E6E6E6"/>
<path d="M198.268 47.517H144.828V133.285H198.268V47.517Z" fill="#F0F0F0"/>
<path d="M190.129 55.136H152.955V125.671H190.129V55.136Z" fill="white"/>
<path d="M178.925 79.009H166.924V97.41H178.925V79.009Z" fill="#E0E0E0"/>
<path d="M56.117 167.097C57.949 164.838 61.489 163.334 65.376 162.61C65.076 163.724 65.302 164.745 65.958 164.999C66.688 165.278 67.672 164.491 68.158 163.241C68.2852 162.909 68.3663 162.561 68.399 162.207C72.317 161.891 76.235 162.337 78.853 163.593C78.853 163.593 76.291 165.902 73.394 171.967H73.126C71.251 171.986 69.734 172.895 69.747 173.991C69.753 174.791 70.576 175.476 71.747 175.78C71.592 176.17 71.447 176.566 71.289 176.975C68.529 184.452 61.157 179.048 61.219 173.93C61.219 173.93 52.019 172.16 56.119 167.103L56.117 167.097Z" fill="#E6E6E6"/>
<path d="M47.037 157.441C44.778 155.002 40.631 153.554 36.144 153.016C36.577 154.26 36.392 155.448 35.661 155.783C34.844 156.161 33.668 155.331 33.024 153.945C32.8546 153.575 32.7359 153.183 32.671 152.781C28.177 152.713 23.746 153.518 20.855 155.145C20.855 155.145 23.95 157.584 27.707 164.287C27.807 164.275 27.907 164.268 28.016 164.262C30.158 164.144 31.953 165.062 32.016 166.317C32.066 167.233 31.18 168.075 29.868 168.502C30.068 168.935 30.277 169.375 30.475 169.833C34.182 178.152 42.185 171.433 41.727 165.606C41.733 165.605 52.094 162.9 47.037 157.441Z" fill="#E6E6E6"/>
<path d="M41.554 155.616C42.513 150.937 46.53 146.059 51.654 142.055C52.054 143.906 53.164 145.23 54.309 145.1C55.59 144.951 56.426 143.064 56.178 140.873C56.1117 140.293 55.966 139.724 55.745 139.183C61.216 135.748 67.27 133.433 72.03 133.283C72.03 133.283 70.049 138.583 70.421 149.629C70.291 149.691 70.155 149.753 70.021 149.829C67.298 151.277 65.781 153.747 66.629 155.338C67.248 156.502 68.962 156.873 70.9 156.427C70.974 157.108 71.049 157.801 71.141 158.513C72.781 171.505 57.941 169.213 54.157 161.707C54.157 161.707 39.401 166.107 41.549 155.623L41.554 155.616Z" fill="#EBEBEB"/>
<path d="M52.02 185.3C50.8177 178.372 51.08 171.269 52.7899 164.449C54.4998 157.628 57.6195 151.241 61.948 145.7L62.313 145.985C58.0265 151.475 54.9369 157.802 53.243 164.558C51.5492 171.315 51.2886 178.351 52.478 185.214L52.02 185.294V185.3Z" fill="#E0E0E0"/>
<path d="M51.574 180.565C51.5507 180.566 51.5276 180.562 51.506 180.553C51.4713 180.541 51.4398 180.522 51.4139 180.496C51.3881 180.47 51.3686 180.439 51.357 180.404C49.608 175.261 43.676 164.182 33.808 159.057C33.7529 159.028 33.7115 158.979 33.6928 158.92C33.674 158.86 33.6795 158.796 33.708 158.741C33.7377 158.687 33.7871 158.646 33.8459 158.628C33.9048 158.609 33.9685 158.614 34.024 158.641C43.844 163.737 49.808 174.629 51.698 179.952C53.524 178.634 64.714 170.552 70.304 166.973C70.3556 166.943 70.4169 166.934 70.4751 166.948C70.5332 166.961 70.5839 166.997 70.6165 167.047C70.6491 167.097 70.6612 167.158 70.6503 167.217C70.6394 167.276 70.6064 167.328 70.558 167.363C64.505 171.244 51.847 180.417 51.717 180.509C51.678 180.539 51.6299 180.554 51.581 180.552L51.574 180.565Z" fill="#E0E0E0"/>
<path d="M67.494 189.656H36.262L36.274 183.931H67.463L67.494 189.656Z" fill="#E0E0E0"/>
<path d="M38.527 187.782L43.404 208.082H61.372L65.727 187.782H38.527Z" fill="#E0E0E0"/>
<path d="M40.786 182.911H38.007C37.9856 182.913 37.9642 182.91 37.944 182.903C37.9237 182.896 37.9052 182.885 37.8894 182.87C37.8737 182.856 37.8611 182.838 37.8526 182.819C37.844 182.799 37.8395 182.778 37.8395 182.757C37.8395 182.735 37.844 182.714 37.8526 182.694C37.8611 182.675 37.8737 182.657 37.8894 182.643C37.9052 182.628 37.9237 182.617 37.944 182.61C37.9642 182.603 37.9856 182.6 38.007 182.602H40.786C40.8073 182.6 40.8288 182.603 40.849 182.61C40.8692 182.617 40.8878 182.628 40.9035 182.643C40.9193 182.657 40.9318 182.675 40.9404 182.694C40.949 182.714 40.9534 182.735 40.9534 182.757C40.9534 182.778 40.949 182.799 40.9404 182.819C40.9318 182.838 40.9193 182.856 40.9035 182.87C40.8878 182.885 40.8692 182.896 40.849 182.903C40.8288 182.91 40.8073 182.913 40.786 182.911Z" fill="#E0E0E0"/>
<path d="M49.661 182.911H42.061C42.0397 182.913 42.0182 182.91 41.998 182.903C41.9777 182.896 41.9592 182.885 41.9434 182.87C41.9277 182.856 41.9152 182.838 41.9066 182.819C41.898 182.799 41.8936 182.778 41.8936 182.757C41.8936 182.735 41.898 182.714 41.9066 182.694C41.9152 182.675 41.9277 182.657 41.9434 182.643C41.9592 182.628 41.9777 182.617 41.998 182.61C42.0182 182.603 42.0397 182.6 42.061 182.602H49.661C49.6823 182.6 49.7038 182.603 49.724 182.61C49.7442 182.617 49.7628 182.628 49.7785 182.643C49.7943 182.657 49.8068 182.675 49.8154 182.694C49.824 182.714 49.8284 182.735 49.8284 182.757C49.8284 182.778 49.824 182.799 49.8154 182.819C49.8068 182.838 49.7943 182.856 49.7785 182.87C49.7628 182.885 49.7442 182.896 49.724 182.903C49.7038 182.91 49.6823 182.913 49.661 182.911Z" fill="#E0E0E0"/>
<path d="M270.112 213.083C271.765 211.047 274.965 209.683 278.468 209.029C278.196 210.029 278.4 210.96 278.994 211.183C279.656 211.437 280.541 210.725 280.975 209.598C281.091 209.298 281.164 208.983 281.192 208.663C284.393 208.296 287.636 208.725 290.631 209.913C290.631 209.913 288.322 211.999 285.704 217.477H285.463C283.763 217.496 282.405 218.313 282.412 219.303C282.418 220.027 283.161 220.646 284.219 220.918C284.083 221.271 283.947 221.624 283.804 221.995C281.31 228.748 274.656 223.864 274.718 219.247C274.718 219.247 266.411 217.651 270.112 213.083Z" fill="#E6E6E6"/>
<path d="M261.91 204.374C259.874 202.174 256.129 200.865 252.075 200.382C252.465 201.508 252.298 202.582 251.636 202.882C250.899 203.222 249.836 202.482 249.259 201.223C249.106 200.891 248.999 200.539 248.943 200.177C244.889 200.115 240.884 200.845 238.279 202.312C238.279 202.312 241.07 204.512 244.462 210.563C244.555 210.551 244.648 210.544 244.741 210.538C246.672 210.433 248.294 211.262 248.356 212.395C248.399 213.224 247.601 213.98 246.419 214.369C246.605 214.759 246.784 215.155 246.97 215.569C250.319 223.077 257.542 217.017 257.127 211.756C257.127 211.756 266.479 209.317 261.911 204.384L261.91 204.374Z" fill="#E6E6E6"/>
<path d="M256.966 202.722C257.833 198.501 261.46 194.094 266.077 190.479C266.436 192.15 267.439 193.345 268.477 193.227C269.634 193.097 270.39 191.389 270.167 189.414C270.108 188.891 269.977 188.378 269.777 187.891C274.716 184.791 280.177 182.704 284.477 182.562C284.477 182.562 282.688 187.353 283.022 197.318C282.904 197.374 282.781 197.429 282.663 197.498C280.206 198.804 278.838 201.032 279.605 202.474C280.162 203.526 281.705 203.86 283.461 203.458C283.529 204.071 283.597 204.696 283.678 205.34C285.157 217.069 271.763 215.002 268.347 208.218C268.347 208.218 255.027 212.192 256.971 202.718L256.966 202.722Z" fill="#EBEBEB"/>
<path d="M266.387 229.523C265.302 223.267 265.539 216.852 267.082 210.693C268.626 204.533 271.442 198.765 275.349 193.76L275.714 194.045C271.846 198.998 269.059 204.706 267.531 210.801C266.004 216.897 265.769 223.245 266.844 229.436L266.386 229.516L266.387 229.523Z" fill="#E0E0E0"/>
<path d="M266.009 225.264C265.986 225.265 265.963 225.261 265.941 225.252C265.906 225.24 265.875 225.221 265.849 225.195C265.823 225.169 265.804 225.138 265.792 225.103C264.208 220.467 258.866 210.471 249.959 205.848C249.904 205.819 249.863 205.77 249.844 205.711C249.825 205.651 249.831 205.587 249.859 205.532C249.889 205.478 249.938 205.437 249.997 205.419C250.056 205.4 250.12 205.405 250.175 205.432C259.026 210.025 264.405 219.832 266.125 224.65C267.846 223.406 277.873 216.17 282.898 212.95C282.95 212.92 283.011 212.911 283.069 212.925C283.127 212.938 283.178 212.974 283.21 213.024C283.243 213.074 283.255 213.135 283.244 213.194C283.233 213.253 283.2 213.305 283.152 213.34C277.687 216.84 266.261 225.125 266.152 225.205C266.113 225.234 266.065 225.249 266.016 225.248L266.009 225.264Z" fill="#E0E0E0"/>
<path d="M280.375 233.44H252.188L252.2 228.278H280.348L280.375 233.44Z" fill="#E0E0E0"/>
<path d="M254.231 231.756L258.638 250.077H274.854L278.778 231.756H254.231Z" fill="#E0E0E0"/>
<path d="M256.266 227.374H253.759C253.738 227.376 253.716 227.373 253.696 227.366C253.676 227.359 253.657 227.348 253.641 227.333C253.626 227.319 253.613 227.301 253.605 227.282C253.596 227.262 253.592 227.241 253.592 227.22C253.592 227.198 253.596 227.177 253.605 227.157C253.613 227.138 253.626 227.12 253.641 227.106C253.657 227.091 253.676 227.08 253.696 227.073C253.716 227.066 253.738 227.063 253.759 227.065H256.266C256.305 227.068 256.341 227.086 256.367 227.114C256.394 227.143 256.409 227.181 256.409 227.22C256.409 227.258 256.394 227.296 256.367 227.325C256.341 227.353 256.305 227.371 256.266 227.374Z" fill="#E0E0E0"/>
<path d="M264.282 227.374H257.418C257.397 227.376 257.375 227.373 257.355 227.366C257.335 227.359 257.316 227.348 257.3 227.333C257.285 227.319 257.272 227.301 257.264 227.282C257.255 227.262 257.251 227.241 257.251 227.22C257.251 227.198 257.255 227.177 257.264 227.157C257.272 227.138 257.285 227.12 257.3 227.106C257.316 227.091 257.335 227.08 257.355 227.073C257.375 227.066 257.397 227.063 257.418 227.065H264.282C264.303 227.063 264.325 227.066 264.345 227.073C264.365 227.08 264.384 227.091 264.4 227.106C264.415 227.12 264.428 227.138 264.436 227.157C264.445 227.177 264.449 227.198 264.449 227.22C264.449 227.241 264.445 227.262 264.436 227.282C264.428 227.301 264.415 227.319 264.4 227.333C264.384 227.348 264.365 227.359 264.345 227.366C264.325 227.373 264.303 227.376 264.282 227.374Z" fill="#E0E0E0"/>
<path d="M423.284 170.204H311.409C310.447 170.203 309.526 169.82 308.846 169.14C308.166 168.46 307.783 167.539 307.782 166.577V3.627C307.783 2.66546 308.166 1.74369 308.846 1.06379C309.526 0.383878 310.447 0.00132279 311.409 0H423.284C424.246 0.00132279 425.167 0.383878 425.847 1.06379C426.527 1.74369 426.91 2.66546 426.911 3.627V166.577C426.91 167.539 426.527 168.46 425.847 169.14C425.167 169.82 424.246 170.203 423.284 170.204ZM311.415 0.154999C310.495 0.156849 309.613 0.523243 308.962 1.17397C308.311 1.8247 307.945 2.70674 307.943 3.627V166.577C307.945 167.497 308.311 168.379 308.962 169.03C309.613 169.681 310.495 170.047 311.415 170.049H423.29C424.21 170.047 425.092 169.681 425.743 169.03C426.394 168.379 426.76 167.497 426.762 166.577V3.627C426.76 2.70674 426.394 1.8247 425.743 1.17397C425.092 0.523243 424.21 0.156849 423.29 0.154999H311.415Z" fill="#E0E0E0"/>
<path d="M294.281 170.204H182.408C181.446 170.203 180.525 169.82 179.845 169.14C179.165 168.46 178.782 167.539 178.781 166.577V3.627C178.782 2.66546 179.165 1.74369 179.845 1.06379C180.525 0.383878 181.446 0.00132279 182.408 0H294.281C295.243 0.00132279 296.164 0.383878 296.844 1.06379C297.524 1.74369 297.907 2.66546 297.908 3.627V166.577C297.907 167.539 297.524 168.46 296.844 169.14C296.164 169.82 295.243 170.203 294.281 170.204ZM182.408 0.154999C181.488 0.156849 180.606 0.523243 179.955 1.17397C179.304 1.8247 178.938 2.70674 178.936 3.627V166.577C178.938 167.497 179.304 168.379 179.955 169.03C180.606 169.681 181.488 170.047 182.408 170.049H294.281C295.201 170.047 296.083 169.681 296.734 169.03C297.385 168.379 297.751 167.497 297.753 166.577V3.627C297.751 2.70674 297.385 1.8247 296.734 1.17397C296.083 0.523243 295.201 0.156849 294.281 0.154999H182.408Z" fill="#E0E0E0"/>
<path d="M165.356 170.204H53.487C52.5255 170.203 51.6037 169.82 50.9238 169.14C50.2439 168.46 49.8613 167.539 49.86 166.577V3.627C49.8613 2.66546 50.2439 1.74369 50.9238 1.06379C51.6037 0.383878 52.5255 0.00132279 53.487 0H165.362C166.324 0.00132279 167.245 0.383878 167.925 1.06379C168.605 1.74369 168.988 2.66546 168.989 3.627V166.577C168.988 167.539 168.605 168.46 167.925 169.14C167.245 169.82 166.324 170.203 165.362 170.204H165.356ZM53.487 0.154999C52.5667 0.156849 51.6847 0.523243 51.034 1.17397C50.3832 1.8247 50.0168 2.70674 50.015 3.627V166.577C50.0168 167.497 50.3832 168.379 51.034 169.03C51.6847 169.681 52.5667 170.047 53.487 170.049H165.362C166.282 170.047 167.164 169.681 167.815 169.03C168.466 168.379 168.832 167.497 168.834 166.577V3.627C168.832 2.70674 168.466 1.8247 167.815 1.17397C167.164 0.523243 166.282 0.156849 165.362 0.154999H53.487Z" fill="#E0E0E0"/>
<path d="M470.49 208.003H6.27997V208.077H470.49V208.003Z" fill="#E0E0E0"/>
<path d="M445.336 226.189H410.842V226.449H445.336V226.189Z" fill="#EBEBEB"/>
<path d="M321.739 229.017H312.684V229.277H321.739V229.017Z" fill="#EBEBEB"/>
<path d="M76.413 218.266H31.434V218.526H76.413V218.266Z" fill="#EBEBEB"/>
<path d="M92.289 218.266H85.691V218.526H92.289V218.266Z" fill="#EBEBEB"/>
<path d="M211.275 222.667H113.723V222.927H211.275V222.667Z" fill="#EBEBEB"/>
<path d="M390.284 251.206C390.284 253.306 321.575 255 236.822 255C152.069 255 83.36 253.3 83.36 251.206C83.36 249.112 152.069 247.412 236.822 247.412C321.575 247.412 390.284 249.114 390.284 251.206Z" fill="#F5F5F5"/>
<path d="M380.001 13.338H298.578V130.053H380.001V13.338Z" fill="#7BC043"/>
<path opacity="0.8" d="M380.001 13.338H298.578V130.053H380.001V13.338Z" fill="white"/>
<path opacity="0.8" d="M325.139 13.338C310.573 22.523 298.819 29.878 298.819 29.878V53.701L363.678 13.338H325.139Z" fill="white"/>
<path opacity="0.8" d="M380.001 13.338H374.208C355.636 25.797 298.826 61.325 298.826 61.325V71.203L380.007 20.691V13.338H380.001Z" fill="white"/>
<path d="M275.767 12.843H194.344V129.558H275.767V12.843Z" fill="#7BC043"/>
<path opacity="0.8" d="M275.767 12.843H194.344V129.558H275.767V12.843Z" fill="white"/>
<path opacity="0.8" d="M275.765 12.843C275.765 14.291 194.584 65.057 194.584 65.057V88.883L275.765 38.368V12.849V12.843Z" fill="white"/>
<path opacity="0.8" d="M275.765 46.285C275.765 47.733 194.584 98.499 194.584 98.499V108.377L275.765 57.866V46.295V46.285Z" fill="white"/>
<path d="M341.748 129.368L338.661 141.981L312.743 157.342L314.629 162.381C314.629 162.381 344.054 154.667 346.013 151.993C347.972 149.319 353.299 131.652 353.299 131.652L341.747 129.361L341.748 129.368Z" fill="#E9B376"/>
<path opacity="0.3" d="M340.993 132.463L340.507 134.445L349.561 136.876L350.909 139.263L351.439 137.605L350.614 133.524L340.993 132.463Z" fill="black"/>
<g filter="url(#filter0_d_629_3163)">
<path d="M318.769 155.286C317.992 154.063 316.811 153.15 315.432 152.707C313.413 152.258 311.918 151.359 310.393 151.123C308.868 150.887 310.224 152.471 311.115 153.171C312.006 153.871 313.008 154.671 312.375 155.249C311.742 155.827 304.536 157.496 303.755 158.402C302.974 159.308 304.219 159.402 304.219 159.402C304.219 159.402 302.48 159.851 302.473 160.588C302.473 160.78 302.773 161.229 303.6 161.148C305.457 160.964 309.332 160.382 309.332 160.382C309.111 160.412 304.381 161.472 303.689 161.723C302.789 162.055 302.532 162.666 302.739 163.182C303.034 163.911 308.939 162.799 309.23 162.924C309.23 162.924 305.804 163.454 305.458 164.412C305.112 165.37 307.285 165.156 309.164 164.604C310.888 164.096 314.402 163.551 316.104 162.865C318.204 162.018 319.419 160.979 319.515 158.865C319.578 157.625 319.322 156.39 318.771 155.277L318.769 155.286Z" fill="#7BC043"/>
</g>
<path opacity="0.3" d="M304.44 159.397C304.419 159.397 304.398 159.39 304.382 159.377C304.366 159.363 304.355 159.344 304.352 159.323C304.346 159.3 304.35 159.275 304.363 159.254C304.375 159.233 304.395 159.218 304.418 159.212C305.818 158.888 307.254 158.623 308.676 158.424C308.699 158.424 308.722 158.431 308.741 158.446C308.759 158.461 308.771 158.482 308.776 158.505C308.776 158.528 308.768 158.551 308.754 158.57C308.739 158.588 308.718 158.6 308.695 158.605C307.281 158.797 305.851 159.062 304.459 159.386H304.437L304.44 159.397Z" fill="#7BC043"/>
<path opacity="0.3" d="M310.562 162.867C310.562 162.867 310.496 162.852 310.481 162.815C309.59 161.147 309.206 159.255 309.376 157.371C309.376 157.359 309.379 157.347 309.384 157.336C309.39 157.325 309.398 157.315 309.407 157.307C309.417 157.299 309.428 157.294 309.44 157.291C309.452 157.288 309.464 157.288 309.476 157.29C309.488 157.291 309.5 157.294 309.51 157.3C309.521 157.305 309.531 157.313 309.538 157.322C309.546 157.332 309.551 157.343 309.555 157.354C309.558 157.366 309.559 157.378 309.557 157.39C309.391 159.238 309.768 161.094 310.64 162.731C310.65 162.753 310.651 162.777 310.645 162.8C310.638 162.823 310.623 162.843 310.603 162.856C310.588 162.856 310.574 162.863 310.559 162.863L310.562 162.867Z" fill="#7BC043"/>
<path d="M316.754 154.44L322.954 150.756L325.864 160.083L316.758 162.057L317.958 157.931L316.551 154.49" fill="#7BC043"/>
<path d="M353.042 281.163L347.31 297.113L341.954 295.441L343.626 278.651L353.042 281.163Z" fill="#E9B376"/>
<path d="M348.157 301.816C348.032 302.987 347.951 303.79 347.951 303.79L343.111 303.805C342.632 303.543 342.102 303.39 341.557 303.356C340.982 303.43 338.993 303.813 338.993 303.813L326.144 303.842C326.236 303.353 326.359 302.871 326.512 302.398C326.664 301.933 326.865 301.487 327.112 301.065C327.419 300.52 327.861 300.063 328.397 299.74C328.933 299.418 329.544 299.239 330.169 299.223C331.969 299.105 337.625 295.311 337.625 295.311C338.224 295.081 338.746 294.686 339.128 294.17C339.51 293.655 339.738 293.041 339.784 292.401C339.904 291.955 340.134 291.547 340.454 291.214C340.773 290.88 341.171 290.632 341.611 290.493C342.782 290.324 343.438 291.06 343.611 292.239L343.811 293.602L346.522 293.175C346.522 293.175 349.277 291.783 349.152 293.131" fill="#263238"/>
<g opacity="0.2">
<path d="M326.144 303.839L338.993 303.81C338.993 303.81 340.982 303.427 341.557 303.353C342.102 303.383 342.634 303.537 343.111 303.802L347.951 303.787C347.951 303.787 348.039 302.987 348.157 301.813L326.512 302.388C326.355 302.86 326.232 303.343 326.144 303.832V303.839Z" fill="white"/>
</g>
<path d="M334.815 296.723C334.844 296.695 334.881 296.678 334.922 296.674C334.962 296.67 335.002 296.679 335.036 296.701C335.367 296.922 335.634 297.227 335.81 297.585C335.91 297.785 335.618 297.975 335.523 297.777C335.371 297.46 335.137 297.191 334.845 296.996C334.822 296.982 334.803 296.963 334.789 296.941C334.775 296.918 334.766 296.893 334.763 296.867C334.76 296.84 334.763 296.814 334.772 296.789C334.781 296.764 334.796 296.741 334.815 296.723Z" fill="#7BC043"/>
<path d="M335.832 296.116C335.861 296.088 335.898 296.071 335.939 296.067C335.979 296.063 336.019 296.072 336.053 296.094C336.384 296.315 336.651 296.62 336.827 296.978C336.927 297.178 336.635 297.369 336.54 297.17C336.388 296.853 336.154 296.584 335.862 296.389C335.839 296.375 335.82 296.356 335.806 296.334C335.792 296.311 335.783 296.286 335.78 296.26C335.777 296.233 335.78 296.207 335.789 296.182C335.798 296.157 335.813 296.134 335.832 296.116Z" fill="#7BC043"/>
<path d="M336.885 295.551C336.914 295.523 336.951 295.505 336.992 295.501C337.032 295.497 337.072 295.507 337.106 295.529C337.437 295.75 337.704 296.055 337.88 296.413C337.98 296.613 337.688 296.803 337.593 296.605C337.441 296.288 337.207 296.019 336.915 295.824C336.892 295.81 336.873 295.791 336.859 295.769C336.845 295.746 336.836 295.721 336.834 295.695C336.831 295.668 336.834 295.642 336.843 295.617C336.852 295.592 336.867 295.569 336.886 295.551H336.885Z" fill="#7BC043"/>
<path d="M390.019 279.395L392.546 296.664L398.182 296.892L399.847 280.205L390.019 279.395Z" fill="#E9B376"/>
<path d="M403.059 304.591L390.454 304.716C390.259 304.084 390.266 303.406 390.476 302.778C390.52 302.557 390.576 302.314 390.66 302.049C390.66 302.034 390.66 302.02 390.675 302.012C390.785 301.622 390.918 301.143 391.058 300.62C391.618 298.506 392.266 295.743 392.266 295.743C392.266 295.743 394.321 291.234 396.782 292.332C398.948 293.297 398.462 296.111 398.462 296.111C398.723 297.322 399.382 298.411 400.333 299.205C401.358 299.908 402.218 300.826 402.853 301.894C402.948 302.11 403.023 302.334 403.074 302.564C403.074 302.593 403.089 302.623 403.089 302.652C403.196 303.294 403.187 303.951 403.06 304.59L403.059 304.591Z" fill="#263238"/>
<g opacity="0.2">
<path d="M390.468 302.771C390.258 303.399 390.25 304.077 390.446 304.709L403.051 304.584C403.185 303.946 403.195 303.288 403.08 302.646L390.46 302.771H390.468Z" fill="white"/>
</g>
<path d="M397.953 296.819C397.621 296.559 397.204 296.431 396.783 296.461C396.362 296.491 395.968 296.676 395.676 296.981C395.507 297.15 395.241 296.893 395.411 296.723C395.772 296.35 396.26 296.125 396.778 296.094C397.296 296.063 397.808 296.227 398.211 296.554C398.403 296.701 398.137 296.967 397.953 296.819Z" fill="#7BC043"/>
<path d="M398.322 297.99C397.99 297.73 397.573 297.602 397.153 297.632C396.732 297.662 396.338 297.848 396.046 298.152C395.877 298.321 395.611 298.064 395.781 297.894C396.142 297.521 396.63 297.296 397.148 297.265C397.666 297.234 398.178 297.398 398.581 297.725C398.773 297.872 398.506 298.138 398.322 297.99Z" fill="#7BC043"/>
<path d="M398.69 299.073C398.358 298.813 397.941 298.686 397.521 298.715C397.1 298.745 396.706 298.931 396.414 299.235C396.245 299.404 395.979 299.147 396.149 298.977C396.51 298.604 396.998 298.379 397.516 298.348C398.034 298.317 398.546 298.481 398.949 298.808C399.14 298.955 398.874 299.221 398.69 299.073Z" fill="#7BC043"/>
<path d="M403.133 172.496L376.743 172.982L360.174 172.643C360.174 172.643 349.035 222.902 348.136 232.355C347.237 241.808 339.251 291.617 339.251 291.617L352.159 294.317C352.159 294.317 366.282 241.007 367.284 235.887C368.161 231.422 378.055 202.779 380.584 195.492C380.857 196.973 381.144 198.468 381.431 199.942C382.153 206.631 384.474 227.942 385.468 235.879C385.468 235.879 387.907 281.217 390.352 294.368L402.471 294.268C403.885 275.555 404.271 209.854 404.271 209.854C405.03 195.576 403.136 172.487 403.136 172.487L403.133 172.496Z" fill="#263238"/>
<g opacity="0.5">
<path d="M367.039 180.07C366.284 182.589 364.919 184.884 363.066 186.75C361.213 188.616 358.929 189.997 356.415 190.77C356.362 190.79 356.318 190.829 356.293 190.879C356.268 190.93 356.262 190.988 356.278 191.042C356.294 191.096 356.33 191.142 356.379 191.171C356.427 191.2 356.485 191.209 356.54 191.197C359.128 190.4 361.479 188.978 363.386 187.055C365.293 185.133 366.697 182.77 367.473 180.176C367.483 180.121 367.472 180.064 367.442 180.017C367.412 179.97 367.365 179.936 367.311 179.922C367.257 179.908 367.199 179.915 367.15 179.942C367.101 179.969 367.064 180.013 367.046 180.066L367.039 180.07Z" fill="black"/>
<path d="M380.861 179.93C380.603 184.358 380.35 188.788 380.102 193.221C380.087 193.508 379.645 193.508 379.66 193.221C379.793 190.952 379.925 188.668 380.05 186.392C378.967 187.247 377.678 186.237 377.31 185.11C376.799 183.2 376.812 181.187 377.347 179.283C377.364 179.23 377.402 179.185 377.451 179.158C377.5 179.131 377.558 179.123 377.613 179.138C377.667 179.152 377.714 179.186 377.744 179.234C377.774 179.282 377.785 179.339 377.774 179.394C377.457 180.675 377.347 181.998 377.45 183.313C377.459 184.018 377.609 184.715 377.892 185.361C378.246 186.046 379.137 186.613 379.837 185.987C379.868 185.957 379.907 185.938 379.949 185.931C379.991 185.924 380.035 185.931 380.073 185.95C380.191 183.95 380.301 181.928 380.419 179.924C380.434 179.637 380.876 179.637 380.861 179.924V179.93Z" fill="black"/>
<path d="M393.886 180.556C393.89 183.384 394.965 186.105 396.895 188.171C398.824 190.238 401.465 191.497 404.286 191.695C404.566 191.717 404.559 191.275 404.286 191.26C401.581 191.065 399.05 189.853 397.202 187.868C395.354 185.883 394.326 183.272 394.325 180.56C394.325 180.502 394.302 180.447 394.261 180.406C394.22 180.365 394.165 180.343 394.107 180.343C394.05 180.343 393.994 180.365 393.954 180.406C393.913 180.447 393.89 180.502 393.89 180.56L393.886 180.556Z" fill="black"/>
</g>
<path d="M403.133 172.496L376.743 172.982L360.174 172.643C360.174 172.643 349.035 222.902 348.136 232.355C347.237 241.808 339.251 291.617 339.251 291.617L352.159 294.317C352.159 294.317 366.282 241.007 367.284 235.887C368.161 231.422 378.055 202.779 380.584 195.492C380.857 196.973 381.144 198.468 381.431 199.942C382.153 206.631 384.474 227.942 385.468 235.879C385.468 235.879 387.907 281.217 390.352 294.368L402.471 294.268C403.885 275.555 404.271 209.854 404.271 209.854C405.03 195.576 403.136 172.487 403.136 172.487L403.133 172.496Z" fill="#455A64"/>
<path d="M350.191 111.377C344.968 114.442 339.774 132.577 339.774 132.577L355.68 137.771L360.749 127.14L350.191 111.377Z" fill="white"/>
<path opacity="0.2" d="M353.661 126.568L352.828 136.904L349.159 135.637C350.64 131.673 349.903 117.057 349.903 117.057C349.903 117.057 352.312 123.945 353.653 126.568H353.661Z" fill="black"/>
<path d="M383.535 104.769C380.551 106.994 377.199 112.077 379.866 117.617C381.759 121.551 387.292 129.206 387.292 129.206L401.165 121.397C401.165 121.397 388.751 101.874 383.535 104.769Z" fill="white"/>
<path d="M353.081 110.051C363.13 106.64 373.636 104.76 384.245 104.474L392.784 120.129L400.8 159.129C402.128 163.374 403.098 167.722 403.7 172.129C388.943 181.95 368.735 181.736 357.028 177.61C356.571 172.578 357.359 173.558 356.262 163.863C354.332 146.786 350.633 127.196 350.062 111.578C350.055 111.195 352.714 110.156 353.09 110.053L353.081 110.051Z" fill="white"/>
<path d="M354.612 127.865C354.295 129.287 356.66 159.301 356.66 159.301C356.66 159.301 357.028 168.377 357.419 169.801C357.81 171.225 346.707 253.552 354.244 257.427C361.781 261.302 394.83 259.063 394.83 259.063C394.83 259.063 394.101 166.935 395.876 161.786C396.756 158.916 398.465 156.37 400.79 154.47L398.623 143.484L393.363 143.757C393.363 143.757 386.463 120.764 383.425 121.92C380.387 123.076 354.604 127.851 354.604 127.851L354.612 127.865Z" fill="#7BC043"/>
<path d="M356.018 128.926L357.978 129.176V129.154L357.963 129.102C357.963 129.102 357.985 129.397 357.978 129.202C357.971 129.025 357.956 128.848 357.949 128.672C357.927 128.119 357.927 127.572 357.934 127.022C357.934 125.35 357.978 123.685 358.022 122.012C358.122 118.402 358.25 114.785 358.39 111.175C358.419 110.365 358.456 109.554 358.49 108.744C358.549 107.322 356.339 107.322 356.28 108.744C356.007 115.183 355.632 121.666 355.727 128.113C355.705 128.631 355.738 129.149 355.827 129.66C355.871 129.887 355.983 130.095 356.148 130.258C356.313 130.42 356.522 130.529 356.75 130.57C356.977 130.612 357.212 130.583 357.423 130.489C357.634 130.395 357.812 130.24 357.934 130.043C358.722 128.857 356.807 127.743 356.026 128.931L356.018 128.926Z" fill="#7BC043"/>
<path d="M384.029 126.016C381.819 118.883 379.611 111.751 377.406 104.621C376.986 103.265 374.85 103.847 375.277 105.21C377.487 112.343 379.695 119.475 381.9 126.605C382.32 127.961 384.456 127.379 384.029 126.016Z" fill="#7BC043"/>
<path opacity="0.6" d="M373.766 133.745L381.413 131.019L383.284 136.25L375.637 138.983" fill="white"/>
<path d="M375.63 130.208L377.037 132.608C377.123 132.761 377.263 132.876 377.43 132.931C377.596 132.985 377.777 132.976 377.937 132.903C378.08 132.844 378.201 132.741 378.28 132.608C378.36 132.475 378.395 132.32 378.379 132.166L378.069 129.057L375.623 130.199L375.63 130.208Z" fill="#7BC043"/>
<path opacity="0.4" d="M375.63 130.208L377.037 132.608C377.123 132.761 377.263 132.876 377.43 132.931C377.596 132.985 377.777 132.976 377.937 132.903C378.08 132.844 378.201 132.741 378.28 132.608C378.36 132.475 378.395 132.32 378.379 132.166L378.069 129.057L375.623 130.199L375.63 130.208Z" fill="black"/>
<g opacity="0.2">
<path d="M381.782 169.999C385.141 169.24 387.919 165.689 389.363 162.565C390.571 159.733 391.626 156.839 392.524 153.894L386.601 161.541C385.453 163.162 384.101 164.627 382.578 165.902C380.301 167.461 377.728 168.537 375.019 169.063C371.567 169.913 368.062 170.528 364.528 170.905C370.287 171.563 376.116 171.259 381.775 170.005L381.782 169.999Z" fill="black"/>
</g>
<path d="M400.436 121.802C400.436 121.802 410.448 136.868 409.07 140.868C407.692 144.868 383.646 164.981 383.646 164.981L380.22 159.392L396.52 138.528L390.02 127.661L400.436 121.802Z" fill="#E9B376"/>
<path d="M370.797 105.358C370.797 105.358 368.852 101.151 369.117 92.758C369.117 92.751 368.66 92.67 368.653 92.658C368.682 91.487 368.753 90.389 368.845 89.439V89.402L359.845 98.744C360.736 101.175 361.075 106.237 361.061 108.41C361.061 108.41 360.656 112.447 365.607 111.35C369.224 110.55 370.779 105.35 370.779 105.35L370.797 105.358Z" fill="#E9B376"/>
<path opacity="0.2" d="M360.571 102.308L366.362 99.3461C366.296 101.401 365.183 104.098 360.947 105.38C360.903 104.347 360.775 103.32 360.564 102.308H360.571Z" fill="black"/>
<path d="M347.744 82.181C347.118 84.973 348.068 90.521 351.715 88.381C355.362 86.241 348.82 77.378 347.744 82.181Z" fill="#263238"/>
<path d="M367.599 84.199C368.616 91.154 369.323 95.058 366.582 99.28C362.449 105.631 353.512 104.297 350.433 97.762C347.663 91.883 346.469 81.488 352.651 77.414C354.021 76.5114 355.596 75.9705 357.232 75.842C358.867 75.7135 360.508 76.0015 362.001 76.6792C363.495 77.3568 364.793 78.4019 365.773 79.717C366.753 81.032 367.384 82.574 367.607 84.199H367.599Z" fill="#E9B376"/>
<path d="M367.025 75.882C365.294 72.294 355.51 74.114 353.27 76.604C352.931 76.972 359.142 78.623 358.781 78.571L361.617 78.932C362.008 78.755 362.906 79.065 363.584 80.243C363.584 80.243 364.092 87.728 367.717 90.152C370.417 88.152 370.973 86.763 371.217 84.118C371.571 80.177 369.017 77.65 367.032 75.881L367.025 75.882Z" fill="#263238"/>
<path d="M371.511 89.354C371.421 90.2228 371.159 91.065 370.74 91.8315C370.321 92.5981 369.754 93.2737 369.072 93.819C367.238 95.263 365.396 93.834 365.138 91.631C364.902 89.649 365.58 86.503 367.798 85.914C368.285 85.7954 368.794 85.7993 369.279 85.9254C369.764 86.0515 370.211 86.2958 370.579 86.6365C370.946 86.9772 371.224 87.4038 371.387 87.878C371.549 88.3522 371.592 88.8593 371.511 89.354Z" fill="#E9B376"/>
<path d="M358.184 88.237C358.331 88.937 358.073 89.585 357.617 89.674C357.161 89.763 356.667 89.269 356.517 88.569C356.367 87.869 356.627 87.2211 357.084 87.1321C357.541 87.0431 358.037 87.538 358.184 88.237Z" fill="#263238"/>
<path d="M351.318 89.819C351.465 90.519 351.208 91.167 350.751 91.256C350.294 91.345 349.801 90.851 349.651 90.151C349.501 89.451 349.762 88.803 350.218 88.714C350.674 88.625 351.178 89.119 351.318 89.819Z" fill="#263238"/>
<path d="M353.476 88.959C353.476 88.959 351.976 92.9151 351.568 94.4921C352.008 94.6732 352.482 94.7595 352.958 94.7456C353.434 94.7316 353.902 94.6176 354.331 94.411L353.476 88.959Z" fill="#D58745"/>
<path d="M359.208 84.568C359.159 84.6022 359.101 84.6223 359.042 84.6262C358.982 84.63 358.922 84.6176 358.869 84.59C358.494 84.3927 358.078 84.286 357.655 84.2783C357.231 84.2707 356.812 84.3624 356.43 84.546C356.392 84.569 356.349 84.5841 356.305 84.5906C356.261 84.597 356.217 84.5947 356.173 84.5837C356.13 84.5728 356.09 84.5534 356.054 84.5267C356.018 84.4999 355.989 84.4664 355.966 84.428C355.943 84.3905 355.928 84.3487 355.921 84.3051C355.915 84.2616 355.917 84.2172 355.928 84.1746C355.939 84.132 355.959 84.092 355.986 84.057C356.012 84.0221 356.046 83.9928 356.084 83.971C356.562 83.7284 357.091 83.6037 357.627 83.6076C358.163 83.6114 358.69 83.7436 359.164 83.993C359.204 84.012 359.24 84.0388 359.269 84.0718C359.299 84.1047 359.321 84.1432 359.336 84.185C359.35 84.2268 359.356 84.2711 359.353 84.3152C359.35 84.3593 359.339 84.4025 359.319 84.442C359.292 84.4917 359.254 84.5355 359.208 84.568Z" fill="#263238"/>
<path opacity="0.2" d="M366.841 90.683C366.795 90.6829 366.75 90.6656 366.716 90.6343C366.682 90.603 366.661 90.5601 366.657 90.514C366.599 89.8734 366.708 89.2288 366.974 88.643C367.187 88.1329 367.57 87.7117 368.057 87.45C368.316 87.3184 368.609 87.2671 368.898 87.3028C369.187 87.3384 369.458 87.4593 369.678 87.65C369.712 87.6842 369.731 87.7306 369.731 87.779C369.731 87.8274 369.712 87.8738 369.678 87.908C369.644 87.9422 369.597 87.9615 369.549 87.9615C369.501 87.9615 369.454 87.9422 369.42 87.908C369.254 87.7703 369.051 87.6844 368.836 87.6607C368.621 87.6371 368.404 87.6768 368.212 87.775C367.803 88.0007 367.483 88.3596 367.306 88.792C367.064 89.3171 366.965 89.8965 367.019 90.472C367.021 90.4963 367.019 90.5208 367.011 90.5441C367.004 90.5674 366.992 90.589 366.977 90.6076C366.961 90.6262 366.942 90.6416 366.92 90.6526C366.898 90.6637 366.874 90.6703 366.85 90.672H366.835L366.841 90.683Z" fill="black"/>
<path d="M360.998 92.797L355.635 96.378C356.131 96.9533 356.701 97.461 357.329 97.888C357.64 98.0733 357.984 98.1936 358.343 98.2417C358.701 98.2899 359.066 98.2648 359.414 98.168C359.933 98.0446 360.404 97.7726 360.771 97.3852C361.137 96.9978 361.383 96.5118 361.477 95.987C361.598 94.9024 361.432 93.8051 360.998 92.804V92.797Z" fill="black"/>
<path d="M356.062 96.09C356.062 96.09 356.662 96.724 357.057 96.731C358.548 95.8739 359.98 94.9192 361.345 93.873L360.991 92.797L356.062 96.09Z" fill="white"/>
<path d="M358.633 98.257C358.665 97.8747 358.78 97.5041 358.97 97.1708C359.16 96.8375 359.42 96.5496 359.733 96.327C360.222 95.8808 360.854 95.6225 361.516 95.598C361.495 95.9975 361.39 96.388 361.207 96.7436C361.024 97.0993 360.768 97.412 360.455 97.661C359.946 98.0841 359.296 98.2985 358.635 98.261L358.633 98.257Z" fill="#DE5753"/>
<path d="M347.2 83.249C347.2 83.249 349.418 72.014 359.312 72.349C369.206 72.684 371.159 78.022 371.312 83.805C371.312 83.805 361.646 81.713 357.506 81.337C353.366 80.961 347.2 83.249 347.2 83.249Z" fill="#7BC043"/>
<path opacity="0.2" d="M347.2 83.249C347.2 83.249 349.418 72.014 359.312 72.349C369.206 72.684 371.159 78.022 371.312 83.805C371.312 83.805 361.646 81.713 357.506 81.337C353.366 80.961 347.2 83.249 347.2 83.249Z" fill="#7BC043"/>
<path d="M352.033 80.53C346.78 81.495 344.85 81.73 340.356 84.015C339.61 84.335 338.951 84.8275 338.433 85.452C338.182 85.7688 338.035 86.1556 338.013 86.5592C337.99 86.9628 338.093 87.3634 338.308 87.706C338.469 87.9229 338.672 88.1054 338.905 88.2428C339.138 88.3802 339.396 88.4697 339.664 88.506C342.514 88.6255 345.368 88.4479 348.181 87.976L348.233 85.434C348.242 84.8022 348.448 84.189 348.822 83.6795C349.195 83.1699 349.718 82.7891 350.318 82.59C352.167 81.9462 354.106 81.5957 356.064 81.551C360.345 81.6036 364.603 82.1802 368.743 83.268C365.46 81.5586 361.857 80.5525 358.164 80.314C356.12 80.0577 354.048 80.1299 352.027 80.528L352.033 80.53Z" fill="#7BC043"/>
<path d="M362.281 71.675C362.082 71.5524 361.858 71.4767 361.626 71.4536C361.393 71.4306 361.159 71.4608 360.94 71.542C360.502 71.7111 360.135 72.0256 359.901 72.433L362.833 72.868C362.861 72.6364 362.823 72.4017 362.726 72.1899C362.628 71.9781 362.474 71.7975 362.28 71.668L362.281 71.675Z" fill="#7BC043"/>
<path d="M347.656 87.49C347.59 87.4885 347.526 87.468 347.472 87.431C347.435 87.4072 347.403 87.3762 347.378 87.34C347.353 87.3037 347.335 87.2629 347.326 87.2198C347.316 87.1767 347.316 87.1321 347.324 87.0888C347.332 87.0454 347.348 87.004 347.372 86.967C347.656 86.5183 348.044 86.1448 348.503 85.8781C348.962 85.6114 349.479 85.4594 350.009 85.435C350.053 85.4355 350.096 85.4446 350.137 85.4618C350.177 85.4791 350.214 85.5042 350.245 85.5356C350.276 85.567 350.3 85.6042 350.316 85.645C350.333 85.6859 350.341 85.7295 350.34 85.7735C350.34 85.8175 350.331 85.861 350.314 85.9014C350.296 85.9419 350.271 85.9786 350.24 86.0094C350.208 86.0401 350.171 86.0644 350.13 86.0808C350.09 86.0973 350.046 86.1055 350.002 86.105C349.581 86.1275 349.172 86.252 348.81 86.4676C348.448 86.6833 348.144 86.9837 347.924 87.343C347.893 87.3886 347.851 87.4259 347.802 87.4515C347.753 87.4771 347.699 87.4904 347.644 87.49H347.656Z" fill="#263238"/>
<path d="M305.914 293.827C313.421 276.286 321.54 259.002 330.071 241.932C338.871 224.332 348.099 206.923 358.155 190.008C360.424 186.192 362.73 182.408 365.117 178.662C365.795 177.601 366.487 176.54 367.209 175.516C367.393 175.258 367.577 175 367.761 174.75C367.783 174.721 368.409 173.895 368.004 174.418C368.387 173.924 368.792 173.446 369.204 172.974C370.042 172.047 370.935 171.171 371.878 170.351C372.622 169.681 371.37 170.683 372.165 170.123C372.415 169.946 372.659 169.777 372.909 169.607C373.415 169.274 373.939 168.969 374.478 168.693C374.751 168.553 375.023 168.42 375.296 168.303C374.648 168.598 375.554 168.215 375.62 168.185C376.185 167.986 376.76 167.819 377.344 167.685C377.631 167.619 377.926 167.567 378.221 167.516C377.447 167.634 378.413 167.516 378.516 167.509C378.811 167.494 379.105 167.487 379.4 167.487C379.5 167.487 380.535 167.553 380.137 167.516C379.637 167.472 380.579 167.597 380.572 167.597C380.845 167.656 381.11 167.722 381.382 167.803C381.603 167.869 381.824 167.95 382.045 168.024C382.797 168.252 381.404 167.692 382.097 168.039C382.497 168.239 382.897 168.439 383.276 168.673C383.46 168.791 383.644 168.916 383.829 169.041C384.116 169.255 384.065 169.21 383.682 168.923C383.8 169.011 383.91 169.107 384.021 169.203C384.301 169.446 384.566 169.697 384.821 169.962C384.976 170.124 385.121 170.286 385.27 170.456C385.419 170.626 385.94 171.056 385.314 170.478C385.968 171.23 386.496 172.084 386.876 173.005C386.976 173.211 387.082 173.425 387.185 173.639C387.207 173.683 387.517 174.398 387.303 173.897C387.089 173.396 387.392 174.118 387.403 174.162C387.492 174.39 387.572 174.611 387.653 174.84C388.003 175.841 388.296 176.862 388.53 177.897C388.736 178.788 388.884 179.68 389.03 180.579C389.17 181.426 388.949 179.835 389.045 180.679C389.074 180.922 389.104 181.173 389.126 181.416C389.185 181.983 389.226 182.558 389.266 183.125C389.428 185.681 389.399 188.26 389.347 190.825C389.229 196.616 388.809 202.384 388.397 208.16C387.597 219.46 386.865 230.844 388.522 242.108C389.705 250.813 392.667 259.181 397.222 266.693C399.498 270.396 402.297 273.751 405.532 276.654C407.224 278.152 409.038 279.508 410.954 280.706C412.43 281.756 414.064 282.564 415.794 283.1C417.905 283.543 420.049 283.814 422.204 283.91C423.081 283.904 423.921 283.552 424.541 282.932C425.161 282.312 425.513 281.472 425.519 280.595C425.5 279.722 425.145 278.889 424.527 278.272C423.909 277.654 423.077 277.299 422.204 277.28C421.541 277.243 420.878 277.199 420.215 277.133C419.928 277.103 419.64 277.067 419.353 277.033C420.2 277.133 419.39 277.033 419.235 277.011C418.603 276.858 417.964 276.738 417.32 276.65C417.305 276.65 417.22 276.613 417.21 276.621L417.755 276.842C417.593 276.768 417.438 276.695 417.283 276.614C416.892 276.422 416.502 276.224 416.119 276.014C415.124 275.484 414.167 274.902 413.231 274.275C412.804 273.988 412.384 273.693 411.964 273.384C411.854 273.303 411.164 272.765 411.817 273.284C411.617 273.122 411.412 272.967 411.217 272.805C410.417 272.157 409.655 271.472 408.911 270.75C408.167 270.028 407.46 269.284 406.775 268.518C406.436 268.128 406.097 267.737 405.775 267.339C405.613 267.139 405.451 266.934 405.289 266.739C405.061 266.452 405.075 266.466 405.333 266.798C405.233 266.658 405.127 266.518 405.023 266.385C403.777 264.7 402.641 262.935 401.623 261.103C401.107 260.175 400.623 259.232 400.164 258.281C399.972 257.881 399.788 257.481 399.604 257.073C399.493 256.83 399.39 256.587 399.28 256.344C399.133 255.998 399.14 256.02 399.302 256.396C399.236 256.234 399.162 256.064 399.096 255.902C397.45 251.826 396.216 247.596 395.412 243.274C395.228 242.309 395.066 241.336 394.926 240.374C394.904 240.234 394.786 239.335 394.897 240.197C394.86 239.932 394.831 239.667 394.797 239.397C394.723 238.786 394.657 238.167 394.597 237.548C394.332 234.741 394.197 231.919 394.162 229.098C394.081 223.204 394.413 217.31 394.81 211.424C395.207 205.538 395.687 199.636 395.9 193.724C396.211 188.67 396.038 183.598 395.384 178.577C394.875 174.466 393.381 170.538 391.03 167.128C389.685 165.209 387.9 163.639 385.826 162.548C383.751 161.457 381.446 160.878 379.102 160.858C367.702 160.958 361.472 171.858 356.234 180.374C346.023 196.987 336.74 214.182 327.892 231.554C319.022 248.978 310.592 266.637 302.755 284.547C301.893 286.521 301.031 288.503 300.184 290.492C299.506 292.083 299.654 294.124 301.37 295.03C302.792 295.781 305.179 295.546 305.908 293.844L305.914 293.827Z" fill="black"/>
<path d="M469.466 237.608H429.434C427.192 237.608 425.374 239.426 425.374 241.668V291.101C425.374 293.343 427.192 295.161 429.434 295.161H469.466C471.708 295.161 473.526 293.343 473.526 291.101V241.668C473.526 239.426 471.708 237.608 469.466 237.608Z" fill="#7BC043"/>
<path d="M474.933 245.955H424.055V253.138H474.933V245.955Z" fill="#7BC043"/>
<path d="M424.246 239.98H474.933L474.167 235.405H465.766L459.666 229.305H436.623L431.26 235.405L424.246 235.67V239.97V239.98Z" fill="#455A64"/>
<path d="M466.586 302.947C471.664 302.947 475.78 298.831 475.78 293.753C475.78 288.675 471.664 284.559 466.586 284.559C461.508 284.559 457.392 288.675 457.392 293.753C457.392 298.831 461.508 302.947 466.586 302.947Z" fill="#263238"/>
<path d="M435.518 303.118C438.586 303.118 441.073 300.631 441.073 297.563C441.073 294.495 438.586 292.008 435.518 292.008C432.45 292.008 429.963 294.495 429.963 297.563C429.963 300.631 432.45 303.118 435.518 303.118Z" fill="#263238"/>
<path d="M425.381 276.868H418.5V283.749H425.381V276.868Z" fill="#7BC043"/>
<path opacity="0.3" d="M473.526 253.138H425.374V255.739H473.526V253.138Z" fill="black"/>
<path d="M320.523 296.317H272.997V302.307H320.523V296.317Z" fill="#263238"/>
<path d="M313.392 294.026H279.171V297.518H313.392V294.026Z" fill="#263238"/>
<path d="M296.963 294.365C297.14 294.365 302.024 283.933 302.024 283.933L310.268 285.598L306.26 294.026L296.96 294.372L296.963 294.365Z" fill="#263238"/>
<path d="M379.963 157.304C379.528 157.341 373.023 159.765 370.643 162.955L373.634 162.299L370.392 170.373C370.392 170.373 369.736 173.806 374.135 171.788C378.534 169.77 379.926 173.549 382.659 169.519C385.392 165.489 388.359 161.511 388.359 161.511L393.159 158.085L384.925 149.436L379.967 157.304H379.963Z" fill="#7BC043"/>
<path opacity="0.3" d="M425.374 276.868H424.055V283.749H425.374V276.868Z" fill="black"/>
<path d="M475.376 259.068V277.733C475.38 277.803 475.411 277.87 475.463 277.918C475.514 277.966 475.582 277.993 475.652 277.993C475.723 277.993 475.791 277.966 475.842 277.918C475.894 277.87 475.925 277.803 475.929 277.733V259.068C475.925 258.998 475.894 258.931 475.842 258.883C475.791 258.835 475.723 258.808 475.652 258.808C475.582 258.808 475.514 258.835 475.463 258.883C475.411 258.931 475.38 258.998 475.376 259.068Z" fill="#7BC043"/>
<path d="M475.376 280.802V283.078C475.38 283.148 475.411 283.215 475.463 283.263C475.514 283.311 475.582 283.338 475.652 283.338C475.723 283.338 475.791 283.311 475.842 283.263C475.894 283.215 475.925 283.148 475.929 283.078V280.802C475.925 280.732 475.894 280.665 475.842 280.617C475.791 280.569 475.723 280.542 475.652 280.542C475.582 280.542 475.514 280.569 475.463 280.617C475.411 280.665 475.38 280.732 475.376 280.802Z" fill="#7BC043"/>
<path d="M226.329 197.436C226.388 197.775 226.375 198.123 226.291 198.456C226.207 198.79 226.053 199.102 225.841 199.373C225.629 199.644 225.362 199.867 225.058 200.028C224.754 200.189 224.419 200.284 224.076 200.308H180.601C179.874 200.246 179.195 199.919 178.693 199.39C178.191 198.86 177.901 198.165 177.878 197.436L175.297 165.443C175.268 165.13 175.287 164.815 175.353 164.508C175.437 163.98 175.703 163.497 176.104 163.144C176.506 162.79 177.018 162.588 177.553 162.571H221.025C221.751 162.634 222.43 162.961 222.931 163.49C223.433 164.02 223.724 164.714 223.748 165.443L226.329 197.436Z" fill="#263238"/>
<path opacity="0.7" d="M226.329 197.436C226.388 197.775 226.375 198.123 226.291 198.456C226.207 198.79 226.053 199.102 225.841 199.373C225.629 199.644 225.362 199.867 225.058 200.028C224.754 200.189 224.419 200.284 224.076 200.308H180.601C179.874 200.246 179.195 199.919 178.693 199.39C178.191 198.86 177.901 198.165 177.878 197.436L175.297 165.443C175.268 165.13 175.287 164.815 175.353 164.508C175.437 163.98 175.703 163.497 176.104 163.144C176.506 162.79 177.018 162.588 177.553 162.571H221.025C221.751 162.634 222.43 162.961 222.931 163.49C223.433 164.02 223.724 164.714 223.748 165.443L226.329 197.436Z" fill="white"/>
<path d="M223.921 200.308H180.601C179.874 200.246 179.195 199.919 178.693 199.39C178.191 198.86 177.901 198.165 177.878 197.436L175.297 165.443C175.268 165.13 175.287 164.815 175.353 164.508H218.675C219.401 164.573 220.078 164.901 220.579 165.429C221.081 165.958 221.372 166.652 221.398 167.38L223.979 199.373C224.007 199.686 223.988 200.001 223.921 200.308Z" fill="#263238"/>
<path opacity="0.5" d="M223.921 200.308H180.601C179.874 200.246 179.195 199.919 178.693 199.39C178.191 198.86 177.901 198.165 177.878 197.436L175.297 165.443C175.268 165.13 175.287 164.815 175.353 164.508H218.675C219.401 164.573 220.078 164.901 220.579 165.429C221.081 165.958 221.372 166.652 221.398 167.38L223.979 199.373C224.007 199.686 223.988 200.001 223.921 200.308Z" fill="white"/>
<path d="M194.768 192.844L203.508 192.887L201.818 208.627L210.403 208.763V210.614L187.279 210.67V208.844L192.85 208.733L194.768 192.844Z" fill="#263238"/>
<path opacity="0.3" d="M203.508 192.887C203.483 193.122 205.445 200.308 205.445 200.308H202.71L203.508 192.887Z" fill="black"/>
<path opacity="0.3" d="M193.869 200.308L194.769 192.844L192.51 200.308H193.869Z" fill="black"/>
<path d="M173.099 211.468H170.097V294.104H173.099V211.468Z" fill="#263238"/>
<path opacity="0.3" d="M173.099 211.468H170.097V294.104H173.099V211.468Z" fill="white"/>
<path d="M151.504 211.468H148.502V294.104H151.504V211.468Z" fill="#263238"/>
<path opacity="0.3" d="M151.504 211.468H148.502V294.104H151.504V211.468Z" fill="white"/>
<path opacity="0.2" d="M148.502 216.698V222.027L151.502 220.69V216.24L148.502 216.698Z" fill="black"/>
<path opacity="0.2" d="M170.097 216.698V222.027L173.097 220.69V216.24L170.097 216.698Z" fill="black"/>
<path d="M237.117 211.468H234.115V294.104H237.117V211.468Z" fill="#263238"/>
<path opacity="0.3" d="M237.117 211.468H234.115V294.104H237.117V211.468Z" fill="white"/>
<path opacity="0.2" d="M234.115 216.698V222.027L237.115 220.69V216.24L234.115 216.698Z" fill="black"/>
<path d="M264.697 211.468H261.695V294.104H264.697V211.468Z" fill="#263238"/>
<path opacity="0.3" d="M264.697 211.468H261.695V294.104H264.697V211.468Z" fill="white"/>
<path opacity="0.2" d="M261.695 216.642V221.971L264.695 220.634V216.184L261.695 216.642Z" fill="black"/>
<path d="M268.442 210.583H144.609V216.698H268.442V210.583Z" fill="#263238"/>
<path opacity="0.3" d="M268.435 210.583H239.388V216.698H268.435V210.583Z" fill="black"/>
<path opacity="0.6" d="M194.768 192.844L203.508 192.887L201.818 208.627L210.403 208.763V210.614L187.279 210.67V208.844L192.85 208.733L194.768 192.844Z" fill="white"/>
<path d="M162.962 197.498C162.145 194.954 157.362 192.509 157.562 190.677C157.692 189.255 157.75 187.828 157.735 186.4H152.975C152.566 186.809 148.494 194.849 150.023 204.319L151.329 210.632H160.916C160.916 210.632 163.769 200.042 162.952 197.498H162.962Z" fill="#7BC043"/>
<path d="M158.034 184.544H152.377V186.896H158.034V184.544Z" fill="#263238"/>
<path d="M148.422 183.386C148.422 183.386 149.066 179.186 152.111 178.954C155.156 178.722 160.801 178.954 160.801 178.954V181.795H158.034V184.539H152.616V182.496C152.616 182.496 151.261 181.549 148.416 183.375L148.422 183.386Z" fill="#263238"/>
<path d="M158.034 183.492C158.034 183.492 158.467 185.856 161.989 186.11L162.125 185.522C161.343 185.254 160.661 184.755 160.169 184.091C159.677 183.426 159.399 182.628 159.371 181.802H158.034V183.502V183.492Z" fill="#263238"/>
<path opacity="0.3" d="M159.328 193.314L149.685 198.154C149.685 198.154 149.636 201.781 149.685 201.732C149.734 201.683 161.241 195.091 161.197 195.054C161.153 195.017 159.322 193.315 159.322 193.315L159.328 193.314Z" fill="white"/>
<path opacity="0.3" d="M149.957 203.83L162.119 196.056C162.119 196.056 162.608 196.749 162.589 196.718C162.57 196.687 150.289 205.309 150.289 205.309L149.957 203.83Z" fill="white"/>
<path d="M31.35 267.916C32.978 265.911 36.128 264.567 39.582 263.924C39.31 264.914 39.514 265.824 40.096 266.047C40.746 266.295 41.625 265.595 42.052 264.481C42.163 264.184 42.2359 263.874 42.269 263.559C45.4232 263.196 48.6182 263.619 51.569 264.791C51.569 264.791 49.291 266.846 46.71 272.243H46.469C44.798 272.262 43.455 273.066 43.469 274.043C43.475 274.755 44.206 275.361 45.252 275.634C45.116 275.981 44.98 276.334 44.843 276.699C42.386 283.346 35.831 278.543 35.887 273.988C35.887 273.988 27.705 272.416 31.35 267.916Z" fill="#7BC043"/>
<path d="M23.272 259.333C21.267 257.167 17.572 255.873 13.585 255.397C13.969 256.505 13.802 257.557 13.158 257.86C12.434 258.194 11.382 257.46 10.812 256.226C10.66 255.898 10.556 255.55 10.503 255.192C6.51099 255.13 2.56799 255.848 0.00299072 257.292C0.00299072 257.292 2.751 259.465 6.103 265.419C6.196 265.413 6.28297 265.4 6.37497 265.394C8.28097 265.289 9.87499 266.106 9.93399 267.22C9.97699 268.037 9.191 268.78 8.021 269.163C8.201 269.547 8.37998 269.937 8.56598 270.345C11.866 277.745 18.977 271.775 18.566 266.588C18.566 266.588 27.782 264.188 23.282 259.328L23.272 259.333Z" fill="#7BC043"/>
<path d="M18.396 257.706C19.25 253.547 22.821 249.206 27.371 245.649C27.724 247.295 28.714 248.471 29.735 248.349C30.874 248.219 31.617 246.535 31.394 244.592C31.3363 244.077 31.207 243.572 31.01 243.092C35.875 240.041 41.26 237.979 45.493 237.843C45.493 237.843 43.729 242.559 44.063 252.382C43.945 252.438 43.828 252.493 43.71 252.555C41.29 253.842 39.941 256.04 40.696 257.455C41.247 258.489 42.769 258.823 44.496 258.421C44.558 259.028 44.632 259.64 44.713 260.278C46.174 271.834 32.978 269.791 29.613 263.113C29.613 263.113 16.491 267.025 18.404 257.703L18.396 257.706Z" fill="#7BC043"/>
<path opacity="0.2" d="M18.396 257.706C19.25 253.547 22.821 249.206 27.371 245.649C27.724 247.295 28.714 248.471 29.735 248.349C30.874 248.219 31.617 246.535 31.394 244.592C31.3363 244.077 31.207 243.572 31.01 243.092C35.875 240.041 41.26 237.979 45.493 237.843C45.493 237.843 43.729 242.559 44.063 252.382C43.945 252.438 43.828 252.493 43.71 252.555C41.29 253.842 39.941 256.04 40.696 257.455C41.247 258.489 42.769 258.823 44.496 258.421C44.558 259.028 44.632 259.64 44.713 260.278C46.174 271.834 32.978 269.791 29.613 263.113C29.613 263.113 16.491 267.025 18.404 257.703L18.396 257.706Z" fill="white"/>
<path d="M38.734 245.68C38.852 245.544 38.92 245.48 38.92 245.48L38.734 245.68Z" fill="#263238"/>
<path d="M27.679 284.111C26.6089 277.946 26.842 271.626 28.3632 265.557C29.8843 259.488 32.6599 253.805 36.511 248.874L36.876 249.159C33.0664 254.039 30.3206 259.662 28.8154 265.666C27.3101 271.671 27.0787 277.924 28.136 284.024L27.678 284.105L27.679 284.111Z" fill="#263238"/>
<path d="M27.308 279.92C27.2847 279.921 27.2616 279.917 27.24 279.908C27.2053 279.896 27.1738 279.877 27.1479 279.851C27.1221 279.825 27.1026 279.794 27.091 279.759C25.531 275.191 20.264 265.344 11.5 260.794C11.4449 260.765 11.4035 260.716 11.3848 260.657C11.366 260.597 11.3715 260.533 11.4 260.478C11.4297 260.424 11.4791 260.383 11.5379 260.365C11.5968 260.346 11.6605 260.351 11.716 260.378C20.431 264.903 25.729 274.564 27.431 279.312C29.131 278.08 39.005 270.956 43.951 267.787C43.9765 267.769 44.0056 267.755 44.0364 267.748C44.0672 267.741 44.0991 267.741 44.1302 267.747C44.1612 267.752 44.1907 267.764 44.217 267.782C44.2433 267.799 44.2657 267.822 44.283 267.849C44.3002 267.875 44.3118 267.905 44.3173 267.936C44.3227 267.967 44.3217 267.999 44.3144 268.029C44.3071 268.06 44.2937 268.089 44.2748 268.114C44.256 268.14 44.2322 268.161 44.205 268.177C38.82 271.625 27.568 279.788 27.456 279.869C27.4166 279.898 27.3688 279.913 27.32 279.912L27.308 279.92Z" fill="#263238"/>
<path d="M41.461 287.973H13.691L13.703 282.885H41.432L41.461 287.973Z" fill="#263238"/>
<path d="M15.703 286.314L20.042 304.362H36.023L39.891 286.314H15.703Z" fill="#263238"/>
<path opacity="0.3" d="M16.099 287.973H39.532L39.105 289.973H16.52L16.099 287.973Z" fill="black"/>
<path d="M17.704 282H15.234C15.2126 282.002 15.1912 281.999 15.171 281.992C15.1507 281.985 15.1322 281.974 15.1164 281.959C15.1007 281.945 15.0881 281.927 15.0796 281.908C15.071 281.888 15.0665 281.867 15.0665 281.846C15.0665 281.824 15.071 281.803 15.0796 281.783C15.0881 281.764 15.1007 281.746 15.1164 281.732C15.1322 281.717 15.1507 281.706 15.171 281.699C15.1912 281.692 15.2126 281.689 15.234 281.691H17.704C17.7253 281.689 17.7468 281.692 17.767 281.699C17.7872 281.706 17.8058 281.717 17.8215 281.732C17.8373 281.746 17.8498 281.764 17.8584 281.783C17.867 281.803 17.8714 281.824 17.8714 281.846C17.8714 281.867 17.867 281.888 17.8584 281.908C17.8498 281.927 17.8373 281.945 17.8215 281.959C17.8058 281.974 17.7872 281.985 17.767 281.992C17.7468 281.999 17.7253 282.002 17.704 282Z" fill="#7BC043"/>
<path d="M25.606 282H18.847C18.8082 281.997 18.7719 281.979 18.7455 281.951C18.7191 281.922 18.7044 281.884 18.7044 281.845C18.7044 281.807 18.7191 281.769 18.7455 281.74C18.7719 281.712 18.8082 281.694 18.847 281.691H25.606C25.6448 281.694 25.681 281.712 25.7075 281.74C25.7339 281.769 25.7485 281.807 25.7485 281.845C25.7485 281.884 25.7339 281.922 25.7075 281.951C25.681 281.979 25.6448 281.997 25.606 282Z" fill="#7BC043"/>
<defs>
<filter id="filter0_d_629_3163" x="296.473" y="148.099" width="29.0515" height="25.975" filterUnits="userSpaceOnUse" color-interpolation-filters="sRGB">
<feFlood flood-opacity="0" result="BackgroundImageFix"/>
<feColorMatrix in="SourceAlpha" type="matrix" values="0 0 0 0 0 0 0 0 0 0 0 0 0 0 0 0 0 0 127 0" result="hardAlpha"/>
<feOffset dy="3"/>
<feGaussianBlur stdDeviation="3"/>
<feColorMatrix type="matrix" values="0 0 0 0 0 0 0 0 0 0 0 0 0 0 0 0 0 0 0.161 0"/>
<feBlend mode="normal" in2="BackgroundImageFix" result="effect1_dropShadow_629_3163"/>
<feBlend mode="normal" in="SourceGraphic" in2="effect1_dropShadow_629_3163" result="shape"/>
</filter>
</defs>
</svg>
