<svg width="24" height="24" viewBox="0 0 24 24" fill="none" xmlns="http://www.w3.org/2000/svg">
<path d="M13 17.88H18.25" stroke="#4F5168" stroke-width="1.5" stroke-linecap="round" stroke-linejoin="round"/>
<path d="M6 17.88H11.25" stroke="#4F5168" stroke-width="1.5" stroke-linecap="round" stroke-linejoin="round"/>
<path d="M9 22H15C20 22 22 20 22 15V9C22 4 20 2 15 2H9C4 2 2 4 2 9V15C2 20 4 22 9 22Z" stroke="#4F5168" stroke-width="1.5" stroke-linecap="round" stroke-linejoin="round"/>
<path d="M12.0325 8.94397C11.9866 8.93633 11.9331 8.93633 11.8873 8.94397C10.8325 8.90576 9.9917 8.04206 9.9917 6.97199C9.9917 5.87899 10.8707 5 11.9637 5C13.0567 5 13.9357 5.88663 13.9357 6.97199C13.928 8.04206 13.0873 8.9134 12.0325 8.94397Z" stroke="#7BC043" stroke-width="1.5" stroke-linecap="round" stroke-linejoin="round"/>
<path d="M9.80828 11.3516C8.73057 12.0701 8.73057 13.2472 9.80828 13.9656C11.0312 14.7835 13.0338 14.7835 14.2567 13.9656C15.3344 13.2472 15.3344 12.0701 14.2567 11.3516C13.0414 10.5414 11.0312 10.5414 9.80828 11.3516Z" stroke="#4F5168" stroke-width="1.5" stroke-linecap="round" stroke-linejoin="round"/>
</svg>
