<svg width="358" height="223" viewBox="0 0 358 223" fill="none" xmlns="http://www.w3.org/2000/svg">
<path d="M97.1126 13.3599C100.071 13.3599 102.908 14.5351 105 16.6269C107.092 18.7188 108.267 21.556 108.267 24.5143V31.887H85.9531V24.5143C85.9531 21.556 87.1283 18.7188 89.2202 16.6269C91.312 14.5351 94.1492 13.3599 97.1076 13.3599H97.1126Z" fill="#7BC043" stroke="#4F5168" stroke-linecap="round" stroke-linejoin="round"/>
<path d="M97.1126 13.3598V1" stroke="#4F5168" stroke-linecap="round" stroke-linejoin="round"/>
<path d="M258.789 13.3599C261.748 13.3599 264.585 14.5351 266.677 16.6269C268.769 18.7188 269.944 21.556 269.944 24.5143V31.887H247.63V24.5143C247.63 23.0491 247.919 21.5982 248.479 20.2445C249.04 18.8909 249.862 17.661 250.899 16.6252C251.935 15.5893 253.165 14.7678 254.519 14.2075C255.873 13.6472 257.324 13.3592 258.789 13.3599Z" fill="#7BC043" stroke="#4F5168" stroke-linecap="round" stroke-linejoin="round"/>
<path d="M258.789 13.3598V1" stroke="#4F5168" stroke-linecap="round" stroke-linejoin="round"/>
<path d="M340.989 29.6821H278.803V105.689H340.989V29.6821Z" fill="white" stroke="#4F5168" stroke-linecap="round" stroke-linejoin="round"/>
<path d="M340.989 29.6821H278.803V105.689H340.989V29.6821Z" fill="white" stroke="#4F5168" stroke-linecap="round" stroke-linejoin="round"/>
<path d="M340.989 29.6821V59.0825C337.272 62.8651 332.842 65.8744 327.956 67.9367C311.825 74.4657 290.882 67.2487 302.895 44.2517C305.407 39.5159 307.675 34.6547 309.69 29.6872L340.989 29.6821Z" fill="white" stroke="#4F5168" stroke-linecap="round" stroke-linejoin="round"/>
<path d="M340.989 77.7452V105.714H335.766C328.293 103.123 320.131 99.12 319.031 93.6608C317.545 86.2379 332.556 80.407 340.989 77.7452Z" fill="white" stroke="#4F5168" stroke-linecap="round" stroke-linejoin="round"/>
<path d="M304.522 105.714H278.803V93.927C289.626 83.4254 306.014 69.5137 308.731 78.5789C311.845 88.9499 305.361 99.5117 304.522 105.714Z" fill="white" stroke="#4F5168" stroke-linecap="round" stroke-linejoin="round"/>
<path d="M295.688 57.2945C295.688 61.8949 286.482 64.8581 278.803 66.5355V39.4203C285.171 43.7796 295.688 51.7901 295.688 57.2945Z" fill="white" stroke="#4F5168" stroke-linecap="round" stroke-linejoin="round"/>
<path d="M317.831 61.0713C322.666 61.0713 326.585 57.4602 326.585 53.0056C326.585 48.551 322.666 44.9398 317.831 44.9398C312.997 44.9398 309.077 48.551 309.077 53.0056C309.077 57.4602 312.997 61.0713 317.831 61.0713Z" fill="white" stroke="#4F5168" stroke-linecap="round" stroke-linejoin="round"/>
<path d="M295.02 73.0696C295.02 74.5762 293.634 75.8117 291.926 75.8117C290.219 75.8117 288.838 74.5863 288.838 73.0696C288.838 71.5528 290.224 70.3224 291.926 70.3224C293.629 70.3224 295.02 71.5629 295.02 73.0696Z" fill="white" stroke="#4F5168" stroke-linecap="round" stroke-linejoin="round"/>
<path d="M322.14 81.3261C322.14 82.073 321.919 82.8032 321.504 83.4243C321.089 84.0454 320.499 84.5295 319.809 84.8153C319.119 85.1012 318.359 85.176 317.627 85.0302C316.894 84.8845 316.221 84.5248 315.693 83.9966C315.165 83.4684 314.805 82.7955 314.659 82.0629C314.514 81.3302 314.588 80.5709 314.874 79.8808C315.16 79.1907 315.644 78.6008 316.265 78.1858C316.886 77.7708 317.617 77.5493 318.363 77.5493C319.365 77.5493 320.326 77.9472 321.034 78.6555C321.742 79.3638 322.14 80.3244 322.14 81.3261Z" fill="white" stroke="#4F5168" stroke-linecap="round" stroke-linejoin="round"/>
<path d="M330.015 91.9683C330.015 92.2407 329.934 92.5069 329.783 92.7333C329.631 92.9597 329.416 93.1361 329.164 93.2401C328.913 93.3441 328.636 93.3711 328.369 93.3176C328.102 93.2641 327.856 93.1325 327.664 92.9395C327.472 92.7466 327.341 92.5009 327.289 92.2336C327.236 91.9664 327.264 91.6895 327.369 91.4382C327.474 91.1868 327.651 90.9722 327.878 90.8216C328.105 90.671 328.372 90.5912 328.644 90.5922C328.825 90.5922 329.003 90.6278 329.17 90.697C329.337 90.7662 329.488 90.8677 329.615 90.9955C329.743 91.1234 329.844 91.2751 329.912 91.442C329.981 91.609 330.016 91.7878 330.015 91.9683Z" fill="white" stroke="#4F5168" stroke-linecap="round" stroke-linejoin="round"/>
<path d="M305.795 44.7459C308.343 42.1982 308.343 38.0675 305.795 35.5197C303.247 32.972 299.117 32.972 296.569 35.5197C294.021 38.0675 294.021 42.1982 296.569 44.7459C299.117 47.2937 303.247 47.2937 305.795 44.7459Z" fill="white" stroke="#4F5168" stroke-linecap="round" stroke-linejoin="round"/>
<path d="M320.704 147.238C323.519 147.238 325.801 141.255 325.801 133.874C325.801 126.493 323.519 120.51 320.704 120.51C317.889 120.51 315.606 126.493 315.606 133.874C315.606 141.255 317.889 147.238 320.704 147.238Z" fill="#7BC043" stroke="#4F5168" stroke-miterlimit="10"/>
<path d="M304.874 125.633C306.466 130.655 309.524 134.145 311.709 133.452C313.894 132.759 314.366 128.134 312.774 123.121C311.182 118.109 308.123 114.584 305.938 115.297C303.754 116.01 303.282 120.615 304.874 125.633Z" fill="#7BC043" stroke="#4F5168" stroke-miterlimit="10"/>
<path d="M342.259 155.862C347.447 154.983 351.345 152.441 350.963 150.186C350.581 147.931 346.061 146.812 340.878 147.675C335.695 148.539 331.798 151.096 332.18 153.351C332.561 155.606 337.076 156.741 342.259 155.862Z" fill="#7BC043" stroke="#4F5168" stroke-miterlimit="10"/>
<path d="M300.077 143.507C304.407 147.801 309.524 149.664 311.508 147.665C313.492 145.666 311.583 140.569 307.254 136.27C302.925 131.971 297.802 130.112 295.819 132.111C293.835 134.11 295.743 139.208 300.077 143.507Z" fill="#7BC043" stroke="#4F5168" stroke-miterlimit="10"/>
<path d="M329.925 131.72C325.736 137.802 324.491 144.205 327.137 146.033C329.784 147.861 335.334 144.411 339.522 138.334C343.711 132.257 344.956 125.849 342.31 124.025C339.663 122.202 334.113 125.643 329.925 131.72Z" fill="#7BC043" stroke="#4F5168" stroke-miterlimit="10"/>
<path d="M320.347 146.57L319.956 187.231" stroke="#4F5168" stroke-miterlimit="10" stroke-linecap="round"/>
<path d="M320.824 128.902L320.347 146.57" stroke="#4F5168" stroke-miterlimit="10" stroke-linecap="round"/>
<path d="M320.789 126.019L320.824 127.375" stroke="#4F5168" stroke-miterlimit="10" stroke-linecap="round"/>
<path d="M327.162 145.164C324.243 151.211 322.536 157.772 322.14 164.475V189.586" stroke="#4F5168" stroke-miterlimit="10" stroke-linecap="round"/>
<path d="M335.911 131.775C332.414 135.83 329.472 140.333 327.163 145.164" stroke="#4F5168" stroke-miterlimit="10" stroke-linecap="round"/>
<path d="M338.664 128.862C338.664 128.862 338.161 129.364 337.267 130.268" stroke="#4F5168" stroke-miterlimit="10" stroke-linecap="round"/>
<path d="M311.192 147.052C314.767 152.072 317.553 157.608 319.453 163.47" stroke="#4F5168" stroke-miterlimit="10" stroke-linecap="round"/>
<path d="M305.331 140.313C307.488 142.374 309.45 144.63 311.192 147.052" stroke="#4F5168" stroke-miterlimit="10" stroke-linecap="round"/>
<path d="M299.068 135.547C300.661 136.443 302.157 137.502 303.533 138.706" stroke="#4F5168" stroke-miterlimit="10" stroke-linecap="round"/>
<path d="M311.408 132.212C314.23 141.096 318.017 154.224 319.785 165.615" stroke="#4F5168" stroke-miterlimit="10" stroke-linecap="round"/>
<path d="M309.685 126.943C310.187 128.45 310.775 130.218 311.408 132.212" stroke="#4F5168" stroke-miterlimit="10" stroke-linecap="round"/>
<path d="M307.922 121.846C307.922 121.846 308.424 123.207 309.213 125.537" stroke="#4F5168" stroke-miterlimit="10" stroke-linecap="round"/>
<path d="M332.441 152.135C328.925 153.471 324.089 157.202 322.396 162.089" stroke="#4F5168" stroke-miterlimit="10" stroke-linecap="round"/>
<path d="M338.955 150.809C336.724 150.92 334.523 151.367 332.426 152.135" stroke="#4F5168" stroke-miterlimit="10" stroke-linecap="round"/>
<path d="M343.173 150.915C343.173 150.915 342.546 150.824 341.511 150.784" stroke="#4F5168" stroke-miterlimit="10" stroke-linecap="round"/>
<path d="M332.089 175.408C336.855 177.633 341.506 177.754 342.47 175.679C343.435 173.605 340.361 170.12 335.595 167.895C330.829 165.67 326.178 165.544 325.209 167.619C324.24 169.693 327.323 173.178 332.089 175.408Z" fill="#7BC043" stroke="#4F5168" stroke-miterlimit="10"/>
<path d="M332.24 169.371C330.345 168.198 328.285 167.316 326.128 166.755C325.632 166.452 325.06 166.297 324.479 166.307C323.898 166.318 323.333 166.494 322.848 166.815C322.2 167.247 322.416 170.471 322.416 170.471V187.231" stroke="#4F5168" stroke-miterlimit="10" stroke-linecap="round"/>
<path d="M335.65 171.853C335.65 171.853 335.188 171.426 334.359 170.803" stroke="#4F5168" stroke-miterlimit="10" stroke-linecap="round"/>
<path d="M297.878 155.862C292.69 154.983 288.797 152.441 289.179 150.186C289.561 147.931 294.076 146.812 299.259 147.675C304.442 148.539 308.344 151.096 307.957 153.351C307.571 155.606 303.056 156.741 297.878 155.862Z" fill="#7BC043" stroke="#4F5168" stroke-miterlimit="10"/>
<path d="M307.576 152.095C308.212 152.332 308.833 152.609 309.434 152.924C311.532 154.025 313.286 155.683 314.505 157.715C315.724 159.747 316.36 162.075 316.345 164.445V186.573" stroke="#4F5168" stroke-miterlimit="10" stroke-linecap="round"/>
<path d="M300.64 150.784C303.006 150.855 305.347 151.297 307.576 152.095" stroke="#4F5168" stroke-miterlimit="10" stroke-linecap="round"/>
<path d="M296.964 150.915C296.964 150.915 297.375 150.854 298.084 150.814" stroke="#4F5168" stroke-miterlimit="10" stroke-linecap="round"/>
<path d="M303.081 171.039C298.526 173.666 293.905 174.188 292.76 172.204C291.615 170.22 294.387 166.484 298.942 163.857C303.498 161.23 308.123 160.708 309.263 162.692C310.403 164.676 307.641 168.412 303.081 171.039Z" fill="#7BC043" stroke="#4F5168" stroke-miterlimit="10"/>
<path d="M301.976 165.364C303.848 163.908 305.938 162.755 308.168 161.949C308.168 161.949 313.818 161.014 315.109 164.666" stroke="#4F5168" stroke-miterlimit="10" stroke-linecap="round"/>
<path d="M299.229 167.81C299.229 167.81 299.51 167.498 300.027 167.011" stroke="#4F5168" stroke-miterlimit="10" stroke-linecap="round"/>
<path d="M314.25 164.882C314.25 164.882 320.91 163.596 320.91 168.106C320.91 172.616 316.184 176.272 314.25 181.43C312.317 186.588 308.665 186.804 306.717 181.646C304.768 176.488 307.576 167.031 314.25 164.882Z" fill="#7BC043" stroke="#4F5168" stroke-miterlimit="10"/>
<path d="M318.765 165.098C318.765 165.098 312.96 167.463 311.232 174.981Z" fill="#7BC043"/>
<path d="M318.765 165.098C318.765 165.098 312.96 167.463 311.232 174.981" stroke="#4F5168" stroke-miterlimit="10"/>
<path d="M318.333 174.981V187.231" stroke="#4F5168" stroke-miterlimit="10" stroke-linecap="round"/>
<path d="M307.661 211.081C306.065 206.01 305.252 200.724 305.25 195.407C305.245 192.187 305.568 188.974 306.215 185.819H333.335C333.984 188.974 334.307 192.186 334.299 195.407C334.299 200.724 333.488 206.009 331.893 211.081H307.661Z" fill="#4F5168"/>
<path d="M334.053 190.299C334.133 191.038 334.189 191.806 334.234 192.539H305.336C305.381 191.786 305.441 191.033 305.522 190.299H334.053Z" fill="#4F5168"/>
<path d="M305.647 201.755C305.557 201.012 305.476 200.248 305.416 199.515H334.159C334.098 200.263 334.018 201.022 333.927 201.755H305.647Z" fill="#4F5168"/>
<path d="M330.814 195.527C330.805 195.761 330.866 195.991 330.989 196.189C331.112 196.388 331.291 196.545 331.504 196.64C331.717 196.736 331.953 196.766 332.183 196.726C332.413 196.686 332.626 196.578 332.794 196.416C332.962 196.255 333.078 196.046 333.127 195.818C333.176 195.59 333.156 195.352 333.069 195.136C332.982 194.919 332.832 194.734 332.638 194.603C332.445 194.473 332.217 194.403 331.984 194.403C331.833 194.399 331.683 194.426 331.543 194.48C331.402 194.535 331.274 194.617 331.165 194.722C331.056 194.826 330.969 194.951 330.909 195.09C330.849 195.228 330.816 195.377 330.814 195.527Z" fill="#4F5168"/>
<path d="M324.968 195.527C324.959 195.761 325.02 195.991 325.143 196.19C325.266 196.388 325.446 196.545 325.659 196.641C325.872 196.736 326.109 196.766 326.339 196.725C326.569 196.685 326.782 196.577 326.95 196.414C327.118 196.252 327.234 196.043 327.282 195.815C327.33 195.586 327.309 195.349 327.221 195.132C327.133 194.916 326.983 194.731 326.789 194.601C326.595 194.471 326.367 194.402 326.133 194.402C325.983 194.4 325.833 194.427 325.693 194.482C325.553 194.537 325.426 194.619 325.317 194.724C325.209 194.828 325.123 194.953 325.063 195.091C325.003 195.229 324.97 195.377 324.968 195.527Z" fill="#4F5168"/>
<path d="M319.127 195.527C319.118 195.761 319.179 195.991 319.302 196.189C319.425 196.388 319.604 196.545 319.817 196.64C320.03 196.736 320.267 196.766 320.496 196.726C320.726 196.686 320.939 196.578 321.107 196.416C321.275 196.255 321.391 196.046 321.44 195.818C321.489 195.59 321.469 195.352 321.382 195.136C321.295 194.919 321.145 194.734 320.952 194.603C320.758 194.473 320.53 194.403 320.297 194.403C320.146 194.399 319.996 194.426 319.856 194.48C319.715 194.535 319.587 194.617 319.478 194.722C319.369 194.826 319.282 194.951 319.222 195.09C319.162 195.228 319.13 195.377 319.127 195.527Z" fill="#4F5168"/>
<path d="M313.271 195.527C313.262 195.761 313.323 195.991 313.446 196.189C313.569 196.388 313.748 196.545 313.961 196.64C314.174 196.736 314.411 196.766 314.64 196.726C314.87 196.686 315.083 196.578 315.251 196.416C315.419 196.255 315.535 196.046 315.584 195.818C315.633 195.59 315.613 195.352 315.526 195.136C315.439 194.919 315.289 194.734 315.096 194.603C314.902 194.473 314.674 194.403 314.441 194.403C314.29 194.399 314.14 194.426 314 194.48C313.859 194.535 313.731 194.617 313.622 194.722C313.513 194.826 313.426 194.951 313.366 195.09C313.306 195.228 313.274 195.377 313.271 195.527Z" fill="#4F5168"/>
<path d="M307.425 195.527C307.416 195.761 307.477 195.991 307.6 196.19C307.723 196.388 307.903 196.545 308.116 196.641C308.33 196.736 308.566 196.766 308.796 196.725C309.026 196.685 309.239 196.577 309.407 196.414C309.575 196.252 309.691 196.043 309.739 195.815C309.788 195.586 309.766 195.349 309.679 195.132C309.591 194.916 309.44 194.731 309.246 194.601C309.052 194.471 308.824 194.402 308.59 194.402C308.44 194.4 308.29 194.427 308.15 194.482C308.01 194.537 307.883 194.619 307.775 194.724C307.666 194.828 307.58 194.953 307.52 195.091C307.46 195.229 307.428 195.377 307.425 195.527Z" fill="#4F5168"/>
<path d="M260.547 99.1452L259.653 96.0515C259.653 96.0515 259.352 93.4549 258.855 92.8573C258.357 92.2596 256.454 91.2602 255.756 90.5621C255.058 89.864 254.46 89.859 254.36 90.4617C254.259 91.0644 254.46 91.9684 254.757 92.1592C255.053 92.3501 256.057 93.2541 256.057 93.2541C256.057 93.2541 253.832 91.8629 253.23 91.3607C252.627 90.8584 250.467 89.7586 250.166 90.1603C249.865 90.5621 250.267 91.4561 250.267 91.4561C250.267 91.4561 248.971 91.1748 248.971 92.0738C248.952 92.3093 248.998 92.5455 249.103 92.7569C249.208 92.9684 249.369 93.1472 249.569 93.2741C249.569 93.2741 248.715 93.5604 248.916 94.2786C249.117 94.9968 250.282 95.5342 250.282 95.5342C250.282 95.5342 249.137 95.72 249.734 96.5386C250.332 97.3573 252.863 98.9845 254.159 99.5871C255.104 100.005 256.072 100.37 257.057 100.682L260.251 102.982L260.547 99.1452Z" fill="white" stroke="#4F5168" stroke-linecap="round" stroke-linejoin="round"/>
<path d="M250.267 91.4561C250.267 91.4561 252.165 92.8573 252.562 93.254C253.03 93.6366 253.535 93.973 254.068 94.2585" stroke="#4F5168" stroke-linecap="round" stroke-linejoin="round"/>
<path d="M249.629 93.3645L252.828 95.2579L253.285 95.5693" stroke="#4F5168" stroke-linecap="round" stroke-linejoin="round"/>
<path d="M256.057 93.254L256.454 94.9516" stroke="#4F5168" stroke-linecap="round" stroke-linejoin="round"/>
<path d="M269.135 103.841L260.552 99.1451L259.051 103.238L267.94 111.329L269.135 103.841Z" fill="#7BC043" stroke="#4F5168" stroke-linecap="round" stroke-linejoin="round"/>
<path d="M275.659 83.325C275.659 83.325 268.086 91.1045 267.398 95.494C266.709 99.8835 266.298 122.413 266.298 122.413C266.298 122.413 271.571 123.292 272.073 123.292H275.262C275.262 123.292 273.967 103.248 274.866 96.3679C275.765 89.4874 279.049 83.31 279.049 83.31C277.948 82.9455 276.757 82.9508 275.659 83.325Z" fill="#7BC043" stroke="#4F5168" stroke-linecap="round" stroke-linejoin="round"/>
<path d="M270.13 121.042L270.632 134.462C270.632 134.462 267.619 144.004 269.793 154.425C271.105 160.668 271.89 167.01 272.139 173.384C272.139 173.384 273.143 180.762 273.143 184.288C273.143 187.813 271.968 201.901 271.968 201.901C271.968 201.901 270.793 203.578 269.457 205.256C268.121 206.933 264.761 207.943 264.254 209.273C263.746 210.604 266.263 210.112 268.271 210.112C270.504 210.009 272.708 209.557 274.8 208.771C275.805 208.269 277.984 208.6 278.492 208.269C278.999 207.937 279.662 205.924 279.496 204.412C279.33 202.9 280.837 189.651 281.847 184.448C282.856 179.245 281.344 169.186 281.344 169.186C281.344 169.186 284.358 142.01 284.528 140.328C284.699 138.645 286.537 130.936 286.206 128.083C285.874 125.231 285.538 120.701 285.538 120.048C285.538 119.395 270.13 121.042 270.13 121.042Z" fill="#4F5168" stroke="#4F5168" stroke-linecap="round" stroke-linejoin="round"/>
<path d="M277.678 136.476C277.678 136.476 276.001 153.757 276.674 161.808C277.347 169.859 278.522 178.919 279.361 181.098C280.199 183.278 281.204 194.689 281.204 197.878C281.204 201.067 281.375 206.416 281.375 206.416C281.375 206.416 278.361 209.429 276.171 210.434C273.982 211.438 273.158 212.277 274.328 212.779C275.498 213.281 277.683 213.783 281.359 213.281C285.036 212.779 288.235 212.779 288.737 211.433C289.239 210.087 289.074 206.566 289.074 206.566C289.074 206.566 289.912 190.465 289.912 182.746C289.912 175.027 287.562 166.137 287.562 166.137L289.571 151.713C289.571 151.713 293.589 143.994 293.764 136.782C293.94 129.57 289.907 121.183 289.571 120.676C289.234 120.168 275.147 121.68 275.147 121.68" fill="#4F5168"/>
<path d="M277.678 136.476C277.678 136.476 276.001 153.757 276.674 161.808C277.347 169.859 278.522 178.919 279.361 181.098C280.199 183.278 281.204 194.689 281.204 197.878C281.204 201.067 281.375 206.416 281.375 206.416C281.375 206.416 278.361 209.429 276.171 210.434C273.982 211.438 273.158 212.277 274.328 212.779C275.498 213.281 277.683 213.783 281.359 213.281C285.036 212.779 288.235 212.779 288.737 211.433C289.239 210.087 289.074 206.566 289.074 206.566C289.074 206.566 289.912 190.465 289.912 182.746C289.912 175.027 287.562 166.137 287.562 166.137L289.571 151.713C289.571 151.713 293.589 143.994 293.764 136.782C293.94 129.57 289.907 121.183 289.571 120.676C289.234 120.168 275.147 121.68 275.147 121.68" stroke="#4F5168" stroke-linecap="round" stroke-linejoin="round"/>
<path d="M272.977 135.973C273.212 136.67 273.586 137.313 274.076 137.861C274.567 138.409 275.163 138.852 275.83 139.163" stroke="white" stroke-linecap="round" stroke-linejoin="round"/>
<path d="M279.521 204.417C279.519 204.375 279.519 204.333 279.521 204.291C277.312 205.295 274.812 205.459 272.49 204.753V204.08C272.4 203.338 272.232 202.608 271.988 201.901C271.988 201.901 270.813 203.578 269.477 205.256C268.141 206.933 264.781 207.943 264.274 209.273C263.766 210.604 266.283 210.112 268.292 210.112C270.525 210.01 272.728 209.557 274.82 208.771C275.825 208.269 278.005 208.6 278.512 208.269C279.019 207.938 279.687 205.929 279.521 204.417Z" fill="white" stroke="#4F5168" stroke-linecap="round" stroke-linejoin="round"/>
<path d="M288.747 211.463C289.134 210.428 289.124 208.108 289.099 207.094C287.276 207.564 285.421 207.9 283.549 208.098L283.047 206.923C282.545 205.748 281.369 206.421 281.369 206.421C281.369 206.421 278.356 209.434 276.166 210.439C273.977 211.443 273.153 212.282 274.323 212.784C275.493 213.286 277.678 213.788 281.354 213.286C285.031 212.784 288.245 212.804 288.747 211.463Z" fill="white" stroke="#4F5168" stroke-linecap="round" stroke-linejoin="round"/>
<path d="M275.463 85.5197C275.463 85.5197 268.181 94.3941 267.985 96.4884C267.789 98.5826 269.577 122.017 269.879 122.212C271.625 122.779 273.432 123.142 275.262 123.292C276.659 123.292 278.351 123.091 278.351 123.091C278.351 123.091 277.558 99.9587 278.155 95.0721C278.753 90.1854 282.741 85.801 283.539 83.7067C284.338 81.6124 281.144 81.512 280.25 81.8133C279.356 82.1146 275.463 85.5197 275.463 85.5197Z" fill="white" stroke="#4F5168" stroke-linecap="round" stroke-linejoin="round"/>
<path d="M271.671 59.3938C271.671 59.3938 268.382 63.9842 268.583 65.2799C268.784 66.5757 268.98 67.5701 268.583 68.2682C268.186 68.9663 265.991 69.6644 266.187 70.7793C266.383 71.8943 268.196 72.7882 268.196 72.7882C268.196 72.7882 269.201 78.373 270.29 78.9706C271.38 79.5683 274.278 78.7697 274.278 78.7697L274.976 83.9577C274.976 83.9577 272.189 88.2417 274.082 88.3422C275.976 88.4426 284.353 81.6626 284.353 81.6626L283.554 78.6492C283.554 78.6492 285.347 74.6615 285.448 70.6739C285.548 66.6862 281.761 60.102 278.768 58.7058C275.775 57.3096 273.469 58.0981 271.671 59.3938Z" fill="white" stroke="#4F5168" stroke-linecap="round" stroke-linejoin="round"/>
<path d="M274.263 78.7396L276.955 78.142L274.765 81.6324L274.263 78.7396Z" fill="#4F5168" stroke="#4F5168" stroke-linecap="round" stroke-linejoin="round"/>
<path d="M269.879 72.8586C269.879 72.8586 271.571 73.4563 272.967 71.5629" stroke="#4F5168" stroke-linecap="round" stroke-linejoin="round"/>
<path d="M272.073 67.5701C272.073 68.1226 271.827 68.5746 271.526 68.5746C271.225 68.5746 270.973 68.1276 270.973 67.5701C270.973 67.0127 271.219 66.5657 271.526 66.5657C271.832 66.5657 272.073 67.0428 272.073 67.5701Z" fill="#4F5168"/>
<path d="M270.275 65.1796C270.275 65.1796 271.973 63.7834 272.872 65.4809" stroke="#4F5168" stroke-linecap="round" stroke-linejoin="round"/>
<path d="M272.47 59.5094C272.47 59.5094 275.062 63.497 276.96 65.9931C278.858 68.4892 280.847 71.8742 280.25 73.6721C279.652 75.4701 277.558 74.767 278.155 75.9623C278.753 77.1576 282.243 78.9757 284.438 78.7547C286.633 78.5337 288.823 75.9623 290.52 73.4713C292.218 70.9802 294.709 66.3899 291.715 60.8051C288.722 55.2203 284.438 52.6289 280.164 52.433C275.89 52.2371 268.698 53.7287 268 56.717C267.302 59.7052 270.095 61.905 270.095 61.905L272.47 59.5094Z" fill="#4F5168" stroke="#4F5168" stroke-linecap="round" stroke-linejoin="round"/>
<path d="M279.551 84.6208C279.551 84.6208 271.571 96.0917 271.174 99.1854C270.778 102.279 273.068 123.915 273.068 123.915C276.446 124.318 279.86 124.318 283.238 123.915C286.655 123.341 289.977 122.3 293.112 120.821C293.112 120.821 290.319 109.16 290.319 107.362C290.319 105.564 291.017 93.2993 289.224 89.412C287.862 86.662 286.225 84.0572 284.338 81.6376C284.04 81.5864 283.74 81.5529 283.439 81.5371C283.137 81.5321 281.244 82.8278 279.551 84.6208Z" fill="#7BC043" stroke="#4F5168" stroke-linecap="round" stroke-linejoin="round"/>
<path d="M261.301 102.073L258.709 100.692C258.326 99.4973 257.859 98.3309 257.313 97.2015C256.811 96.4029 255.419 96.6038 254.802 96.6993C254.184 96.7947 252.406 96.2975 251.286 95.8003C250.166 95.3031 249.689 95.9007 250.091 96.4984C250.466 96.9833 250.902 97.4187 251.387 97.7941C251.387 97.7941 246.801 97.995 246.5 97.995C246.199 97.995 244.406 97.4928 244.807 98.7935C245.209 100.094 248.594 102.379 250.292 102.681C251.989 102.982 256.374 102.781 256.374 102.781L258.965 104.79L261.301 102.073Z" fill="white" stroke="#4F5168" stroke-linecap="round" stroke-linejoin="round"/>
<path d="M251.432 97.7841L253.923 98.5826L255.219 98.9794" stroke="#4F5168" stroke-linecap="round" stroke-linejoin="round"/>
<path d="M245.023 98.1809C245.023 98.1809 247.148 99.547 247.605 99.773C248.062 99.999 251.472 100.23 251.472 100.23" stroke="#4F5168" stroke-linecap="round" stroke-linejoin="round"/>
<path d="M245.802 100.049C245.802 100.049 249.317 101.415 249.669 101.415C250.021 101.415 251.718 101.34 251.718 101.34" stroke="#4F5168" stroke-linecap="round" stroke-linejoin="round"/>
<path d="M280.25 91.1045L273.469 108.18L261.301 102.098L257.815 106.483C257.815 106.483 272.174 117.532 273.269 118.034C274.363 118.536 276.357 118.732 276.759 118.431C277.161 118.129 288.124 99.783 288.124 99.783" fill="#7BC043"/>
<path d="M280.25 91.1045L273.469 108.18L261.301 102.098L257.815 106.483C257.815 106.483 272.174 117.532 273.269 118.034C274.363 118.536 276.357 118.732 276.759 118.431C277.161 118.129 288.124 99.783 288.124 99.783" stroke="#4F5168" stroke-linecap="round" stroke-linejoin="round"/>
<path d="M277.397 139.836C277.397 139.836 276.392 158.97 277.397 166.328C278.401 173.686 280.194 184.73 280.194 184.73" stroke="white" stroke-linecap="round" stroke-linejoin="round"/>
<path d="M209.225 123.091C209.225 123.091 208.014 144.536 207.788 148.549C207.562 152.562 208.019 173.193 209.385 175.273C210.751 177.352 212.399 197.692 212.399 197.692C212.399 197.692 211.183 198.134 211.143 198.877C211.103 199.621 211.143 201.7 211.143 201.7C211.143 201.7 207.1 204.964 204.82 205.858C202.54 206.752 202.635 207.787 203.951 208.083C205.267 208.379 208.943 209.123 211.645 208.53C214.347 207.937 217.105 206.597 218.305 206.3C219.505 206.004 221.127 206.3 221.921 205.411C222.714 204.522 222.283 201.7 222.283 201.7C222.283 201.7 222.785 200.957 222.328 198.285C221.871 195.613 221.368 194.267 221.409 193.534C221.449 192.8 221.323 168.889 221.323 168.889L221.368 142.015C221.368 142.015 223.583 168.292 224.106 169.638C224.628 170.984 228.49 191.761 228.726 192.8C228.962 193.84 229.017 198.144 229.017 198.144C229.017 198.144 227.882 199.776 227.857 200.223C227.832 200.67 228.39 203.935 228.39 203.935C228.39 203.935 224.738 208.093 222.75 209.133C220.761 210.172 223.051 211.644 224.974 211.805C226.898 211.965 229.113 212.101 231.845 211.061C234.577 210.022 238.203 206.31 238.997 205.421C239.79 204.532 239.268 203.191 238.997 202.453C238.725 201.715 238.329 201.117 238.494 200.52C239.094 198.178 239.527 195.796 239.79 193.393C239.911 191.314 240.021 189.375 240.021 189.375C240.021 189.375 240.257 177.352 239.519 172.299C238.781 167.247 237.063 158.046 237.063 158.046C237.063 158.046 235.677 135.476 235.883 134.442C236.089 133.407 236.922 129.861 236.621 126.722C236.482 125.073 236.227 123.435 235.858 121.821L209.225 123.091Z" fill="#4F5168" stroke="#4F5168" stroke-linecap="round" stroke-linejoin="round"/>
<path d="M220.746 81.6074C220.746 81.6074 208.958 85.4394 208.938 86.3283C208.918 87.2173 206.036 106.091 206.036 106.091L191.632 115.935C191.632 115.935 193.666 117.311 194.032 118.591L194.394 119.867L209.461 115.041C209.461 115.041 208.702 122.514 209.084 123.101C209.466 123.689 211.711 124.282 211.711 124.282C211.711 124.282 225.165 125.07 229.595 124.874C234.025 124.678 235.898 124.372 236.209 123.594C236.521 122.815 236.711 123.091 236.742 121.921C236.772 120.751 244.843 85.1481 244.853 84.5555C244.845 84.1716 244.736 83.7965 244.537 83.4684C244.338 83.1402 244.055 82.8707 243.718 82.6872C242.939 82.2955 232.483 79.2469 232.483 79.2469L220.746 81.6074Z" fill="white" stroke="#4F5168" stroke-linecap="round" stroke-linejoin="round"/>
<path d="M218.882 85.8261L219.942 91.0844L214.86 116.452L216.638 123.548L221.971 115.809L221.881 90.8685L226.099 85.0627L224.236 81.7129L218.882 85.8261Z" fill="#7BC043" stroke="#4F5168" stroke-linecap="round" stroke-linejoin="round"/>
<path d="M215.261 114.443L220.525 117.903L221.971 115.809L221.966 114.639L216.01 110.726L215.261 114.443Z" fill="#4F5168"/>
<path d="M218.27 99.4364L217.466 103.444L221.941 107.472L221.926 102.726L218.27 99.4364Z" fill="#4F5168"/>
<path d="M219.274 87.7646L219.942 91.0844L219.601 92.7819L221.896 94.836L221.886 90.8684L222.222 90.4064L219.274 87.7646Z" fill="#4F5168"/>
<path d="M211.5 95.0067L211.746 92.7065" stroke="#4F5168" stroke-linecap="round" stroke-linejoin="round"/>
<path d="M209.506 113.554L211.223 97.5631" stroke="#4F5168" stroke-linecap="round" stroke-linejoin="round"/>
<path d="M220.299 88.6034L217.11 81.4968L221.298 78.8451L220.299 88.6034Z" fill="white" stroke="#4F5168" stroke-linecap="round" stroke-linejoin="round"/>
<path d="M217.11 81.4969L215.899 87.2977L218.882 85.8261L217.11 81.4969Z" fill="white" stroke="#4F5168" stroke-linecap="round" stroke-linejoin="round"/>
<path d="M220.65 54.8287C220.65 54.8287 217.29 66.179 217.049 70.8999C216.808 75.6208 218.25 77.6549 219.455 78.0617L220.525 78.4635L220.299 88.5984L223.925 83.4656L224.236 81.7078L231.267 74.8173L232.854 70.3625C232.854 70.3625 235.546 70.8999 236.41 68.4691C237.274 66.0384 236.224 64.6874 236.224 64.6874C236.224 64.6874 239.82 60.9056 238.575 56.3102C237.329 51.7149 234.055 47.1245 227.837 47.1245C221.62 47.1245 217.361 50.9113 220.65 54.8287Z" fill="white" stroke="#4F5168" stroke-linecap="round" stroke-linejoin="round"/>
<path d="M238.585 56.3152C237.334 51.7249 234.065 47.1295 227.847 47.1295C221.63 47.1295 217.361 50.9113 220.65 54.8286C220.65 54.8286 222.775 56.5864 224.266 56.3353C225.758 56.0842 226.727 54.9843 229.263 56.3353C231.8 57.6863 232.046 58.7661 231.197 60.5239C230.348 62.2817 230.464 63.0903 230.851 63.7683C230.901 63.8508 230.946 63.9364 230.986 64.0244L228.55 70.1164C228.55 70.1164 227.777 68.4942 224.563 67.1432C221.348 65.7923 217.531 67.8213 217.531 67.8213C215.02 78.7397 220.545 78.4885 220.545 78.4885C220.545 78.4885 227.074 77.2732 228.987 75.5204C230.901 73.7676 231.217 72.5472 231.393 70.6538C231.498 69.5338 231.493 67.0277 231.468 65.1795C231.644 65.6818 231.765 66.0635 231.765 66.0635C232.17 65.2906 232.862 64.708 233.693 64.4413C234.551 64.2113 235.464 64.308 236.254 64.7125C236.254 64.7125 239.83 60.9106 238.585 56.3152Z" fill="#4F5168" stroke="#4F5168" stroke-linecap="round" stroke-linejoin="round"/>
<path d="M223.202 60.6394L222.046 64.0144C222.046 64.0144 218.209 66.3146 219.033 66.5807C219.857 66.8469 222.549 66.0434 222.549 66.0434" stroke="#4F5168" stroke-linecap="round" stroke-linejoin="round"/>
<path d="M218.963 69.8251C218.963 69.8251 220.55 71.4473 223.563 69.4183" stroke="white" stroke-linecap="round" stroke-linejoin="round"/>
<path d="M225.818 63.6326C225.728 64.0997 225.406 64.4412 225.105 64.386C224.804 64.3307 224.603 63.9139 224.713 63.4418C224.824 62.9697 225.125 62.6332 225.432 62.6834C225.738 62.7337 225.909 63.1605 225.818 63.6326Z" fill="#4F5168"/>
<path d="M221.052 62.9647C220.962 63.4368 220.64 63.7783 220.334 63.7231C220.028 63.6678 219.832 63.246 219.947 62.7789C220.063 62.3118 220.354 61.9703 220.66 62.0205C220.967 62.0707 221.142 62.5228 221.052 62.9647Z" fill="#4F5168"/>
<path d="M219.962 60.1523C220.346 59.9707 220.766 59.8766 221.19 59.8766C221.615 59.8766 222.034 59.9707 222.418 60.1523" stroke="#4F5168" stroke-linecap="round" stroke-linejoin="round"/>
<path d="M225.07 60.4837C225.592 60.4492 226.115 60.5397 226.595 60.7475C227.076 60.9554 227.5 61.2747 227.832 61.679" stroke="#4F5168" stroke-linecap="round" stroke-linejoin="round"/>
<path d="M223.925 83.4706L225.135 87.4934L233.894 78.5488L231.277 74.8223L224.236 81.7128L223.925 83.4706Z" fill="white" stroke="#4F5168" stroke-linecap="round" stroke-linejoin="round"/>
<path d="M199.06 123.292C199.06 123.292 197.176 122.288 198.025 122.162C198.874 122.037 200.35 122.589 200.35 122.589C200.35 122.589 198.542 121.243 199.461 121.313C200.38 121.384 201.837 122.519 201.837 122.519C201.837 122.519 201.37 121.313 202.279 121.67C202.807 121.866 203.282 122.181 203.67 122.589C203.67 122.589 202.666 123.789 201.802 123.93C200.938 124.071 201.159 124.211 200.601 124C200.044 123.789 199.06 123.292 199.06 123.292Z" fill="white" stroke="#4F5168" stroke-linecap="round" stroke-linejoin="round"/>
<path d="M211.987 116.994C211.987 116.994 207.155 116.994 206.462 117.577C205.769 118.159 204.795 119.661 204.453 119.892C204.112 120.123 200.275 120.244 200.375 121.052C200.476 121.861 202.786 121.976 202.786 121.976L201.104 123.714C201.104 123.714 197.543 122.443 197.297 123.137C197.051 123.83 201.068 125.336 201.993 125.336C202.917 125.336 204.79 124.759 205.142 124.412C205.493 124.066 209.31 120.6 209.31 120.6C209.476 120.982 212.248 120.339 212.364 119.932C212.479 119.525 211.987 116.994 211.987 116.994Z" fill="white" stroke="#4F5168" stroke-linecap="round" stroke-linejoin="round"/>
<path d="M202.761 121.976C203.749 122.079 204.743 122.099 205.734 122.037C206.583 121.896 207.602 120.696 207.602 120.696" stroke="#4F5168" stroke-linecap="round" stroke-linejoin="round"/>
<path d="M235.506 89.9544L230.856 108.833L211.987 116.994L212.489 121.128C212.489 121.128 228.701 119.279 232.654 118.295C236.606 117.311 241.493 114.558 242.131 112.394C242.768 110.229 245.998 87.1017 245.937 85.3339C245.877 83.5661 245.686 83.3652 244.933 82.873C244.18 82.3808 238.379 81.301 238.379 81.301" fill="white"/>
<path d="M235.506 89.9544L230.856 108.833L211.987 116.994L212.489 121.128C212.489 121.128 228.701 119.279 232.654 118.295C236.606 117.311 241.493 114.558 242.131 112.394C242.768 110.229 245.998 87.1017 245.937 85.3339C245.877 83.5661 245.686 83.3652 244.933 82.873C244.18 82.3808 238.379 81.301 238.379 81.301" stroke="#4F5168" stroke-linecap="round" stroke-linejoin="round"/>
<path d="M214.865 115.915L215.553 120.143" stroke="#4F5168" stroke-linecap="round" stroke-linejoin="round"/>
<path d="M193.525 114.754C193.959 114.825 194.374 114.98 194.748 115.21C195.122 115.441 195.446 115.743 195.703 116.1C195.96 116.456 196.145 116.859 196.246 117.287C196.347 117.715 196.363 118.158 196.292 118.591" stroke="#4F5168" stroke-linecap="round" stroke-linejoin="round"/>
<path d="M191.632 115.924L188.975 117.205C188.256 117.004 187.524 116.849 186.785 116.743C186.323 116.743 185.73 117.321 184.354 116.743C182.978 116.166 181.843 115.352 181.813 116.397C181.795 116.84 181.914 117.278 182.154 117.651C182.394 118.024 182.743 118.314 183.154 118.481C183.847 118.712 184.661 119.058 184.661 119.058L180.276 123.463C180.276 123.463 178.026 125.663 178.594 126.009C179.161 126.356 184.289 125.201 185.123 124.965C185.956 124.729 190.612 122.88 191.33 121.951C192.048 121.022 192.405 120.445 192.405 120.445L194.414 119.852C194.414 119.852 193.887 116.959 191.632 115.924Z" stroke="#4F5168" stroke-linecap="round" stroke-linejoin="round"/>
<path d="M189.708 120.681C189.708 120.681 187.403 120.334 186.464 120.796C185.525 121.258 184.204 123.347 184.204 123.347C184.204 123.347 181.19 124.272 180.462 124.965" stroke="#4F5168" stroke-linecap="round" stroke-linejoin="round"/>
<path d="M134.262 129.404H121.179V134.311H134.262V129.404Z" fill="white" stroke="#4F5168" stroke-linecap="round" stroke-linejoin="round"/>
<path d="M153.041 92.1039H102.401C101.255 92.1039 100.327 93.0325 100.327 94.1781V129.615C100.327 130.761 101.255 131.689 102.401 131.689H153.041C154.186 131.689 155.115 130.761 155.115 129.615V94.1781C155.115 93.0325 154.186 92.1039 153.041 92.1039Z" fill="#4F5168" stroke="#4F5168" stroke-linecap="round" stroke-linejoin="round"/>
<path d="M100.327 125.301V129.6C100.327 130.15 100.545 130.678 100.934 131.067C101.323 131.456 101.851 131.674 102.401 131.674H153.041C153.591 131.674 154.118 131.456 154.507 131.067C154.896 130.678 155.115 130.15 155.115 129.6V125.301H100.327Z" fill="white" stroke="#4F5168" stroke-linecap="round" stroke-linejoin="round"/>
<path d="M190.341 92.2998L173.526 92.4354C173.526 92.4354 172.416 92.2998 172.14 93.1335C172.14 93.1335 169.222 100.496 169.082 103.133C168.941 105.77 169.639 105.358 168.529 108.828C167.419 112.298 164.22 120.5 162.412 127.169C159.986 136.129 159.354 145.646 159.203 154.892C159.178 156.399 158.289 169.151 160.599 169.151C162.518 169.151 180.186 171.496 180.417 168.086C181.266 154.496 178.81 141.217 183.531 128.003C185.364 122.87 187.468 117.456 189.02 112.078C190.572 106.699 190.848 101.129 191.868 95.6296C192.566 91.883 190.341 92.2998 190.341 92.2998Z" fill="#4F5168" stroke="#4F5168" stroke-miterlimit="10"/>
<path d="M191.983 93.9622C191.817 92.0236 190.341 92.2998 190.341 92.2998L173.526 92.4354C173.526 92.4354 172.416 92.2998 172.14 93.1335C172.14 93.1335 169.222 100.496 169.082 103.133C169.047 103.831 169.068 104.532 169.142 105.227L169.498 105.775C169.498 105.775 170.056 110.636 176.726 110.912C183.395 111.189 187.142 108.135 188.548 105.212C189.954 102.289 190.492 97.5732 191.607 94.7909C191.718 94.5084 191.844 94.2318 191.983 93.9622Z" fill="#BABABA" stroke="#4F5168" stroke-linecap="round" stroke-linejoin="round"/>
<path d="M188.086 99.3862C186.961 103.449 187.639 104.574 186.509 111.565C185.379 118.556 181.326 126.446 179.744 133.663C178.162 140.88 178.845 166.358 179.071 167.488C179.158 168.087 179.19 168.692 179.166 169.296C179.925 169.015 180.382 168.623 180.417 168.091C181.266 154.501 178.81 141.222 183.531 128.008C185.364 122.875 187.468 117.461 189.02 112.082C190.572 106.704 190.848 101.134 191.868 95.6346C192.295 93.3344 191.622 92.6212 191.034 92.3801V92.4052C189.761 94.5989 188.771 96.9444 188.086 99.3862Z" fill="#BABABA" stroke="#4F5168" stroke-linecap="round" stroke-linejoin="round"/>
<path d="M155.622 201.981L155.506 201.891V186.196H157.761V176.277H149.419V186.196H151.674V202.142L131.721 208.5V210.082C131.721 210.56 131.911 211.019 132.249 211.357C132.587 211.695 133.046 211.885 133.524 211.885C134.002 211.885 134.461 211.695 134.799 211.357C135.137 211.019 135.327 210.56 135.327 210.082V209.856L152.011 207.917V210.308C152.034 210.711 152.21 211.091 152.504 211.369C152.797 211.646 153.186 211.801 153.59 211.801C153.995 211.801 154.383 211.646 154.677 211.369C154.971 211.091 155.147 210.711 155.17 210.308V207.837L172.532 209.846V210.072C172.532 210.55 172.722 211.009 173.06 211.347C173.398 211.685 173.857 211.875 174.335 211.875C174.813 211.875 175.272 211.685 175.61 211.347C175.948 211.009 176.138 210.55 176.138 210.072V208.49L155.622 201.981Z" fill="#4F5168" stroke="#4F5168" stroke-miterlimit="10"/>
<path d="M179.689 166.594H129.582C128.472 166.594 127.573 167.494 127.573 168.603V176.091C127.573 177.201 128.472 178.1 129.582 178.1H179.689C180.798 178.1 181.698 177.201 181.698 176.091V168.603C181.698 167.494 180.798 166.594 179.689 166.594Z" fill="#4F5168" stroke="#4F5168" stroke-miterlimit="10"/>
<path d="M105.59 211.086H103.345L101.884 145.551H107.559L105.59 211.086Z" fill="#4F5168" stroke="#4F5168" stroke-miterlimit="10"/>
<path d="M216.728 211.086H214.478L213.016 145.551H218.692L216.728 211.086Z" fill="#4F5168" stroke="#4F5168" stroke-miterlimit="10"/>
<path d="M90.3175 135.416L92.251 213.407H94.5763L96.5099 148.74H227.777L229.459 213.407H232.98L233.738 135.416H90.3175Z" fill="white" stroke="#4F5168" stroke-linecap="round" stroke-linejoin="round"/>
<path d="M233.633 137.289H90.3827V139.449H233.633V137.289Z" fill="#4F5168" stroke="#4F5168" stroke-miterlimit="10"/>
<path d="M234.743 134.135H87.294V137.545H234.743V134.135Z" fill="white" stroke="#4F5168" stroke-linecap="round" stroke-linejoin="round"/>
<path d="M355.267 207.591H2.78938" stroke="#4F5168" stroke-linecap="round" stroke-linejoin="round"/>
<path d="M78.0581 136.154C78.0581 136.154 78.495 139.168 78.8918 140.097C79.2885 141.026 79.6853 142.337 79.158 143.261C78.6306 144.185 74.3918 146.073 74.3918 146.073L74.2763 134.296L77.8522 133.728L78.0581 136.154Z" fill="white" stroke="#4F5168" stroke-linecap="round" stroke-linejoin="round"/>
<path d="M77.0034 138.947C77.0034 138.947 76.8879 140.227 76.6267 141.679C76.3656 143.13 76.3103 144.808 74.7283 144.692" fill="white"/>
<path d="M77.0034 138.947C77.0034 138.947 76.8879 140.227 76.6267 141.679C76.3656 143.13 76.3103 144.808 74.7283 144.692" stroke="#4F5168" stroke-linecap="round" stroke-linejoin="round"/>
<path d="M73.5933 84.0582L76.23 112.936L78.0782 134.823L73.7289 134.954L71.4839 115.437L73.5933 84.0582Z" fill="white" stroke="#4F5168" stroke-linecap="round" stroke-linejoin="round"/>
<path d="M45.4385 118.044C45.4385 118.044 44.1628 129.304 44.434 130.75C44.7052 132.197 45.5791 164.681 45.5791 164.681C45.5791 164.681 43.6505 176.096 43.7208 178.186C43.7912 180.275 44.4089 203.272 44.4089 203.272C44.4089 203.272 43.1031 207.611 42.9022 208.575C42.7013 209.54 42.9575 210.991 43.5903 211.312C44.2231 211.634 48.3815 212.116 50.1594 211.815C51.9373 211.513 54.0466 211.172 54.4635 208.917C54.8803 206.662 53.5695 203.453 53.7704 202.488C54.0243 201.214 54.1921 199.923 54.2726 198.626L54.363 196.537C54.363 196.537 57.6677 175.313 57.6978 174.67C57.728 174.027 59.7067 153.923 59.7067 153.923C59.7067 153.923 59.4757 182.229 59.2899 186.728C59.1041 191.228 58.406 196.216 58.3808 196.858C58.3557 197.501 57.6978 205.396 57.8334 206.024C57.969 206.652 59.0739 207.149 60.0282 207.31C60.9824 207.47 63.5688 207.31 64.046 207.31C64.5231 207.31 68.0286 208.113 70.2836 208.113C72.5386 208.113 75.1201 207.792 74.6982 206.345C74.2763 204.899 70.6402 203.453 69.5403 202.83C68.4404 202.207 66.994 198.31 66.994 198.31C66.994 198.31 68.0889 195.256 68.1592 193.649C68.2295 192.042 73.081 168.402 73.8394 161.808C74.5977 155.214 73.9348 125.145 73.9348 125.145L74.5425 118.21C74.5425 118.21 55.5784 121.745 45.4385 118.044Z" fill="#4F5168" stroke="#4F5168" stroke-linecap="round" stroke-linejoin="round"/>
<path d="M50.3854 75.4852C50.3854 75.4852 44.0573 80.628 41.1545 82.21C38.2516 83.792 34.962 85.9014 34.962 85.9014C34.962 85.9014 31.1351 118.21 31.5318 119.395C31.9286 120.58 33.5106 137.591 33.5106 137.591L39.3113 137.355L40.7627 116.653L43.7761 106.608L44.1678 118.476C44.1678 118.476 43.9067 120.193 45.3581 120.851C46.8095 121.509 59.4757 122.689 65.8138 122.288C72.1519 121.886 74.1206 119.515 74.3868 118.2C74.653 116.884 75.0447 93.7261 75.1753 91.22C75.3059 88.7139 74.0051 82.1799 70.8763 78.5187C70.0174 77.5142 60.4098 75.7414 60.4098 75.7414C60.4098 75.7414 53.8156 73.642 50.3854 75.4852Z" fill="white" stroke="#4F5168" stroke-linecap="round" stroke-linejoin="round"/>
<path d="M58.637 81.6525L62.2128 86.4889L60.9523 115.934C60.9523 115.934 63.6844 119.51 64.1062 120.143C64.5281 120.776 67.893 115.096 67.893 115.096L63.8752 86.9108L65.5577 81.8634L64.6034 78.9103L59.8775 77.4438L58.637 81.6525Z" fill="#7BC043" stroke="#4F5168" stroke-linecap="round" stroke-linejoin="round"/>
<path d="M61.6955 98.5676L65.2262 96.2925L64.6185 92.0085L61.9015 93.7563L61.6955 98.5676Z" fill="#4F5168"/>
<path d="M62.2128 86.489L62.1375 88.2519L63.9154 87.0566L63.8953 86.9109L65.5778 81.8635L65.407 81.3312L60.7212 84.4701L62.2128 86.489Z" fill="#4F5168"/>
<path d="M67.893 115.096L67.3908 111.696L60.9824 114.815L60.9372 115.935C60.9372 115.935 61.8864 117.175 62.7502 118.325L67.2351 116.146C67.6319 115.528 67.893 115.096 67.893 115.096Z" fill="#4F5168"/>
<path d="M61.4344 104.675L61.2234 109.536L66.5973 105.955L65.9846 101.641L61.4344 104.675Z" fill="#4F5168"/>
<path d="M43.7962 106.603L48.6728 95.7903" stroke="#4F5168" stroke-linecap="round" stroke-linejoin="round"/>
<path d="M63.0666 83.4254L65.7134 75.4802L62.1877 73.7174L63.0666 83.4254Z" fill="white" stroke="#4F5168" stroke-linecap="round" stroke-linejoin="round"/>
<path d="M65.7134 75.4802L69.244 79.7843L64.6235 78.9104L65.7134 75.4802Z" fill="white" stroke="#4F5168" stroke-linecap="round" stroke-linejoin="round"/>
<path d="M61.6353 50.5547C61.6353 50.5547 62.8457 55.6272 64.1464 58.5903C65.4472 61.5534 65.7987 63.4418 65.3618 66.42C64.9249 69.3982 64.9198 70.7241 64.2569 71.0556C63.47 71.3495 62.6581 71.5713 61.8312 71.7185L63.0415 83.4103L60.2843 79.5482L51.3748 71.0606L46.5233 58.1534C46.5233 58.1534 44.0122 55.0647 47.2967 51.2076C50.5813 47.3505 59.4305 47.7974 61.6353 50.5547Z" fill="white" stroke="#4F5168" stroke-linecap="round" stroke-linejoin="round"/>
<path d="M47.7387 62.0205L49.2805 61.3576C48.8983 61.0203 48.6144 60.5861 48.4588 60.1007C48.3032 59.6153 48.2817 59.097 48.3966 58.6004C48.8385 56.948 53.3636 55.9536 52.8112 54.6278C52.2587 53.3019 47.0757 53.0859 50.4959 51.5391C53.9161 49.9922 59.9779 52.0915 61.9667 52.3125C63.9556 52.5335 62.0772 48.2344 62.0772 48.2344C62.0772 48.2344 65.5928 47.5715 62.8456 45.0352C60.0985 42.499 48.7281 44.0308 45.5289 47.461C42.3297 50.8912 43.0177 53.6384 43.987 55.4966C44.9563 57.3548 46.7443 61.7845 46.7443 61.7845L47.7387 62.0205Z" fill="#4F5168" stroke="#4F5168" stroke-linecap="round" stroke-linejoin="round"/>
<path d="M49.2805 62.6885C49.2805 62.6885 47.0757 60.3682 45.8603 61.4731C44.645 62.578 46.4128 65.3352 47.8692 66.3246C49.3257 67.314 50.6265 66.1036 50.6265 66.1036" fill="white"/>
<path d="M49.2805 62.6885C49.2805 62.6885 47.0757 60.3682 45.8603 61.4731C44.645 62.578 46.4128 65.3352 47.8692 66.3246C49.3257 67.314 50.6265 66.1036 50.6265 66.1036" stroke="#4F5168" stroke-linecap="round" stroke-linejoin="round"/>
<path d="M61.6353 54.7433C61.6353 54.7433 60.5304 53.8644 59.9779 55.0748C59.6526 55.8792 59.5757 56.7625 59.757 57.611L63.2725 62.9095L59.8524 63.6779" stroke="#4F5168" stroke-linecap="round" stroke-linejoin="round"/>
<path d="M61.0828 65.7772C60.3013 66.0491 59.462 66.1105 58.6492 65.9554C57.8364 65.8002 57.0787 65.4339 56.4523 64.8933" stroke="#4F5168" stroke-linecap="round" stroke-linejoin="round"/>
<path d="M56.9997 55.7377C56.9997 55.7377 54.132 54.6328 52.7007 57.2795" stroke="#4F5168" stroke-linecap="round" stroke-linejoin="round"/>
<path d="M56.7235 60.3732C57.1201 60.3732 57.4417 59.8786 57.4417 59.2683C57.4417 58.6581 57.1201 58.1635 56.7235 58.1635C56.3269 58.1635 56.0053 58.6581 56.0053 59.2683C56.0053 59.8786 56.3269 60.3732 56.7235 60.3732Z" fill="#4F5168"/>
<path d="M62.9561 57.8319C62.9561 58.4446 62.6347 58.9368 62.243 58.9368C61.8512 58.9368 61.5248 58.4346 61.5248 57.8319C61.5248 57.2293 61.8462 56.7321 62.243 56.7321C62.6397 56.7321 62.9561 57.2242 62.9561 57.8319Z" fill="#4F5168"/>
<path d="M61.8563 71.7336L56.7838 71.2916L62.4087 78.5689L61.8563 71.7336Z" fill="#4F5168" stroke="#4F5168" stroke-miterlimit="10"/>
<path d="M51.3748 71.0707L49.0595 75.1488L56.3418 85.6302L60.3094 79.5633L51.3748 71.0707Z" fill="white" stroke="#4F5168" stroke-linecap="round" stroke-linejoin="round"/>
<path d="M33.7517 143.226H41.2449C41.5289 143.226 41.8101 143.282 42.0725 143.39C42.3348 143.499 42.5731 143.659 42.7737 143.86C42.9743 144.061 43.1333 144.3 43.2415 144.562C43.3497 144.825 43.4051 145.106 43.4045 145.39V150.412H31.5921V145.39C31.5914 145.106 31.6468 144.825 31.755 144.562C31.8633 144.3 32.0222 144.061 32.2228 143.86C32.4234 143.659 32.6617 143.499 32.9241 143.39C33.1864 143.282 33.4676 143.226 33.7517 143.226Z" stroke="#4F5168" stroke-width="4" stroke-linecap="round" stroke-linejoin="round"/>
<path d="M52.1984 148.961H22.4767C20.8901 148.961 19.6039 150.247 19.6039 151.834V169.778C19.6039 171.365 20.8901 172.651 22.4767 172.651H52.1984C53.785 172.651 55.0712 171.365 55.0712 169.778V151.834C55.0712 150.247 53.785 148.961 52.1984 148.961Z" fill="#23356F" stroke="#4F5168" stroke-linecap="round" stroke-linejoin="round"/>
<path d="M39.3113 137.354C39.3113 137.354 40.2354 138.801 41.1545 140.122C42.0736 141.443 43.7962 142.101 43.6656 142.758C43.5806 143.065 43.3853 143.328 43.1173 143.499C42.8492 143.67 42.5275 143.735 42.2142 143.683C41.6868 143.552 39.5775 141.834 39.5775 141.834L39.9742 145.265C39.9742 145.265 40.4765 146.45 39.5775 146.847C38.6785 147.243 37.3376 147.243 37.0664 146.847C36.8697 146.51 36.7017 146.157 36.5641 145.792C36.5641 145.792 34.3192 145.792 33.6613 145.395C33.0033 144.998 32.2098 144.34 32.3404 142.628C32.471 140.915 33.5307 137.606 33.5307 137.606L39.3113 137.354Z" fill="white" stroke="#4F5168" stroke-linecap="round" stroke-linejoin="round"/>
</svg>
