<svg width="18" height="14" viewBox="0 0 18 14" fill="none" xmlns="http://www.w3.org/2000/svg">
<path d="M11.685 7.00001C11.685 8.48501 10.485 9.68501 9 9.68501C7.515 9.68501 6.315 8.48501 6.315 7.00001C6.315 5.51501 7.515 4.31501 9 4.31501C10.485 4.31501 11.685 5.51501 11.685 7.00001Z" stroke="white" stroke-width="1.5" stroke-linecap="round" stroke-linejoin="round"/>
<path d="M9 13.2025C11.6475 13.2025 14.115 11.6425 15.8325 8.94251C16.5075 7.88501 16.5075 6.10751 15.8325 5.05001C14.115 2.35001 11.6475 0.790009 9 0.790009C6.3525 0.790009 3.885 2.35001 2.1675 5.05001C1.4925 6.10751 1.4925 7.88501 2.1675 8.94251C3.885 11.6425 6.3525 13.2025 9 13.2025Z" stroke="white" stroke-width="1.5" stroke-linecap="round" stroke-linejoin="round"/>
</svg>
